<?xml version="1.0" encoding="UTF-8"?>
<!DOCTYPE svg PUBLIC "-//W3C//DTD SVG 1.1//EN" "http://www.w3.org/Graphics/SVG/1.1/DTD/svg11.dtd">
<svg xmlns="http://www.w3.org/2000/svg" version="1.1" width="1239px" height="899px" style="shape-rendering:geometricPrecision; text-rendering:geometricPrecision; image-rendering:optimizeQuality; fill-rule:evenodd; clip-rule:evenodd" xmlns:xlink="http://www.w3.org/1999/xlink">
<g><path style="opacity:0.902" fill="#020201" d="M 32.5,13.5 C 37.3705,14.085 42.2039,14.7517 47,15.5C 47.6891,14.6433 48.5224,13.9767 49.5,13.5C 51.5,14.8333 53.5,14.8333 55.5,13.5C 60.0388,15.5933 64.3722,15.5933 68.5,13.5C 72.0635,14.6792 75.7302,15.3459 79.5,15.5C 96.7422,15.1724 114.242,14.5057 132,13.5C 136.973,14.2976 141.973,14.9643 147,15.5C 149.379,15.5175 151.546,14.8509 153.5,13.5C 157.597,13.551 161.764,14.2177 166,15.5C 170.201,14.9414 174.368,14.2748 178.5,13.5C 180.059,14.0736 181.559,14.7402 183,15.5C 189.935,14.7176 196.935,14.0509 204,13.5C 207.725,12.9101 211.392,13.5768 215,15.5C 228.932,16.1323 242.932,15.4657 257,13.5C 275.59,14.5369 294.09,14.5369 312.5,13.5C 314.258,14.1279 315.758,15.1279 317,16.5C 320.704,15.0875 324.538,14.0875 328.5,13.5C 357.027,14.3771 385.86,14.3771 415,13.5C 416.473,13.9031 417.806,14.5697 419,15.5C 428.47,14.8211 437.97,14.1545 447.5,13.5C 469.262,14.481 491.095,14.481 513,13.5C 515.478,14.8875 518.145,15.5542 521,15.5C 531.864,15.7754 542.698,15.1087 553.5,13.5C 573.627,13.5708 593.794,13.5708 614,13.5C 616.816,14.23 619.65,14.8966 622.5,15.5C 626.314,13.6624 630.314,13.6624 634.5,15.5C 639.441,14.5431 644.441,13.8764 649.5,13.5C 674.133,14.16 698.467,14.16 722.5,13.5C 729.299,14.2695 736.132,14.9362 743,15.5C 750.836,14.186 758.669,14.186 766.5,15.5C 773.663,14.8113 780.83,14.1446 788,13.5C 796.734,14.2199 805.401,14.2199 814,13.5C 816.723,14.6098 819.556,15.2765 822.5,15.5C 830.828,14.2549 839.162,14.2549 847.5,15.5C 852.572,15.2411 857.572,14.5744 862.5,13.5C 871.842,13.6322 881.009,13.6322 890,13.5C 891,14.1667 892,14.8333 893,15.5C 896.256,14.6517 899.589,13.985 903,13.5C 926.094,13.5949 949.427,13.5949 973,13.5C 976.07,13.8508 979.07,14.5174 982,15.5C 983.908,14.5457 985.908,13.879 988,13.5C 1007.57,13.7713 1027.24,13.7713 1047,13.5C 1056.62,15.411 1066.29,15.411 1076,13.5C 1080.47,15.2294 1085.14,15.2294 1090,13.5C 1130.33,14.4747 1170.33,14.4747 1210,13.5C 1215.51,13.7527 1219.84,16.0861 1223,20.5C 1224.22,23.2108 1225.05,26.0441 1225.5,29C 1225.28,47.7163 1224.95,66.5496 1224.5,85.5C 1225.04,86.7481 1225.71,87.9148 1226.5,89C 1226.1,96.2416 1225.44,103.575 1224.5,111C 1225.21,134.714 1225.21,158.048 1224.5,181C 1226.41,186.301 1226.41,191.801 1224.5,197.5C 1224.89,199.274 1225.55,200.941 1226.5,202.5C 1225.83,208.845 1225.16,215.178 1224.5,221.5C 1225.17,223.167 1225.83,224.833 1226.5,226.5C 1225.41,227.784 1224.75,229.284 1224.5,231C 1224.68,241.235 1225.01,251.568 1225.5,262C 1223.42,263.427 1223.42,265.093 1225.5,267C 1225.03,271.16 1225.03,275.16 1225.5,279C 1224.64,279.689 1223.98,280.522 1223.5,281.5C 1226.53,295.544 1226.86,309.378 1224.5,323C 1225.39,329.673 1225.72,336.506 1225.5,343.5C 1225.03,345.568 1224.37,347.568 1223.5,349.5C 1224.2,353.985 1224.86,358.485 1225.5,363C 1225.44,371.638 1225.11,380.305 1224.5,389C 1226.43,390.729 1226.43,392.729 1224.5,395C 1224.75,399.245 1224.75,403.411 1224.5,407.5C 1226.43,412.41 1226.43,417.41 1224.5,422.5C 1225.27,431.913 1225.27,441.58 1224.5,451.5C 1225.08,456.057 1225.75,460.557 1226.5,465C 1225.64,465.689 1224.98,466.522 1224.5,467.5C 1225.08,471.59 1225.08,475.59 1224.5,479.5C 1225.17,480.5 1225.83,481.5 1226.5,482.5C 1225.74,488.141 1225.74,493.641 1226.5,499C 1224.54,511.279 1224.54,523.612 1226.5,536C 1225.87,539.85 1225.2,543.683 1224.5,547.5C 1224.99,561.549 1224.99,575.882 1224.5,590.5C 1225.14,596.675 1225.81,602.841 1226.5,609C 1224.67,615.411 1224.67,621.911 1226.5,628.5C 1226.71,639.529 1226.04,650.696 1224.5,662C 1224.62,671.24 1224.62,680.906 1224.5,691C 1225.27,694.772 1225.94,698.605 1226.5,702.5C 1225.28,714.39 1225.28,726.223 1226.5,738C 1224.08,740.554 1224.08,743.054 1226.5,745.5C 1225.79,753.749 1225.79,762.082 1226.5,770.5C 1225.85,776.698 1225.19,782.864 1224.5,789C 1225.17,790 1225.83,791 1226.5,792C 1225.06,793.126 1224.39,794.626 1224.5,796.5C 1225.11,801.917 1225.11,807.25 1224.5,812.5C 1225.13,816.034 1225.8,819.534 1226.5,823C 1226.26,829.669 1225.93,836.335 1225.5,843C 1226.2,847.134 1226.86,851.3 1227.5,855.5C 1226.35,857.149 1225.02,858.649 1223.5,860C 1224.06,860.725 1224.39,861.558 1224.5,862.5C 1222.58,870.253 1217.75,875.253 1210,877.5C 1198.64,876.937 1187.3,876.937 1176,877.5C 1170.24,877.225 1164.57,876.558 1159,875.5C 1154.41,877.381 1149.91,877.381 1145.5,875.5C 1138.54,876.29 1131.54,876.957 1124.5,877.5C 1120.94,877.154 1117.44,876.487 1114,875.5C 1111.43,876.578 1108.77,877.245 1106,877.5C 1091.42,876.35 1076.75,876.683 1062,878.5C 1059.06,876.104 1056.23,876.104 1053.5,878.5C 1047.33,876.201 1040.99,875.868 1034.5,877.5C 1031.41,877.248 1028.41,876.581 1025.5,875.5C 1019.81,876.789 1014.15,876.789 1008.5,875.5C 1005.69,876.219 1002.85,876.886 1000,877.5C 995.348,877.394 990.682,877.394 986,877.5C 984.105,877.385 982.438,876.718 981,875.5C 974.076,878.504 967.076,878.837 960,876.5C 950.285,877.764 940.619,877.43 931,875.5C 926.35,876.232 921.684,876.899 917,877.5C 869.202,876.77 821.869,876.437 775,876.5C 766.149,877.283 757.483,877.95 749,878.5C 747.333,877.833 745.667,877.167 744,876.5C 742.333,877.167 740.667,877.833 739,878.5C 733.594,877.116 728.094,876.449 722.5,876.5C 710.997,876.651 699.497,876.651 688,876.5C 686.441,877.029 684.941,877.696 683.5,878.5C 673.358,877.797 663.191,877.13 653,876.5C 650.294,877.01 647.627,877.677 645,878.5C 636.833,877.816 628.667,876.816 620.5,875.5C 618.808,876.969 616.808,877.635 614.5,877.5C 582.843,877.565 551.177,877.232 519.5,876.5C 517.068,877.4 514.568,878.066 512,878.5C 507.655,877.006 503.155,876.339 498.5,876.5C 489.754,876.705 480.921,876.705 472,876.5C 469.739,876.865 467.573,877.531 465.5,878.5C 451.943,877.492 438.443,877.492 425,878.5C 417.631,876.899 410.465,876.566 403.5,877.5C 400.869,877.218 398.369,876.551 396,875.5C 394.333,876.167 392.667,876.833 391,877.5C 387.59,876.682 383.923,876.349 380,876.5C 377.849,876.773 375.849,877.439 374,878.5C 357.631,877.841 341.298,877.841 325,878.5C 322.667,877.833 320.333,877.167 318,876.5C 311.279,877.761 304.613,877.761 298,876.5C 296.333,877.167 294.667,877.833 293,878.5C 289.228,877.726 285.395,877.06 281.5,876.5C 273.674,877.775 265.841,877.775 258,876.5C 254.279,878.251 250.779,878.251 247.5,876.5C 244.198,877.258 240.865,877.925 237.5,878.5C 231.773,878.445 226.106,878.445 220.5,878.5C 218.541,878.125 216.707,877.459 215,876.5C 210.667,877.167 206.333,877.833 202,878.5C 200.215,877.76 198.382,877.093 196.5,876.5C 170.087,877.987 144.253,878.654 119,878.5C 112.327,875.899 105.66,875.899 99,878.5C 96.9211,877.597 94.7544,876.931 92.5,876.5C 88.8611,877.326 85.1944,877.993 81.5,878.5C 72.4122,878.708 63.4122,878.375 54.5,877.5C 51.3335,880.277 48.3335,880.111 45.5,877C 41.8225,876.547 38.1559,876.714 34.5,877.5C 29.3556,877.2 25.1889,875.2 22,871.5C 18.7729,862.547 17.9396,853.38 19.5,844C 18.8333,842.667 18.1667,841.333 17.5,840C 17.722,831.507 18.0554,823.173 18.5,815C 17.8957,812.476 17.229,809.976 16.5,807.5C 17.8141,801.346 17.8141,795.179 16.5,789C 17.0682,787.128 17.7349,785.295 18.5,783.5C 18.5636,778.866 17.897,774.199 16.5,769.5C 17.3209,767.217 17.9876,764.884 18.5,762.5C 17.1957,757.659 17.1957,752.826 18.5,748C 16.552,741.232 16.552,734.566 18.5,728C 17.4437,723.558 17.4437,718.891 18.5,714C 18.5542,711.145 17.8875,708.478 16.5,706C 16.9054,705.055 17.572,704.388 18.5,704C 17.5697,702.806 16.9031,701.473 16.5,700C 17.8234,689.359 17.8234,678.526 16.5,667.5C 17.1667,662.833 17.8333,658.167 18.5,653.5C 17.7399,650.319 18.0732,647.152 19.5,644C 17.9515,638.297 17.2849,632.464 17.5,626.5C 17.3943,615.637 17.7276,605.137 18.5,595C 17.8041,590.866 17.1375,586.7 16.5,582.5C 17.383,566.656 18.383,550.656 19.5,534.5C 17.2043,531.546 16.871,528.38 18.5,525C 18.1075,521.241 17.4408,517.574 16.5,514C 18.4256,510.51 18.4256,507.177 16.5,504C 17.4034,496.247 17.4034,488.413 16.5,480.5C 17.0372,479.259 17.7039,478.092 18.5,477C 18.0689,472.878 17.4022,468.545 16.5,464C 17.1667,463 17.8333,462 18.5,461C 17.416,455.834 17.416,450.501 18.5,445C 18.1603,439.948 17.4936,434.948 16.5,430C 17.8136,412.578 17.8136,395.244 16.5,378C 17.3567,377.311 18.0233,376.478 18.5,375.5C 17.2117,372.966 17.2117,370.466 18.5,368C 17.8333,367 17.1667,366 16.5,365C 16.8492,361.969 16.8492,358.802 16.5,355.5C 18.7423,351.748 18.7423,347.915 16.5,344C 17.3943,342.604 18.0609,341.104 18.5,339.5C 17.9192,326.338 17.9192,313.172 18.5,300C 17.8333,297 17.1667,294 16.5,291C 16.7465,274.428 16.7465,257.762 16.5,241C 16.9504,239.715 17.6171,238.548 18.5,237.5C 17.353,231.285 17.353,225.285 18.5,219.5C 17.8333,218.5 17.1667,217.5 16.5,216.5C 16.6928,197.773 16.6928,178.94 16.5,160C 19.1139,153.574 19.1139,147.074 16.5,140.5C 17.803,132.214 17.803,123.714 16.5,115C 16.9054,114.055 17.572,113.388 18.5,113C 17.4258,112.261 16.7591,111.261 16.5,110C 17.6953,108.467 17.6953,106.967 16.5,105.5C 18.9374,94.3623 18.9374,83.3623 16.5,72.5C 18.4677,62.328 19.1343,52.1614 18.5,42C 17.6433,41.3109 16.9767,40.4776 16.5,39.5C 18.3524,34.3775 19.0191,29.2108 18.5,24C 19.1963,22.1072 20.0296,20.2738 21,18.5C 24.6581,16.281 28.4915,14.6144 32.5,13.5 Z"/></g>
<g><path style="opacity:1" fill="#645f5b" d="M 430.5,41.5 C 427.833,40.1667 425.167,40.1667 422.5,41.5C 423.312,40.0069 424.645,39.3402 426.5,39.5C 428.355,39.3402 429.688,40.0069 430.5,41.5 Z"/></g>
<g><path style="opacity:1" fill="#33302e" d="M 471.5,40.5 C 482.5,39.1667 493.5,39.1667 504.5,40.5C 499.968,40.1818 495.634,40.5151 491.5,41.5C 488.5,41.5 485.5,41.5 482.5,41.5C 479.038,40.5184 475.371,40.185 471.5,40.5 Z"/></g>
<g><path style="opacity:1" fill="#4e4a47" d="M 1016.5,39.5 C 1014.39,40.4682 1012.06,40.8016 1009.5,40.5C 1007.83,40.5 1006.17,40.5 1004.5,40.5C 997.299,40.7335 990.299,40.7335 983.5,40.5C 994.469,39.5931 1005.47,39.2598 1016.5,39.5 Z"/></g>
<g><path style="opacity:1" fill="#474341" d="M 1016.5,39.5 C 1032.31,39.3366 1048.31,39.3366 1064.5,39.5C 1061.71,40.4767 1058.71,40.81 1055.5,40.5C 1042.47,40.7345 1029.47,40.4012 1016.5,39.5 Z"/></g>
<g><path style="opacity:1" fill="#585351" d="M 88.5,41.5 C 84.1667,41.5 79.8333,41.5 75.5,41.5C 64.8281,41.3335 54.1615,41.5002 43.5,42C 42.6634,43.0113 42.33,44.1779 42.5,45.5C 41.1991,44.1155 41.1991,42.6155 42.5,41C 45.682,40.5931 48.8486,40.0931 52,39.5C 64.3187,40.1183 76.4853,40.785 88.5,41.5 Z"/></g>
<g><path style="opacity:1" fill="#6d6763" d="M 692.5,40.5 C 675.705,41.059 659.039,41.059 642.5,40.5C 659.32,39.2506 675.987,39.2506 692.5,40.5 Z"/></g>
<g><path style="opacity:1" fill="#9f9791" d="M 808.5,40.5 C 803.562,40.3881 798.729,41.0547 794,42.5C 760.35,41.8503 726.85,41.1836 693.5,40.5C 732.04,39.8377 770.373,39.8377 808.5,40.5 Z"/></g>
<g><path style="opacity:1" fill="#8b837f" d="M 821.5,40.5 C 817.02,41.6624 812.687,41.6624 808.5,40.5C 812.997,39.5425 817.33,39.5425 821.5,40.5 Z"/></g>
<g><path style="opacity:1" fill="#9e9590" d="M 886.5,40.5 C 864.833,41.8333 843.167,41.8333 821.5,40.5C 843.149,39.8911 864.816,39.8911 886.5,40.5 Z"/></g>
<g><path style="opacity:1" fill="#aba29c" d="M 1016.5,39.5 C 1029.47,40.4012 1042.47,40.7345 1055.5,40.5C 1040.17,41.8333 1024.83,41.8333 1009.5,40.5C 1012.06,40.8016 1014.39,40.4682 1016.5,39.5 Z"/></g>
<g><path style="opacity:1" fill="#9a928d" d="M 192.5,41.5 C 153.334,42.5169 114.334,42.5169 75.5,41.5C 79.8333,41.5 84.1667,41.5 88.5,41.5C 123.254,40.3645 157.921,40.3645 192.5,41.5 Z"/></g>
<g><path style="opacity:1" fill="#e8dcd4" d="M 1064.5,39.5 C 1066.17,39.5 1067.83,39.5 1069.5,39.5C 1087.15,40.8329 1105.15,41.4996 1123.5,41.5C 1141.67,41.4999 1159.67,41.1666 1177.5,40.5C 1184.17,39.1667 1190.83,39.1667 1197.5,40.5C 1197.57,49.8465 1197.23,59.1798 1196.5,68.5C 1197.12,77.8428 1197.78,87.1761 1198.5,96.5C 1198.5,103.833 1198.5,111.167 1198.5,118.5C 1198.5,130.5 1198.5,142.5 1198.5,154.5C 1198.1,158.375 1197.44,162.208 1196.5,166C 1197.15,183.307 1197.81,200.474 1198.5,217.5C 1198.83,217.5 1199.17,217.5 1199.5,217.5C 1199.5,218.167 1199.5,218.833 1199.5,219.5C 1198.59,254.823 1198.25,290.156 1198.5,325.5C 1197.74,331.843 1197.07,338.343 1196.5,345C 1196.84,378.93 1197.84,412.763 1199.5,446.5C 1198.17,459.167 1198.17,471.833 1199.5,484.5C 1198.3,504.093 1198.3,523.759 1199.5,543.5C 1198.78,566.506 1198.11,589.673 1197.5,613C 1197.96,620.672 1198.62,628.172 1199.5,635.5C 1199.5,637.167 1199.5,638.833 1199.5,640.5C 1198.17,668.5 1198.17,696.5 1199.5,724.5C 1199.33,744.845 1199.66,765.179 1200.5,785.5C 1199,793.278 1198.33,801.278 1198.5,809.5C 1198.5,815.011 1198.83,820.344 1199.5,825.5C 1199.5,826.5 1199.5,827.5 1199.5,828.5C 1198.51,835.313 1198.18,842.313 1198.5,849.5C 1195.83,849.5 1193.17,849.5 1190.5,849.5C 1179.19,850.356 1167.86,850.69 1156.5,850.5C 1138.83,850.5 1121.17,850.5 1103.5,850.5C 1085.32,849.273 1066.99,849.273 1048.5,850.5C 1043.67,849.707 1038.67,849.707 1033.5,850.5C 1025.73,848.876 1017.73,847.876 1009.5,847.5C 1007.97,847.64 1006.97,848.307 1006.5,849.5C 1005.51,849.328 1004.84,849.662 1004.5,850.5C 1002.5,850.5 1000.5,850.5 998.5,850.5C 986.217,849.54 973.883,849.206 961.5,849.5C 957.336,849.956 953.336,850.622 949.5,851.5C 947.379,851.675 945.379,851.341 943.5,850.5C 941.735,849.539 939.735,849.205 937.5,849.5C 932.816,849.461 928.149,849.128 923.5,848.5C 919.914,848.55 916.58,849.217 913.5,850.5C 899.076,850.491 884.743,849.658 870.5,848C 871.833,848.333 873.167,848.667 874.5,849C 869.316,849.174 864.316,849.674 859.5,850.5C 831.644,850.304 803.811,849.637 776,848.5C 765.856,849.273 755.689,849.773 745.5,850C 744.263,850.232 743.263,850.732 742.5,851.5C 721.187,851.099 699.853,851.099 678.5,851.5C 661.012,851.251 643.346,851.251 625.5,851.5C 620.5,851.5 615.5,851.5 610.5,851.5C 575.644,850.682 540.644,850.349 505.5,850.5C 499.642,850.178 493.975,850.511 488.5,851.5C 486.833,851.5 485.167,851.5 483.5,851.5C 462.665,850.516 441.665,850.516 420.5,851.5C 417.272,850.586 413.939,850.253 410.5,850.5C 405.628,850.691 400.795,850.358 396,849.5C 390.672,850.043 385.505,850.71 380.5,851.5C 372.91,851.37 365.243,851.037 357.5,850.5C 356.903,849.861 356.07,849.528 355,849.5C 339.015,850.13 323.182,850.797 307.5,851.5C 303.531,850.485 299.531,850.485 295.5,851.5C 272.027,850.192 248.694,850.192 225.5,851.5C 215.508,850.233 205.508,850.233 195.5,851.5C 167.988,850.224 140.322,850.224 112.5,851.5C 92.8241,850.812 72.9907,851.146 53,852.5C 49.7485,852.481 46.9151,851.814 44.5,850.5C 44.5,824.167 44.5,797.833 44.5,771.5C 45.1666,756.004 45.4999,740.337 45.5,724.5C 45.4994,708.485 44.8328,692.819 43.5,677.5C 43.2994,674.272 43.6328,671.105 44.5,668C 43.396,665.991 42.7293,663.824 42.5,661.5C 44.0944,653.587 44.761,645.587 44.5,637.5C 45.092,633.239 45.092,628.906 44.5,624.5C 45.8333,603.833 45.8333,583.167 44.5,562.5C 45.0185,543.006 45.3518,523.506 45.5,504C 45.7197,485.639 45.053,467.472 43.5,449.5C 44.416,445.208 44.416,440.874 43.5,436.5C 44.5074,430.856 44.5074,425.189 43.5,419.5C 44.3128,410.002 44.3128,400.335 43.5,390.5C 44.8164,387.913 45.483,384.913 45.5,381.5C 45.0373,368.664 44.3706,355.997 43.5,343.5C 43.5,340.167 43.5,336.833 43.5,333.5C 44.8001,331.777 45.4668,329.61 45.5,327C 45.5048,310.559 45.3381,294.059 45,277.5C 44.8138,274.964 44.3138,272.631 43.5,270.5C 43.5,264.167 43.5,257.833 43.5,251.5C 43.5,245.167 43.5,238.833 43.5,232.5C 43.5,224.5 43.5,216.5 43.5,208.5C 43.8828,192.16 43.8828,175.827 43.5,159.5C 44.293,155.661 44.9597,151.661 45.5,147.5C 44.9728,143.669 44.3061,140.002 43.5,136.5C 43.5,135.833 43.5,135.167 43.5,134.5C 43.6831,127.132 43.3498,119.799 42.5,112.5C 43.5553,98.3295 43.5553,83.9961 42.5,69.5C 43.1667,66.5 43.8333,63.5 44.5,60.5C 45.0967,60.2648 45.4301,59.7648 45.5,59C 44.913,54.3518 44.2463,49.8518 43.5,45.5C 43.1667,45.5 42.8333,45.5 42.5,45.5C 42.33,44.1779 42.6634,43.0113 43.5,42C 54.1615,41.5002 64.8281,41.3335 75.5,41.5C 114.334,42.5169 153.334,42.5169 192.5,41.5C 220.373,41.2831 248.04,41.2831 275.5,41.5C 282.477,42.5904 289.643,43.2571 297,43.5C 319.004,44.1508 340.838,43.4842 362.5,41.5C 382.367,41.4529 402.367,41.4529 422.5,41.5C 425.167,40.1667 427.833,40.1667 430.5,41.5C 432.167,41.5 433.833,41.5 435.5,41.5C 445.216,41.9764 454.883,41.9764 464.5,41.5C 464.833,41.5 465.167,41.5 465.5,41.5C 470.966,41.8112 476.633,41.8112 482.5,41.5C 485.5,41.5 488.5,41.5 491.5,41.5C 496.184,41.5389 500.851,41.8722 505.5,42.5C 520.994,41.9137 536.327,41.247 551.5,40.5C 574.242,40.1778 596.908,40.5111 619.5,41.5C 620.793,42.1582 622.293,42.4915 624,42.5C 630.181,41.8654 636.347,41.1987 642.5,40.5C 659.039,41.059 675.705,41.059 692.5,40.5C 692.833,40.5 693.167,40.5 693.5,40.5C 726.85,41.1836 760.35,41.8503 794,42.5C 798.729,41.0547 803.562,40.3881 808.5,40.5C 812.687,41.6624 817.02,41.6624 821.5,40.5C 843.167,41.8333 864.833,41.8333 886.5,40.5C 900.833,40.5 915.167,40.5 929.5,40.5C 932.171,41.2979 935.004,41.9646 938,42.5C 944.18,41.8538 950.347,41.1872 956.5,40.5C 972.624,43.1329 988.624,43.1329 1004.5,40.5C 1006.17,40.5 1007.83,40.5 1009.5,40.5C 1024.83,41.8333 1040.17,41.8333 1055.5,40.5C 1058.71,40.81 1061.71,40.4767 1064.5,39.5 Z"/></g>
<g><path style="opacity:1" fill="#a9a09a" d="M 1069.5,39.5 C 1105.59,39.7654 1141.59,40.0988 1177.5,40.5C 1159.67,41.1666 1141.67,41.4999 1123.5,41.5C 1105.15,41.4996 1087.15,40.8329 1069.5,39.5 Z"/></g>
<g><path style="opacity:1" fill="#8e8782" d="M 491.5,41.5 C 495.634,40.5151 499.968,40.1818 504.5,40.5C 519.957,40.5717 535.624,40.5717 551.5,40.5C 536.327,41.247 520.994,41.9137 505.5,42.5C 500.851,41.8722 496.184,41.5389 491.5,41.5 Z"/></g>
<g><path style="opacity:1" fill="#9c938e" d="M 471.5,40.5 C 475.371,40.185 479.038,40.5184 482.5,41.5C 476.633,41.8112 470.966,41.8112 465.5,41.5C 467.5,41.1667 469.5,40.8333 471.5,40.5 Z"/></g>
<g><path style="opacity:1" fill="#756f6b" d="M 435.5,41.5 C 445.167,40.1667 454.833,40.1667 464.5,41.5C 454.883,41.9764 445.216,41.9764 435.5,41.5 Z"/></g>
<g><path style="opacity:1" fill="#bbb1ab" d="M 642.5,40.5 C 636.347,41.1987 630.181,41.8654 624,42.5C 622.293,42.4915 620.793,42.1582 619.5,41.5C 626.309,40.8132 633.142,40.1466 640,39.5C 641.07,39.528 641.903,39.8614 642.5,40.5 Z"/></g>
<g><path style="opacity:1" fill="#bab0a9" d="M 983.5,40.5 C 990.299,40.7335 997.299,40.7335 1004.5,40.5C 988.624,43.1329 972.624,43.1329 956.5,40.5C 950.347,41.1872 944.18,41.8538 938,42.5C 935.004,41.9646 932.171,41.2979 929.5,40.5C 947.511,39.6752 965.511,39.6752 983.5,40.5 Z"/></g>
<g><path style="opacity:1" fill="#cec3bc" d="M 275.5,41.5 C 304.5,41.5 333.5,41.5 362.5,41.5C 340.838,43.4842 319.004,44.1508 297,43.5C 289.643,43.2571 282.477,42.5904 275.5,41.5 Z"/></g>
<g><path style="opacity:1" fill="#494543" d="M 1198.5,41.5 C 1200.14,67.0022 1200.48,92.6689 1199.5,118.5C 1199.17,118.5 1198.83,118.5 1198.5,118.5C 1198.5,111.167 1198.5,103.833 1198.5,96.5C 1198.62,78.3552 1198.62,60.0219 1198.5,41.5 Z"/></g>
<g><path style="opacity:1" fill="#8b837f" d="M 43.5,45.5 C 44.2463,49.8518 44.913,54.3518 45.5,59C 45.4301,59.7648 45.0967,60.2648 44.5,60.5C 43.6076,55.5624 43.2743,50.5624 43.5,45.5 Z"/></g>
<g><path style="opacity:1" fill="#3f3b3a" d="M 42.5,45.5 C 42.8333,45.5 43.1667,45.5 43.5,45.5C 43.2743,50.5624 43.6076,55.5624 44.5,60.5C 43.8333,63.5 43.1667,66.5 42.5,69.5C 42.5,61.5 42.5,53.5 42.5,45.5 Z"/></g>
<g><path style="opacity:1" fill="#b9afa9" d="M 1197.5,40.5 C 1198.17,40.5 1198.5,40.8333 1198.5,41.5C 1198.62,60.0219 1198.62,78.3552 1198.5,96.5C 1197.78,87.1761 1197.12,77.8428 1196.5,68.5C 1197.23,59.1798 1197.57,49.8465 1197.5,40.5 Z"/></g>
<g><path style="opacity:1" fill="#020101" d="M 944.5,94.5 C 967.634,95.0092 990.467,95.0092 1013,94.5C 1019,95.1667 1025,95.8333 1031,96.5C 1038.11,96.5475 1045.28,96.2141 1052.5,95.5C 1059.38,95.7772 1066.22,96.4438 1073,97.5C 1080.34,95.698 1087.68,95.0313 1095,95.5C 1099.41,96.3029 1103.91,96.8029 1108.5,97C 1109.72,99.944 1111.56,102.444 1114,104.5C 1113.7,111.891 1113.86,119.224 1114.5,126.5C 1113.6,128.932 1112.93,131.432 1112.5,134C 1113.2,157.091 1113.54,180.258 1113.5,203.5C 1112.71,209.296 1112.04,215.129 1111.5,221C 1112.37,245.798 1112.04,270.632 1110.5,295.5C 1110.18,314.501 1110.51,333.668 1111.5,353C 1110.55,358.149 1109.55,363.315 1108.5,368.5C 1057.24,368.48 1006.24,368.813 955.5,369.5C 951.862,368.818 948.195,368.318 944.5,368C 941.28,367.357 939.113,365.524 938,362.5C 937.833,352.5 937.667,342.5 937.5,332.5C 938.682,275.469 938.682,218.636 937.5,162C 938.24,160.215 938.907,158.382 939.5,156.5C 938.346,137.544 938.18,118.544 939,99.5C 940.352,97.251 942.185,95.5844 944.5,94.5 Z"/></g>
<g><path style="opacity:1" fill="#552322" d="M 1101.5,198.5 C 1099.78,196.747 1098.28,194.747 1097,192.5C 1094.67,185.843 1092.34,179.177 1090,172.5C 1088.2,159.924 1086.04,147.424 1083.5,135C 1083.96,134.586 1084.29,134.086 1084.5,133.5C 1083.1,131.87 1082.1,130.036 1081.5,128C 1078.83,126.097 1075.83,125.264 1072.5,125.5C 1074.02,142.268 1076.52,158.935 1080,175.5C 1083.01,185.893 1087.18,195.726 1092.5,205C 1087.35,202.924 1082.35,200.257 1077.5,197C 1074.05,195.891 1071.39,196.891 1069.5,200C 1065.76,199.523 1064.59,201.356 1066,205.5C 1067.49,206.253 1067.65,207.086 1066.5,208C 1067.31,208.308 1067.97,208.808 1068.5,209.5C 1063.51,217.694 1065.84,220.86 1075.5,219C 1077.48,216.913 1078.82,214.413 1079.5,211.5C 1084.2,213.368 1088.53,215.868 1092.5,219C 1095.06,220.079 1097.73,220.579 1100.5,220.5C 1101.06,223.516 1101.73,226.516 1102.5,229.5C 1101.1,230.852 1100.44,232.519 1100.5,234.5C 1100.58,250.7 1100.91,267.033 1101.5,283.5C 1100.81,292.813 1100.14,302.147 1099.5,311.5C 1099.88,326.721 1099.88,342.055 1099.5,357.5C 1048.87,357.483 998.199,357.817 947.5,358.5C 948.213,324.051 948.546,289.384 948.5,254.5C 949.117,254.611 949.617,254.944 950,255.5C 948.858,262.924 951.858,267.257 959,268.5C 959.945,268.095 960.612,267.428 961,266.5C 960.56,259.633 960.394,253.133 960.5,247C 961.882,231.154 965.049,215.654 970,200.5C 975.191,192.45 979.024,183.783 981.5,174.5C 985.064,174.849 988.398,174.183 991.5,172.5C 992.336,168.444 990.669,165.611 986.5,164C 982.467,162.96 978.801,163.626 975.5,166C 970.794,175.246 965.961,184.412 961,193.5C 957.06,204.424 954.226,215.424 952.5,226.5C 952.709,227.086 953.043,227.586 953.5,228C 952.687,232.339 951.687,236.672 950.5,241C 950.585,242.107 950.919,243.107 951.5,244C 950.726,246.405 950.226,248.905 950,251.5C 949.802,249.618 949.302,247.952 948.5,246.5C 949.092,198.416 949.092,151.583 948.5,106C 999.529,106.526 1050.53,106.86 1101.5,107C 1102.17,108.667 1102.83,110.333 1103.5,112C 1103.3,122.771 1102.63,133.604 1101.5,144.5C 1102.45,162.526 1102.45,180.526 1101.5,198.5 Z"/></g>
<g><path style="opacity:1" fill="#54504d" d="M 42.5,112.5 C 43.3498,119.799 43.6831,127.132 43.5,134.5C 42.7381,128.157 42.0715,121.657 41.5,115C 41.528,113.93 41.8614,113.097 42.5,112.5 Z"/></g>
<g><path style="opacity:1" fill="#918984" d="M 1198.5,118.5 C 1198.83,118.5 1199.17,118.5 1199.5,118.5C 1199.59,134.293 1199.59,149.96 1199.5,165.5C 1199.81,161.629 1199.48,157.962 1198.5,154.5C 1198.5,142.5 1198.5,130.5 1198.5,118.5 Z"/></g>
<g><path style="opacity:1" fill="#827b77" d="M 43.5,136.5 C 44.3061,140.002 44.9728,143.669 45.5,147.5C 44.9597,151.661 44.293,155.661 43.5,159.5C 43.5,151.833 43.5,144.167 43.5,136.5 Z"/></g>
<g><path style="opacity:1" fill="#4c1e1d" d="M 948.5,254.5 C 948.5,251.833 948.5,249.167 948.5,246.5C 949.302,247.952 949.802,249.618 950,251.5C 950.226,248.905 950.726,246.405 951.5,244C 950.919,243.107 950.585,242.107 950.5,241C 951.687,236.672 952.687,232.339 953.5,228C 953.043,227.586 952.709,227.086 952.5,226.5C 954.226,215.424 957.06,204.424 961,193.5C 965.961,184.412 970.794,175.246 975.5,166C 978.801,163.626 982.467,162.96 986.5,164C 990.669,165.611 992.336,168.444 991.5,172.5C 988.398,174.183 985.064,174.849 981.5,174.5C 979.024,183.783 975.191,192.45 970,200.5C 965.049,215.654 961.882,231.154 960.5,247C 960.394,253.133 960.56,259.633 961,266.5C 960.612,267.428 959.945,268.095 959,268.5C 951.858,267.257 948.858,262.924 950,255.5C 949.617,254.944 949.117,254.611 948.5,254.5 Z"/></g>
<g><path style="opacity:1" fill="#807a75" d="M 43.5,159.5 C 43.8828,175.827 43.8828,192.16 43.5,208.5C 42.5233,205.713 42.19,202.713 42.5,199.5C 42.1711,185.99 42.5044,172.656 43.5,159.5 Z"/></g>
<g><path style="opacity:1" fill="#a49b95" d="M 1198.5,154.5 C 1199.48,157.962 1199.81,161.629 1199.5,165.5C 1199.5,176.833 1199.5,188.167 1199.5,199.5C 1198.59,205.441 1198.25,211.441 1198.5,217.5C 1197.81,200.474 1197.15,183.307 1196.5,166C 1197.44,162.208 1198.1,158.375 1198.5,154.5 Z"/></g>
<g><path style="opacity:1" fill="#4c1e1d" d="M 1056.5,128.5 C 1058.47,128.261 1060.3,128.594 1062,129.5C 1062.92,135.24 1061.92,140.573 1059,145.5C 1060.48,156.571 1057.31,166.238 1049.5,174.5C 1047.88,175.154 1046.22,175.654 1044.5,176C 1048.22,181.113 1049.39,186.613 1048,192.5C 1046.79,194.049 1045.29,195.215 1043.5,196C 1037.47,196.17 1031.47,196.67 1025.5,197.5C 1024.6,199.307 1023.27,200.64 1021.5,201.5C 1018.17,201.754 1014.67,202.421 1011,203.5C 1005.94,202.44 1001.94,199.773 999,195.5C 998.667,196.167 998.333,196.833 998,197.5C 998.648,206.789 999.314,216.123 1000,225.5C 1001.37,231.282 1003.7,236.615 1007,241.5C 1012.04,246.176 1017.04,250.843 1022,255.5C 1026.89,265.325 1028.22,275.325 1026,285.5C 1022.57,286.878 1021.74,289.211 1023.5,292.5C 1021.46,297.522 1017.79,299.356 1012.5,298C 1009.23,292.842 1006.73,287.342 1005,281.5C 1001.18,275.765 996.183,271.431 990,268.5C 985.437,272.982 981.937,272.315 979.5,266.5C 980.208,263.542 981.208,260.709 982.5,258C 989.825,256.984 996.492,258.65 1002.5,263C 1006,266.5 1009.5,270 1013,273.5C 1014.56,275.957 1015.56,278.624 1016,281.5C 1016.69,280.975 1017.19,280.308 1017.5,279.5C 1016.6,273.325 1015.1,267.325 1013,261.5C 1009.04,257.358 1004.7,253.692 1000,250.5C 996.814,246.127 994.147,241.46 992,236.5C 990.29,227.877 988.957,219.21 988,210.5C 987.566,202.13 987.399,193.963 987.5,186C 988.849,182.131 990.349,178.298 992,174.5C 992.561,173.978 993.228,173.645 994,173.5C 995.895,174.689 997.895,175.689 1000,176.5C 1003.25,182.252 1007.09,187.585 1011.5,192.5C 1012.5,192 1013.5,191.5 1014.5,191C 1010.71,186.856 1007.21,182.356 1004,177.5C 1003.44,175.275 1002.44,173.275 1001,171.5C 999.812,165.324 1002.31,163.158 1008.5,165C 1012.21,165.936 1015.37,167.769 1018,170.5C 1020.55,166.921 1024.05,164.921 1028.5,164.5C 1029.32,161.215 1029.82,157.882 1030,154.5C 1032.53,150.915 1035.53,150.582 1039,153.5C 1040,156.833 1041,160.167 1042,163.5C 1042.72,164.451 1043.55,164.617 1044.5,164C 1046.35,161.457 1047.52,158.624 1048,155.5C 1047.92,145.462 1050.75,136.462 1056.5,128.5 Z"/></g>
<g><path style="opacity:1" fill="#4d1f1e" d="M 1101.5,198.5 C 1101.27,203.876 1101.6,209.209 1102.5,214.5C 1102.12,216.717 1101.46,218.717 1100.5,220.5C 1097.73,220.579 1095.06,220.079 1092.5,219C 1088.53,215.868 1084.2,213.368 1079.5,211.5C 1078.82,214.413 1077.48,216.913 1075.5,219C 1065.84,220.86 1063.51,217.694 1068.5,209.5C 1067.97,208.808 1067.31,208.308 1066.5,208C 1067.65,207.086 1067.49,206.253 1066,205.5C 1064.59,201.356 1065.76,199.523 1069.5,200C 1071.39,196.891 1074.05,195.891 1077.5,197C 1082.35,200.257 1087.35,202.924 1092.5,205C 1087.18,195.726 1083.01,185.893 1080,175.5C 1076.52,158.935 1074.02,142.268 1072.5,125.5C 1075.83,125.264 1078.83,126.097 1081.5,128C 1082.1,130.036 1083.1,131.87 1084.5,133.5C 1084.29,134.086 1083.96,134.586 1083.5,135C 1086.04,147.424 1088.2,159.924 1090,172.5C 1092.34,179.177 1094.67,185.843 1097,192.5C 1098.28,194.747 1099.78,196.747 1101.5,198.5 Z"/></g>
<g><path style="opacity:1" fill="#5c5754" d="M 1199.5,199.5 C 1199.66,205.276 1199.66,211.276 1199.5,217.5C 1199.17,217.5 1198.83,217.5 1198.5,217.5C 1198.25,211.441 1198.59,205.441 1199.5,199.5 Z"/></g>
<g><path style="opacity:1" fill="#3d3937" d="M 42.5,199.5 C 42.19,202.713 42.5233,205.713 43.5,208.5C 43.5,216.5 43.5,224.5 43.5,232.5C 42.67,223.501 42.0034,214.334 41.5,205C 41.5056,202.967 41.8389,201.134 42.5,199.5 Z"/></g>
<g><path style="opacity:1" fill="#4b1d1d" d="M 1047.5,200.5 C 1051.14,200.738 1053.97,202.404 1056,205.5C 1059.18,211.658 1061.84,217.992 1064,224.5C 1064.67,232.167 1064.67,239.833 1064,247.5C 1063.06,249.942 1061.89,252.275 1060.5,254.5C 1060.17,253.833 1059.83,253.167 1059.5,252.5C 1056.85,253.362 1054.19,253.195 1051.5,252C 1048.25,247.835 1049.08,245.002 1054,243.5C 1055.86,231.102 1052.86,220.102 1045,210.5C 1044.33,207.833 1044.33,205.167 1045,202.5C 1045.99,201.934 1046.83,201.267 1047.5,200.5 Z"/></g>
<g><path style="opacity:1" fill="#6b6562" d="M 1199.5,219.5 C 1199.85,293.358 1199.85,367.358 1199.5,441.5C 1198.5,403.004 1198.17,364.337 1198.5,325.5C 1198.25,290.156 1198.59,254.823 1199.5,219.5 Z"/></g>
<g><path style="opacity:1" fill="#98908b" d="M 43.5,251.5 C 43.5,257.833 43.5,264.167 43.5,270.5C 43.1667,270.5 42.8333,270.5 42.5,270.5C 41.3028,263.99 41.6361,257.657 43.5,251.5 Z"/></g>
<g><path style="opacity:1" fill="#736d69" d="M 42.5,270.5 C 42.8333,270.5 43.1667,270.5 43.5,270.5C 44.4166,285.999 44.4166,301.333 43.5,316.5C 42.8961,301.28 42.5627,285.947 42.5,270.5 Z"/></g>
<g><path style="opacity:1" fill="#c4b9b3" d="M 43.5,270.5 C 44.3138,272.631 44.8138,274.964 45,277.5C 45.3381,294.059 45.5048,310.559 45.5,327C 45.4668,329.61 44.8001,331.777 43.5,333.5C 43.5,327.833 43.5,322.167 43.5,316.5C 44.4166,301.333 44.4166,285.999 43.5,270.5 Z"/></g>
<g><path style="opacity:1" fill="#cfc4bd" d="M 1198.5,325.5 C 1198.17,364.337 1198.5,403.004 1199.5,441.5C 1200.45,442.919 1200.78,444.585 1200.5,446.5C 1200.17,446.5 1199.83,446.5 1199.5,446.5C 1197.84,412.763 1196.84,378.93 1196.5,345C 1197.07,338.343 1197.74,331.843 1198.5,325.5 Z"/></g>
<g><path style="opacity:1" fill="#9a928d" d="M 43.5,343.5 C 44.3706,355.997 45.0373,368.664 45.5,381.5C 45.483,384.913 44.8164,387.913 43.5,390.5C 43.5,374.833 43.5,359.167 43.5,343.5 Z"/></g>
<g><path style="opacity:1" fill="#857e79" d="M 43.5,390.5 C 44.3128,400.335 44.3128,410.002 43.5,419.5C 43.5,416.833 43.5,414.167 43.5,411.5C 42.4344,406.733 41.7678,401.9 41.5,397C 41.5332,394.39 42.1999,392.223 43.5,390.5 Z"/></g>
<g><path style="opacity:1" fill="#4f4b48" d="M 43.5,411.5 C 43.5,414.167 43.5,416.833 43.5,419.5C 44.5074,425.189 44.5074,430.856 43.5,436.5C 42.1667,428.167 42.1667,419.833 43.5,411.5 Z"/></g>
<g><path style="opacity:1" fill="#8e8681" d="M 1199.5,446.5 C 1199.83,446.5 1200.17,446.5 1200.5,446.5C 1200.09,459.128 1199.76,471.795 1199.5,484.5C 1198.17,471.833 1198.17,459.167 1199.5,446.5 Z"/></g>
<g><path style="opacity:1" fill="#7a746f" d="M 1199.5,484.5 C 1200.26,489.679 1200.93,495.012 1201.5,500.5C 1199.98,503.59 1199.32,506.924 1199.5,510.5C 1200.67,521.663 1200.67,532.663 1199.5,543.5C 1198.3,523.759 1198.3,504.093 1199.5,484.5 Z"/></g>
<g><path style="opacity:1" fill="#a39a95" d="M 43.5,449.5 C 45.053,467.472 45.7197,485.639 45.5,504C 45.3518,523.506 45.0185,543.006 44.5,562.5C 44.1667,562.5 43.8333,562.5 43.5,562.5C 43.7884,524.89 43.7884,487.224 43.5,449.5 Z"/></g>
<g><path style="opacity:1" fill="#5f5a56" d="M 43.5,562.5 C 43.8333,562.5 44.1667,562.5 44.5,562.5C 44.8288,575.677 44.4955,588.677 43.5,601.5C 42.9256,588.468 42.9256,575.468 43.5,562.5 Z"/></g>
<g><path style="opacity:1" fill="#beb4ad" d="M 44.5,562.5 C 45.8333,583.167 45.8333,603.833 44.5,624.5C 44.8229,618.31 44.4896,612.31 43.5,606.5C 43.5,604.833 43.5,603.167 43.5,601.5C 44.4955,588.677 44.8288,575.677 44.5,562.5 Z"/></g>
<g><path style="opacity:1" fill="#958d88" d="M 1199.5,543.5 C 1199.99,574.149 1199.99,604.816 1199.5,635.5C 1198.62,628.172 1197.96,620.672 1197.5,613C 1198.11,589.673 1198.78,566.506 1199.5,543.5 Z"/></g>
<g><path style="opacity:1" fill="#7e7773" d="M 43.5,606.5 C 44.4896,612.31 44.8229,618.31 44.5,624.5C 45.092,628.906 45.092,633.239 44.5,637.5C 44.1667,637.5 43.8333,637.5 43.5,637.5C 42.9855,627.463 42.9855,617.13 43.5,606.5 Z"/></g>
<g><path style="opacity:1" fill="#33302f" d="M 43.5,637.5 C 43.8333,637.5 44.1667,637.5 44.5,637.5C 44.761,645.587 44.0944,653.587 42.5,661.5C 42.7293,663.824 43.396,665.991 44.5,668C 43.6328,671.105 43.2994,674.272 43.5,677.5C 42.1118,672.568 41.4452,667.401 41.5,662C 42.4946,653.86 43.1613,645.694 43.5,637.5 Z"/></g>
<g><path style="opacity:1" fill="#a89f99" d="M 1199.5,640.5 C 1199.74,668.538 1199.74,696.538 1199.5,724.5C 1198.17,696.5 1198.17,668.5 1199.5,640.5 Z"/></g>
<g><path style="opacity:1" fill="#ada39e" d="M 43.5,677.5 C 44.8328,692.819 45.4994,708.485 45.5,724.5C 45.4999,740.337 45.1666,756.004 44.5,771.5C 44.8229,765.31 44.4896,759.31 43.5,753.5C 43.5,728.167 43.5,702.833 43.5,677.5 Z"/></g>
<g><path style="opacity:1" fill="#7f7874" d="M 1200.5,785.5 C 1199.72,798.819 1199.39,812.152 1199.5,825.5C 1198.83,820.344 1198.5,815.011 1198.5,809.5C 1198.33,801.278 1199,793.278 1200.5,785.5 Z"/></g>
<g><path style="opacity:1" fill="#807974" d="M 43.5,753.5 C 44.4896,759.31 44.8229,765.31 44.5,771.5C 44.5,797.833 44.5,824.167 44.5,850.5C 43.5335,848.208 42.8669,845.708 42.5,843C 43.4368,813.168 43.7701,783.335 43.5,753.5 Z"/></g>
<g><path style="opacity:1" fill="#867f7a" d="M 1199.5,828.5 C 1199.5,835.833 1199.5,843.167 1199.5,850.5C 1196.29,850.81 1193.29,850.477 1190.5,849.5C 1193.17,849.5 1195.83,849.5 1198.5,849.5C 1198.18,842.313 1198.51,835.313 1199.5,828.5 Z"/></g>
<g><path style="opacity:1" fill="#b5aba5" d="M 913.5,850.5 C 912.081,851.451 910.415,851.784 908.5,851.5C 897.464,851.063 886.464,851.063 875.5,851.5C 873.393,850.532 871.059,850.198 868.5,850.5C 865.5,850.5 862.5,850.5 859.5,850.5C 864.316,849.674 869.316,849.174 874.5,849C 873.167,848.667 871.833,848.333 870.5,848C 884.743,849.658 899.076,850.491 913.5,850.5 Z"/></g>
<g><path style="opacity:1" fill="#c6bcb5" d="M 1033.5,850.5 C 1032.5,850.5 1031.5,850.5 1030.5,850.5C 1025.66,850.709 1020.83,851.042 1016,851.5C 1012.71,851.176 1009.54,850.509 1006.5,849.5C 1006.97,848.307 1007.97,847.64 1009.5,847.5C 1017.73,847.876 1025.73,848.876 1033.5,850.5 Z"/></g>
<g><path style="opacity:1" fill="#968e89" d="M 859.5,850.5 C 862.5,850.5 865.5,850.5 868.5,850.5C 826.724,851.012 784.724,851.345 742.5,851.5C 743.263,850.732 744.263,850.232 745.5,850C 755.689,849.773 765.856,849.273 776,848.5C 803.811,849.637 831.644,850.304 859.5,850.5 Z"/></g>
<g><path style="opacity:1" fill="#beb3ad" d="M 937.5,849.5 C 936.5,850.167 935.5,850.833 934.5,851.5C 927.496,851.227 920.496,850.894 913.5,850.5C 916.58,849.217 919.914,848.55 923.5,848.5C 928.149,849.128 932.816,849.461 937.5,849.5 Z"/></g>
<g><path style="opacity:1" fill="#b0a6a0" d="M 961.5,849.5 C 973.883,849.206 986.217,849.54 998.5,850.5C 996.052,851.473 993.385,851.806 990.5,851.5C 980.833,850.833 971.167,850.167 961.5,849.5 Z"/></g>
<g><path style="opacity:1" fill="#9a928d" d="M 1103.5,850.5 C 1084.97,851.8 1066.63,851.8 1048.5,850.5C 1066.99,849.273 1085.32,849.273 1103.5,850.5 Z"/></g>
<g><path style="opacity:1" fill="#7a7470" d="M 195.5,851.5 C 167.645,851.576 139.978,851.576 112.5,851.5C 140.322,850.224 167.988,850.224 195.5,851.5 Z"/></g>
<g><path style="opacity:1" fill="#928a86" d="M 225.5,851.5 C 248.694,850.192 272.027,850.192 295.5,851.5C 283.693,851.3 271.693,851.633 259.5,852.5C 248.346,851.505 237.012,851.172 225.5,851.5 Z"/></g>
<g><path style="opacity:1" fill="#8f8782" d="M 357.5,850.5 C 343.863,851.427 330.196,851.76 316.5,851.5C 313.5,851.5 310.5,851.5 307.5,851.5C 323.182,850.797 339.015,850.13 355,849.5C 356.07,849.528 356.903,849.861 357.5,850.5 Z"/></g>
<g><path style="opacity:1" fill="#a09792" d="M 410.5,850.5 C 400.681,851.494 390.681,851.827 380.5,851.5C 385.505,850.71 390.672,850.043 396,849.5C 400.795,850.358 405.628,850.691 410.5,850.5 Z"/></g>
<g><path style="opacity:1" fill="#5c5754" d="M 483.5,851.5 C 462.326,851.892 441.326,851.892 420.5,851.5C 441.665,850.516 462.665,850.516 483.5,851.5 Z"/></g>
<g><path style="opacity:1" fill="#928a85" d="M 488.5,851.5 C 493.975,850.511 499.642,850.178 505.5,850.5C 505.5,851.167 505.5,851.833 505.5,852.5C 499.839,852.093 494.172,851.76 488.5,851.5 Z"/></g>
<g><path style="opacity:1" fill="#625c59" d="M 937.5,849.5 C 939.735,849.205 941.735,849.539 943.5,850.5C 940.482,850.704 937.482,851.037 934.5,851.5C 935.5,850.833 936.5,850.167 937.5,849.5 Z"/></g>
<g><path style="opacity:1" fill="#3d3a38" d="M 961.5,849.5 C 971.167,850.167 980.833,850.833 990.5,851.5C 976.833,851.5 963.167,851.5 949.5,851.5C 953.336,850.622 957.336,849.956 961.5,849.5 Z"/></g>
<g><path style="opacity:1" fill="#8a837e" d="M 1048.5,850.5 C 1042.34,851.439 1036.34,851.439 1030.5,850.5C 1031.5,850.5 1032.5,850.5 1033.5,850.5C 1038.67,849.707 1043.67,849.707 1048.5,850.5 Z"/></g>
<g><path style="opacity:1" fill="#464340" d="M 1190.5,849.5 C 1193.29,850.477 1196.29,850.81 1199.5,850.5C 1185.17,851.833 1170.83,851.833 1156.5,850.5C 1167.86,850.69 1179.19,850.356 1190.5,849.5 Z"/></g>
<g><path style="opacity:1" fill="#494542" d="M 225.5,851.5 C 237.012,851.172 248.346,851.505 259.5,852.5C 237.936,852.425 216.603,852.092 195.5,851.5C 205.508,850.233 215.508,850.233 225.5,851.5 Z"/></g>
<g><path style="opacity:1" fill="#2f2c2a" d="M 357.5,850.5 C 357.5,850.833 357.5,851.167 357.5,851.5C 343.706,852.806 330.039,852.806 316.5,851.5C 330.196,851.76 343.863,851.427 357.5,850.5 Z"/></g>
<g><path style="opacity:1" fill="#44413e" d="M 357.5,850.5 C 365.243,851.037 372.91,851.37 380.5,851.5C 372.833,852.833 365.167,852.833 357.5,851.5C 357.5,851.167 357.5,850.833 357.5,850.5 Z"/></g>
<g><path style="opacity:1" fill="#3f3b39" d="M 505.5,850.5 C 540.644,850.349 575.644,850.682 610.5,851.5C 575.511,852.422 540.511,852.755 505.5,852.5C 505.5,851.833 505.5,851.167 505.5,850.5 Z"/></g>
<g><path style="opacity:1" fill="#373433" d="M 678.5,851.5 C 660.672,852.646 643.006,852.646 625.5,851.5C 643.346,851.251 661.012,851.251 678.5,851.5 Z"/></g>
<g><path style="opacity:1" fill="#2c2928" d="M 908.5,851.5 C 897.5,852.833 886.5,852.833 875.5,851.5C 886.464,851.063 897.464,851.063 908.5,851.5 Z"/></g>
<g><path style="opacity:1" fill="#474340" d="M 998.5,850.5 C 1000.5,850.5 1002.5,850.5 1004.5,850.5C 1001.98,851.973 999.15,852.64 996,852.5C 993.967,852.494 992.134,852.161 990.5,851.5C 993.385,851.806 996.052,851.473 998.5,850.5 Z"/></g>
</svg>
