<?xml version="1.0" encoding="UTF-8"?>
<!DOCTYPE svg PUBLIC "-//W3C//DTD SVG 1.1//EN" "http://www.w3.org/Graphics/SVG/1.1/DTD/svg11.dtd">
<svg xmlns="http://www.w3.org/2000/svg" version="1.1" width="924px" height="541px" style="shape-rendering:geometricPrecision; text-rendering:geometricPrecision; image-rendering:optimizeQuality; fill-rule:evenodd; clip-rule:evenodd" xmlns:xlink="http://www.w3.org/1999/xlink">
<g><path style="opacity:0.995" fill="#000000" d="M 191.5,3.5 C 198.492,3.98592 204.825,6.15259 210.5,10C 214.558,10.3404 218.558,11.0071 222.5,12C 232.653,19.2757 243.987,23.609 256.5,25C 276.53,26.8942 296.363,28.7276 316,30.5C 322.474,30.143 328.807,29.143 335,27.5C 335.414,27.9574 335.914,28.2907 336.5,28.5C 342.478,27.7896 348.478,27.1229 354.5,26.5C 371.683,30.5399 389.016,30.2066 406.5,25.5C 407.446,25.9867 408.446,26.3201 409.5,26.5C 420.17,24.6116 431.17,22.7782 442.5,21C 443.552,17.3814 445.885,16.0481 449.5,17C 450.191,18.0674 450.691,19.2341 451,20.5C 452.51,18.7923 454.01,17.1256 455.5,15.5C 456.324,18.6631 458.324,20.3298 461.5,20.5C 461.5,19.5 461.5,18.5 461.5,17.5C 462.5,17.5 463.5,17.5 464.5,17.5C 464.33,18.8221 464.663,19.9887 465.5,21C 471.262,21.6906 476.929,21.1906 482.5,19.5C 488.397,21.0665 494.397,21.7332 500.5,21.5C 500.5,20.1667 500.5,18.8333 500.5,17.5C 501.5,17.5 502.5,17.5 503.5,17.5C 503.5,18.5 503.5,19.5 503.5,20.5C 506.676,20.3298 508.676,18.6631 509.5,15.5C 510.99,17.1256 512.49,18.7923 514,20.5C 514.027,17.8066 515.36,16.4733 518,16.5C 520.3,17.9629 522.466,19.6296 524.5,21.5C 535.191,22.9499 545.525,24.6166 555.5,26.5C 556.689,26.2444 557.856,25.9111 559,25.5C 576.288,29.898 593.621,30.2313 611,26.5C 623.586,26.7161 636.253,28.0494 649,30.5C 668.617,28.5512 688.45,26.7179 708.5,25C 720.945,23.4388 732.279,19.1055 742.5,12C 746.442,11.0071 750.442,10.3404 754.5,10C 760.349,6.20413 766.516,4.03746 773,3.5C 773.5,4 774,4.5 774.5,5C 770.802,7.18603 767.468,9.8527 764.5,13C 751.747,19.0456 739.08,25.0456 726.5,31C 734.828,30.1707 743.162,29.004 751.5,27.5C 753.798,27.732 755.965,28.3986 758,29.5C 758.772,29.3552 759.439,29.0219 760,28.5C 761.8,30.317 763.966,31.4837 766.5,32C 769.758,32.2117 772.924,32.7117 776,33.5C 777.785,32.7599 779.618,32.0933 781.5,31.5C 785.507,32.417 789.841,32.5836 794.5,32C 797.274,30.2188 800.274,28.8855 803.5,28C 808.694,23.2031 814.694,19.8698 821.5,18C 822.667,16.8333 823.833,15.6667 825,14.5C 825.414,14.9574 825.914,15.2907 826.5,15.5C 835.889,12.0796 844.889,12.0796 853.5,15.5C 853.291,16.086 852.957,16.586 852.5,17C 836.963,18.5918 823.297,24.9251 811.5,36C 802.255,40.6204 792.589,44.1204 782.5,46.5C 762.078,41.4947 741.411,40.8281 720.5,44.5C 711.766,43.2115 703.099,43.5448 694.5,45.5C 689.833,45.7741 685.166,45.1075 680.5,43.5C 675.105,43.8885 669.605,44.5551 664,45.5C 658.438,43.1518 652.604,41.8185 646.5,41.5C 635.756,42.0192 625.09,42.0192 614.5,41.5C 601.175,42.6266 587.841,43.6266 574.5,44.5C 559.685,43.3414 544.685,43.3414 529.5,44.5C 525.492,44.6104 521.659,43.9438 518,42.5C 513.38,86.7608 531.547,117.594 572.5,135C 587.055,138.571 601.722,138.238 616.5,134C 639.653,124.519 659.486,110.352 676,91.5C 680.191,85.2108 684.191,78.8775 688,72.5C 686.083,98.3032 689.75,122.97 699,146.5C 714.477,176.355 737.644,185.522 768.5,174C 784.368,165.148 798.535,153.981 811,140.5C 811.467,135.502 813.967,133.502 818.5,134.5C 813.526,152.237 811.192,170.404 811.5,189C 813.061,201.181 816.727,212.681 822.5,223.5C 825.852,227.843 830.185,229.343 835.5,228C 839.852,226.477 843.519,223.977 846.5,220.5C 872.87,194.101 890.703,162.768 900,126.5C 900.979,117.859 901.646,109.192 902,100.5C 902.249,99.376 902.749,98.376 903.5,97.5C 905.227,124.442 902.06,151.108 894,177.5C 879.36,224.782 857.36,268.116 828,307.5C 780.959,369.879 722.459,418.379 652.5,453C 658.639,456.88 665.305,459.046 672.5,459.5C 672.412,462.309 670.912,463.642 668,463.5C 661.347,462.636 654.847,461.136 648.5,459C 642.64,451.737 640.807,453.237 643,463.5C 644.564,468.967 647.398,473.633 651.5,477.5C 649.45,478.663 647.45,478.496 645.5,477C 642.37,474.872 639.537,472.372 637,469.5C 635.727,463.524 635.227,457.524 635.5,451.5C 632.255,454.235 628.755,455.568 625,455.5C 624.508,454.451 624.674,453.451 625.5,452.5C 628.151,450.35 630.651,448.017 633,445.5C 634.98,440.69 637.314,436.023 640,431.5C 647.132,411.002 645.466,391.002 635,371.5C 617.745,342.594 592.745,323.927 560,315.5C 548.34,316.352 537.34,320.018 527,326.5C 526.51,327.793 526.343,329.127 526.5,330.5C 544.916,335.319 551.416,346.986 546,365.5C 543.304,376.729 538.137,386.563 530.5,395C 529.5,395.5 528.5,396 527.5,396.5C 515.465,392.62 506.298,385.287 500,374.5C 494.8,378.35 488.967,380.35 482.5,380.5C 477.954,381.064 473.954,379.897 470.5,377C 466.058,374.259 463.224,375.425 462,380.5C 455.081,387.712 446.915,393.045 437.5,396.5C 431.352,392.18 426.852,386.514 424,379.5C 422.897,374.628 421.23,369.962 419,365.5C 413.638,347.051 420.138,335.218 438.5,330C 439.28,328.927 439.113,327.76 438,326.5C 427.977,320.073 416.977,316.407 405,315.5C 374.428,323.433 350.428,340.433 333,366.5C 316.902,392.748 316.569,419.081 332,445.5C 335.586,448.384 338.252,451.717 340,455.5C 336.245,455.568 332.745,454.235 329.5,451.5C 329.68,457.213 329.18,463.213 328,469.5C 324.411,473.371 320.244,476.371 315.5,478.5C 314.833,478.167 314.167,477.833 313.5,477.5C 320.584,471 323.418,463 322,453.5C 319.228,457.601 315.395,460.101 310.5,461C 304.888,462.437 299.221,463.104 293.5,463C 292.663,461.989 292.33,460.822 292.5,459.5C 299.695,459.046 306.361,456.88 312.5,453C 212.578,402.743 138.078,327.243 89,226.5C 74.0635,194.092 64.7301,160.092 61,124.5C 60.3333,115.5 60.3333,106.5 61,97.5C 65.014,147.376 85.8473,189.876 123.5,225C 131.59,230.513 138.424,229.347 144,221.5C 152.015,203.563 155.181,185.23 153.5,166.5C 151.473,156.057 149.14,145.39 146.5,134.5C 148.187,133.432 149.854,133.599 151.5,135C 152.289,137.365 153.456,139.532 155,141.5C 167.135,154.651 180.969,165.484 196.5,174C 227.324,185.541 250.49,176.374 266,146.5C 272.182,131.277 276.015,115.777 277.5,100C 277.51,91.3717 277.344,82.205 277,72.5C 289.417,93.9174 306.25,111.084 327.5,124C 374.086,148.985 411.586,139.152 440,94.5C 446.933,77.6045 449.266,60.2711 447,42.5C 443.341,43.9438 439.508,44.6104 435.5,44.5C 418.203,43.5104 401.203,43.5104 384.5,44.5C 373.155,43.4214 361.821,42.4214 350.5,41.5C 339.942,42.0073 329.275,42.0073 318.5,41.5C 312.396,41.8185 306.562,43.1518 301,45.5C 292.921,42.987 284.921,42.987 277,45.5C 272.139,45.9055 267.306,45.2388 262.5,43.5C 256.431,43.3562 250.431,43.6896 244.5,44.5C 232.988,42.6942 221.821,41.6942 211,41.5C 200.507,42.9964 190.007,44.4964 179.5,46C 165.622,42.5614 153.288,36.2281 142.5,27C 132.69,20.966 122.024,17.2993 110.5,16C 119.876,12.1848 129.376,12.0181 139,15.5C 139.333,15.1667 139.667,14.8333 140,14.5C 145.204,18.64 151.371,22.14 158.5,25C 159.5,26 160.5,27 161.5,28C 165.696,29.5569 169.862,31.0569 174,32.5C 179.008,31.4696 184.008,31.8029 189,33.5C 197.225,31.9042 205.058,29.9042 212.5,27.5C 219.568,28.2585 226.568,29.4252 233.5,31C 236.833,31.6667 240.167,31.6667 243.5,31C 240.833,30.6667 238.167,30.3333 235.5,30C 224.043,24.1058 212.376,18.4391 200.5,13C 197.532,9.8527 194.198,7.18603 190.5,5C 191.056,4.61742 191.389,4.11742 191.5,3.5 Z M 464.5,43.5 C 476.5,44.8333 488.5,44.8333 500.5,43.5C 499.843,50.7781 499.843,57.7781 500.5,64.5C 494.968,63.4627 490.635,60.6294 487.5,56C 485.797,55.2547 484.13,54.4214 482.5,53.5C 480.87,54.4214 479.203,55.2547 477.5,56C 474.365,60.6294 470.032,63.4627 464.5,64.5C 465.157,57.7781 465.157,50.7781 464.5,43.5 Z"/></g>
<g><path style="opacity:1" fill="#efefef" d="M 462.5,345.5 C 464.103,345.312 465.437,345.812 466.5,347C 466.879,349.516 466.379,352.016 465,354.5C 461.431,352.289 460.597,349.289 462.5,345.5 Z"/></g>
<g><path style="opacity:1" fill="#f0f0f0" d="M 499.5,345.5 C 500.5,345.5 501.5,345.5 502.5,345.5C 504.599,349.45 503.765,352.45 500,354.5C 499.009,353.57 498.509,352.404 498.5,351C 499.427,349.028 499.76,347.195 499.5,345.5 Z"/></g>
</svg>
