<?xml version="1.0" encoding="UTF-8"?>
<!DOCTYPE svg PUBLIC "-//W3C//DTD SVG 1.1//EN" "http://www.w3.org/Graphics/SVG/1.1/DTD/svg11.dtd">
<svg xmlns="http://www.w3.org/2000/svg" version="1.1" width="922px" height="545px" style="shape-rendering:geometricPrecision; text-rendering:geometricPrecision; image-rendering:optimizeQuality; fill-rule:evenodd; clip-rule:evenodd" xmlns:xlink="http://www.w3.org/1999/xlink">
<g><path style="opacity:0.988" fill="#000000" d="M 523.5,327.5 C 523.297,329.39 523.963,330.89 525.5,332C 543.862,337.218 550.362,349.051 545,367.5C 542.58,375.097 539.58,382.431 536,389.5C 533.642,393.358 530.475,396.358 526.5,398.5C 514.465,394.62 505.298,387.287 499,376.5C 487.894,384.102 476.561,384.436 465,377.5C 457.695,387.281 448.195,394.281 436.5,398.5C 432.525,396.358 429.358,393.358 427,389.5C 419.75,376.757 416.417,363.091 417,348.5C 418,346.5 419,344.5 420,342.5C 425.614,336.565 432.447,332.732 440.5,331C 439.253,329.542 439.253,328.042 440.5,326.5C 439.975,325.808 439.308,325.308 438.5,325C 439.968,322.272 440.801,319.439 441,316.5C 426.26,325.241 414.926,337.241 407,352.5C 403.115,362.667 398.948,372.667 394.5,382.5C 387.995,385.118 383.329,383.285 380.5,377C 380.957,376.586 381.291,376.086 381.5,375.5C 379.472,370.209 377.139,365.043 374.5,360C 374.957,359.586 375.291,359.086 375.5,358.5C 373.746,349.959 372.246,341.626 371,333.5C 369.623,325.633 369.123,317.967 369.5,310.5C 370.558,303.708 372.558,297.208 375.5,291C 374.64,287.594 375.307,284.427 377.5,281.5C 376.524,279.877 377.024,278.543 379,277.5C 380.309,275.314 380.476,273.147 379.5,271C 381.079,267.815 382.412,264.481 383.5,261C 384.022,258.814 384.022,256.481 383.5,254C 385.099,249.204 386.432,244.537 387.5,240C 387.493,236.684 387.493,233.35 387.5,230C 389.428,225.603 391.095,221.103 392.5,216.5C 392.291,215.914 391.957,215.414 391.5,215C 393.054,212.776 394.054,210.276 394.5,207.5C 394.291,206.914 393.957,206.414 393.5,206C 394.761,202.445 396.094,198.945 397.5,195.5C 397.392,194.558 397.059,193.725 396.5,193C 397.921,190.139 398.921,187.139 399.5,184C 398.273,182.413 398.606,181.079 400.5,180C 400.167,179.667 399.833,179.333 399.5,179C 401.394,177.921 401.727,176.587 400.5,175C 402.931,171.135 403.931,167.135 403.5,163C 405.9,156.595 408.233,150.095 410.5,143.5C 410.291,142.914 409.957,142.414 409.5,142C 412.821,136.497 415.654,130.33 418,123.5C 422.576,118.013 426.909,112.347 431,106.5C 433.637,99.2227 437.304,92.556 442,86.5C 442.78,81.0731 444.613,76.0731 447.5,71.5C 447.184,68.8094 446.851,66.1427 446.5,63.5C 446.784,58.628 447.117,53.628 447.5,48.5C 446.902,47.2054 446.402,45.8721 446,44.5C 442.341,45.9438 438.508,46.6104 434.5,46.5C 417.203,45.5104 400.203,45.5104 383.5,46.5C 372.155,45.4214 360.821,44.4214 349.5,43.5C 338.942,44.0073 328.275,44.0073 317.5,43.5C 311.396,43.8185 305.562,45.1518 300,47.5C 296,46.8333 292,46.1667 288,45.5C 281.751,46.5456 275.418,47.2123 269,47.5C 260.604,45.4507 252.104,45.1173 243.5,46.5C 222.566,42.1758 201.899,42.8425 181.5,48.5C 177.799,47.8248 174.132,46.9914 170.5,46C 165.449,43.0915 160.116,40.7582 154.5,39C 141.653,27.4103 126.653,20.4103 109.5,18C 118.876,14.1848 128.376,14.0181 138,17.5C 138.333,17.1667 138.667,16.8333 139,16.5C 144.204,20.64 150.371,24.14 157.5,27C 158.5,28 159.5,29 160.5,30C 163.785,30.7589 166.785,32.0922 169.5,34C 174.293,33.9367 178.626,33.77 182.5,33.5C 184.382,34.0933 186.215,34.7599 188,35.5C 196.225,33.9042 204.058,31.9042 211.5,29.5C 218.568,30.2585 225.568,31.4252 232.5,33C 235.833,33.6667 239.167,33.6667 242.5,33C 239.833,32.6667 237.167,32.3333 234.5,32C 223.043,26.1058 211.376,20.4391 199.5,15C 196.532,11.8527 193.198,9.18603 189.5,7C 190.108,6.13008 190.941,5.63008 192,5.5C 198.48,6.14886 204.313,8.31553 209.5,12C 213.558,12.3404 217.558,13.0071 221.5,14C 231.653,21.2757 242.987,25.609 255.5,27C 275.53,28.8942 295.363,30.7276 315,32.5C 321.474,32.143 327.807,31.143 334,29.5C 334.414,29.9574 334.914,30.2907 335.5,30.5C 341.478,29.7896 347.478,29.1229 353.5,28.5C 370.683,32.5399 388.016,32.2066 405.5,27.5C 406.446,27.9867 407.446,28.3201 408.5,28.5C 419.17,26.6116 430.17,24.7782 441.5,23C 442.552,19.3814 444.885,18.0481 448.5,19C 449.191,20.0674 449.691,21.2341 450,22.5C 451.51,20.7923 453.01,19.1256 454.5,17.5C 455.324,20.6631 457.324,22.3298 460.5,22.5C 460.5,21.5 460.5,20.5 460.5,19.5C 461.5,19.5 462.5,19.5 463.5,19.5C 463.33,20.8221 463.663,21.9887 464.5,23C 470.262,23.6906 475.929,23.1906 481.5,21.5C 487.397,23.0665 493.397,23.7332 499.5,23.5C 499.5,22.1667 499.5,20.8333 499.5,19.5C 500.5,19.5 501.5,19.5 502.5,19.5C 502.5,20.5 502.5,21.5 502.5,22.5C 505.676,22.3298 507.676,20.6631 508.5,17.5C 509.99,19.1256 511.49,20.7923 513,22.5C 513.027,19.8066 514.36,18.4733 517,18.5C 519.3,19.9629 521.466,21.6296 523.5,23.5C 534.191,24.9499 544.525,26.6166 554.5,28.5C 555.689,28.2444 556.856,27.9111 558,27.5C 575.288,31.898 592.621,32.2313 610,28.5C 622.586,28.7161 635.253,30.0494 648,32.5C 667.617,30.5512 687.45,28.7179 707.5,27C 719.945,25.4388 731.279,21.1055 741.5,14C 745.442,13.0071 749.442,12.3404 753.5,12C 759.349,8.20413 765.516,6.03746 772,5.5C 772.5,6 773,6.5 773.5,7C 769.802,9.18603 766.468,11.8527 763.5,15C 750.747,21.0456 738.08,27.0456 725.5,33C 733.828,32.1707 742.162,31.004 750.5,29.5C 752.798,29.732 754.965,30.3986 757,31.5C 757.772,31.3552 758.439,31.0219 759,30.5C 760.8,32.317 762.966,33.4837 765.5,34C 768.758,34.2117 771.924,34.7117 775,35.5C 776.785,34.7599 778.618,34.0933 780.5,33.5C 784.507,34.417 788.841,34.5836 793.5,34C 796.274,32.2188 799.274,30.8855 802.5,30C 807.694,25.2031 813.694,21.8698 820.5,20C 821.667,18.8333 822.833,17.6667 824,16.5C 824.414,16.9574 824.914,17.2907 825.5,17.5C 834.889,14.0796 843.889,14.0796 852.5,17.5C 852.291,18.086 851.957,18.586 851.5,19C 835.963,20.5918 822.297,26.9251 810.5,38C 801.255,42.6204 791.589,46.1204 781.5,48.5C 761.078,43.4947 740.411,42.8281 719.5,46.5C 710.766,45.2115 702.099,45.5448 693.5,47.5C 688.833,47.7741 684.166,47.1075 679.5,45.5C 674.105,45.8885 668.605,46.5551 663,47.5C 657.438,45.1518 651.604,43.8185 645.5,43.5C 634.756,44.0192 624.09,44.0192 613.5,43.5C 600.175,44.6266 586.841,45.6266 573.5,46.5C 558.685,45.3414 543.685,45.3414 528.5,46.5C 524.492,46.6104 520.659,45.9438 517,44.5C 516.598,45.8721 516.098,47.2054 515.5,48.5C 515.547,56.9204 515.713,65.2537 516,73.5C 518.656,77.4167 520.322,81.75 521,86.5C 525.711,92.588 529.378,99.2547 532,106.5C 536,111.833 540,117.167 544,122.5C 546.946,129.551 550.113,136.051 553.5,142C 553.043,142.414 552.709,142.914 552.5,143.5C 554.571,150.138 556.904,156.638 559.5,163C 559.167,163.333 558.833,163.667 558.5,164C 560.261,169.282 561.927,174.282 563.5,179C 563.167,179.333 562.833,179.667 562.5,180C 564.394,181.079 564.727,182.413 563.5,184C 564.249,187.075 565.249,190.075 566.5,193C 565.978,193.561 565.645,194.228 565.5,195C 568.277,201.171 569.61,207.171 569.5,213C 571.891,214.309 571.891,215.309 569.5,216C 571.833,217.243 572.5,218.909 571.5,221C 573.146,224.407 574.479,227.574 575.5,230.5C 575.561,233.651 575.561,236.818 575.5,240C 576.568,244.537 577.901,249.204 579.5,254C 578.689,256.72 578.689,259.22 579.5,261.5C 584.856,277.848 589.522,294.015 593.5,310C 592.833,311 592.167,312 591.5,313C 592.804,313.804 593.471,314.971 593.5,316.5C 593.306,325.216 591.973,333.883 589.5,342.5C 589.833,343.167 590.167,343.833 590.5,344.5C 588.369,356.894 584.869,369.227 580,381.5C 575.902,384.002 571.902,384.002 568,381.5C 563.166,372.166 559.166,362.5 556,352.5C 552.468,348.308 549.802,343.641 548,338.5C 540.566,329.898 532.066,322.564 522.5,316.5C 522.167,316.667 521.833,316.833 521.5,317C 523.31,320.531 523.976,324.031 523.5,327.5 Z M 463.5,45.5 C 475.5,46.8333 487.5,46.8333 499.5,45.5C 498.986,51.99 498.986,58.1566 499.5,64C 493.708,65.2173 489.375,63.2173 486.5,58C 484.797,57.2547 483.13,56.4214 481.5,55.5C 477.194,58.9548 472.694,62.2881 468,65.5C 466.601,64.7734 465.101,64.2734 463.5,64C 464.014,58.1566 464.014,51.99 463.5,45.5 Z"/></g>
<g><path style="opacity:0.004" fill="#000000" d="M 446.5,63.5 C 445.833,62.1667 445.833,62.1667 446.5,63.5 Z"/></g>
<g><path style="opacity:0.204" fill="#000000" d="M 432.5,80.5 C 433.833,81.1667 433.833,81.1667 432.5,80.5 Z"/></g>
<g><path style="opacity:0.118" fill="#000000" d="M 529.5,80.5 C 530.833,81.1667 530.833,81.1667 529.5,80.5 Z"/></g>
<g><path style="opacity:0.071" fill="#000000" d="M 531.5,83.5 C 532.833,84.1667 532.833,84.1667 531.5,83.5 Z"/></g>
<g><path style="opacity:0.122" fill="#000000" d="M 424.5,100.5 C 425.833,101.167 425.833,101.167 424.5,100.5 Z"/></g>
<g><path style="opacity:0.02" fill="#000000" d="M 537.5,100.5 C 538.833,101.167 538.833,101.167 537.5,100.5 Z"/></g>
<g><path style="opacity:0.027" fill="#fdfefd" d="M 805.5,158.5 C 806.833,159.167 806.833,159.167 805.5,158.5 Z"/></g>
<g><path style="opacity:0.031" fill="#fefffe" d="M 803.5,159.5 C 804.833,160.167 804.833,160.167 803.5,159.5 Z"/></g>
<g><path style="opacity:0.01" fill="#fefffe" d="M 801.5,167.5 C 802.525,167.897 802.692,168.563 802,169.5C 801.536,168.906 801.369,168.239 801.5,167.5 Z"/></g>
<g><path style="opacity:0.012" fill="#fefffe" d="M 796.5,178.5 C 797.833,179.167 797.833,179.167 796.5,178.5 Z"/></g>
<g><path style="opacity:0.031" fill="#fefffe" d="M 796.5,182.5 C 797.833,183.167 797.833,183.167 796.5,182.5 Z"/></g>
<g><path style="opacity:0.004" fill="#fefffe" d="M 787.5,206.5 C 788.833,207.167 788.833,207.167 787.5,206.5 Z"/></g>
<g><path style="opacity:0.024" fill="#000000" d="M 646.5,274.5 C 647.833,275.167 647.833,275.167 646.5,274.5 Z"/></g>
<g><path style="opacity:0.016" fill="#000000" d="M 646.5,306.5 C 647.833,307.167 647.833,307.167 646.5,306.5 Z"/></g>
<g><path style="opacity:0.196" fill="#000000" d="M 523.5,326.5 C 524.833,327.167 524.833,327.167 523.5,326.5 Z"/></g>
<g><path style="opacity:0.004" fill="#fefffe" d="M 182.5,337.5 C 183.833,338.167 183.833,338.167 182.5,337.5 Z"/></g>
<g><path style="opacity:0.055" fill="#fdfefd" d="M 779.5,337.5 C 780.833,338.167 780.833,338.167 779.5,337.5 Z"/></g>
<g><path style="opacity:0.02" fill="#000000" d="M 746.5,339.5 C 747.833,340.167 747.833,340.167 746.5,339.5 Z"/></g>
<g><path style="opacity:0.004" fill="#000000" d="M 212.5,340.5 C 213.833,341.167 213.833,341.167 212.5,340.5 Z"/></g>
<g><path style="opacity:0.004" fill="#000000" d="M 209.5,342.5 C 210.833,343.167 210.833,343.167 209.5,342.5 Z"/></g>
<g><path style="opacity:0.004" fill="#000000" d="M 746.5,367.5 C 747.833,368.167 747.833,368.167 746.5,367.5 Z"/></g>
<g><path style="opacity:0.008" fill="#000000" d="M 667.5,397.5 C 668.833,398.167 668.833,398.167 667.5,397.5 Z"/></g>
<g><path style="opacity:0.02" fill="#000000" d="M 672.5,409.5 C 673.833,410.167 673.833,410.167 672.5,409.5 Z"/></g>
<g><path style="opacity:0.051" fill="#000000" d="M 664.5,443.5 C 665.833,444.167 665.833,444.167 664.5,443.5 Z"/></g>
<g><path style="opacity:0.063" fill="#000000" d="M 664.5,461.5 C 665.833,462.167 665.833,462.167 664.5,461.5 Z"/></g>
<g><path style="opacity:0.039" fill="#000000" d="M 324.5,469.5 C 325.833,470.167 325.833,470.167 324.5,469.5 Z"/></g>
<g><path style="opacity:0.204" fill="#000000" d="M 326.5,469.5 C 327.833,470.167 327.833,470.167 326.5,469.5 Z"/></g>
<g><path style="opacity:0.21" fill="#000000" d="M 320.5,473.5 C 321.708,472.218 323.042,472.218 324.5,473.5C 324.192,474.308 323.692,474.975 323,475.5C 322.583,474.244 321.75,473.577 320.5,473.5 Z"/></g>
<g><path style="opacity:0.149" fill="#000000" d="M 319.5,474.5 C 320.833,475.167 320.833,475.167 319.5,474.5 Z"/></g>
<g><path style="opacity:0.146" fill="#000000" d="M 319.5,475.5 C 319.541,479.243 318.874,479.41 317.5,476C 318.094,475.536 318.761,475.369 319.5,475.5 Z"/></g>
</svg>
