<?xml version="1.0" encoding="UTF-8"?>
<!DOCTYPE svg PUBLIC "-//W3C//DTD SVG 1.1//EN" "http://www.w3.org/Graphics/SVG/1.1/DTD/svg11.dtd">
<svg xmlns="http://www.w3.org/2000/svg" version="1.1" width="607px" height="1138px" style="shape-rendering:geometricPrecision; text-rendering:geometricPrecision; image-rendering:optimizeQuality; fill-rule:evenodd; clip-rule:evenodd" xmlns:xlink="http://www.w3.org/1999/xlink">
<g><path style="opacity:0.998" fill="#651c1c" d="M 281.5,35.5 C 285.984,35.8634 290.317,36.8634 294.5,38.5C 306.608,33.4915 316.775,36.1582 325,46.5C 405.849,156.556 463.515,278.223 498,411.5C 511.761,466.323 518.927,521.99 519.5,578.5C 520.712,636.574 509.878,692.241 487,745.5C 448.444,826.166 384.277,866.833 294.5,867.5C 204.723,866.833 140.556,826.166 102,745.5C 79.1218,692.241 68.2885,636.574 69.5,578.5C 70.4779,507.632 81.3112,438.299 102,370.5C 137.748,252.928 191.748,144.928 264,46.5C 268.594,40.632 274.427,36.9654 281.5,35.5 Z"/></g>
</svg>
