<?xml version="1.0" encoding="UTF-8"?>
<!DOCTYPE svg PUBLIC "-//W3C//DTD SVG 1.1//EN" "http://www.w3.org/Graphics/SVG/1.1/DTD/svg11.dtd">
<svg xmlns="http://www.w3.org/2000/svg" version="1.1" width="48px" height="48px" style="shape-rendering:geometricPrecision; text-rendering:geometricPrecision; image-rendering:optimizeQuality; fill-rule:evenodd; clip-rule:evenodd" xmlns:xlink="http://www.w3.org/1999/xlink">
<g><path style="opacity:0.924" fill="#000000" d="M 5.5,5.5 C 16.8382,5.33348 28.1716,5.50014 39.5,6C 41.0412,7.57934 42.2078,9.41267 43,11.5C 43.6667,21.8333 43.6667,32.1667 43,42.5C 32.2433,43.6529 21.41,43.8196 10.5,43C 7.979,40.7802 5.81233,38.2802 4,35.5C 3.33333,26.1667 3.33333,16.8333 4,7.5C 4.71719,6.9558 5.21719,6.28913 5.5,5.5 Z M 9.5,9.5 C 18.1731,9.33358 26.8397,9.50025 35.5,10C 36.3567,10.6891 37.0233,11.5224 37.5,12.5C 32.9516,15.6051 27.9516,17.9385 22.5,19.5C 17.1427,17.7248 12.1427,15.3915 7.5,12.5C 8.19251,11.4822 8.85917,10.4822 9.5,9.5 Z M 7.5,19.5 C 12.3948,21.4456 17.3948,23.1123 22.5,24.5C 27.3612,23.4039 32.0279,21.7372 36.5,19.5C 37.6599,23.4589 37.8265,27.4589 37,31.5C 36.5,32 36,32.5 35.5,33C 26.8333,33.6667 18.1667,33.6667 9.5,33C 9,32.5 8.5,32 8,31.5C 7.50115,27.5138 7.33449,23.5138 7.5,19.5 Z"/></g>
</svg>
