<?xml version="1.0" encoding="UTF-8"?>
<!DOCTYPE svg PUBLIC "-//W3C//DTD SVG 1.1//EN" "http://www.w3.org/Graphics/SVG/1.1/DTD/svg11.dtd">
<svg xmlns="http://www.w3.org/2000/svg" version="1.1" width="1239px" height="899px" style="shape-rendering:geometricPrecision; text-rendering:geometricPrecision; image-rendering:optimizeQuality; fill-rule:evenodd; clip-rule:evenodd" xmlns:xlink="http://www.w3.org/1999/xlink">
<g><path style="opacity:0.944" fill="#010101" d="M 32.5,13.5 C 37.3705,14.085 42.2039,14.7517 47,15.5C 47.6891,14.6433 48.5224,13.9767 49.5,13.5C 51.5,14.8333 53.5,14.8333 55.5,13.5C 60.0388,15.5933 64.3722,15.5933 68.5,13.5C 72.0635,14.6792 75.7302,15.3459 79.5,15.5C 96.7422,15.1724 114.242,14.5057 132,13.5C 136.973,14.2976 141.973,14.9643 147,15.5C 149.379,15.5175 151.546,14.8509 153.5,13.5C 157.597,13.551 161.764,14.2177 166,15.5C 170.201,14.9414 174.368,14.2748 178.5,13.5C 180.059,14.0736 181.559,14.7402 183,15.5C 189.935,14.7176 196.935,14.0509 204,13.5C 207.725,12.9101 211.392,13.5768 215,15.5C 228.932,16.1323 242.932,15.4657 257,13.5C 275.59,14.5369 294.09,14.5369 312.5,13.5C 314.258,14.1279 315.758,15.1279 317,16.5C 320.704,15.0875 324.538,14.0875 328.5,13.5C 357.027,14.3771 385.86,14.3771 415,13.5C 416.473,13.9031 417.806,14.5697 419,15.5C 428.47,14.8211 437.97,14.1545 447.5,13.5C 469.262,14.481 491.095,14.481 513,13.5C 515.478,14.8875 518.145,15.5542 521,15.5C 531.864,15.7754 542.698,15.1087 553.5,13.5C 573.627,13.5708 593.794,13.5708 614,13.5C 616.816,14.23 619.65,14.8966 622.5,15.5C 626.314,13.6624 630.314,13.6624 634.5,15.5C 639.441,14.5431 644.441,13.8764 649.5,13.5C 674.133,14.16 698.467,14.16 722.5,13.5C 729.299,14.2695 736.132,14.9362 743,15.5C 750.836,14.186 758.669,14.186 766.5,15.5C 773.663,14.8113 780.83,14.1446 788,13.5C 796.734,14.2199 805.401,14.2199 814,13.5C 816.723,14.6098 819.556,15.2765 822.5,15.5C 830.828,14.2549 839.162,14.2549 847.5,15.5C 852.572,15.2411 857.572,14.5744 862.5,13.5C 871.842,13.6322 881.009,13.6322 890,13.5C 891,14.1667 892,14.8333 893,15.5C 896.256,14.6517 899.589,13.985 903,13.5C 926.094,13.5949 949.427,13.5949 973,13.5C 976.07,13.8508 979.07,14.5174 982,15.5C 983.908,14.5457 985.908,13.879 988,13.5C 1007.57,13.7713 1027.24,13.7713 1047,13.5C 1056.62,15.411 1066.29,15.411 1076,13.5C 1080.47,15.2294 1085.14,15.2294 1090,13.5C 1130.33,14.4747 1170.33,14.4747 1210,13.5C 1220.63,15.4764 1226.47,21.9764 1227.5,33C 1227.28,51.7163 1226.95,70.5496 1226.5,89.5C 1227.04,90.7481 1227.71,91.9148 1228.5,93C 1228.1,100.242 1227.44,107.575 1226.5,115C 1227.21,138.714 1227.21,162.048 1226.5,185C 1228.41,190.301 1228.41,195.801 1226.5,201.5C 1226.89,203.274 1227.55,204.941 1228.5,206.5C 1227.83,212.845 1227.16,219.178 1226.5,225.5C 1227.17,227.167 1227.83,228.833 1228.5,230.5C 1227.41,231.784 1226.75,233.284 1226.5,235C 1226.68,245.235 1227.01,255.568 1227.5,266C 1225.42,267.427 1225.42,269.093 1227.5,271C 1227.03,275.16 1227.03,279.16 1227.5,283C 1226.64,283.689 1225.98,284.522 1225.5,285.5C 1228.53,299.544 1228.86,313.378 1226.5,327C 1227.39,333.673 1227.72,340.506 1227.5,347.5C 1227.03,349.568 1226.37,351.568 1225.5,353.5C 1226.2,357.985 1226.86,362.485 1227.5,367C 1227.44,375.638 1227.11,384.305 1226.5,393C 1228.43,394.729 1228.43,396.729 1226.5,399C 1226.75,403.245 1226.75,407.411 1226.5,411.5C 1228.43,416.41 1228.43,421.41 1226.5,426.5C 1227.27,435.913 1227.27,445.58 1226.5,455.5C 1227.08,460.057 1227.75,464.557 1228.5,469C 1227.64,469.689 1226.98,470.522 1226.5,471.5C 1227.08,475.59 1227.08,479.59 1226.5,483.5C 1227.17,484.5 1227.83,485.5 1228.5,486.5C 1227.74,492.141 1227.74,497.641 1228.5,503C 1226.54,515.279 1226.54,527.612 1228.5,540C 1227.87,543.85 1227.2,547.683 1226.5,551.5C 1226.99,565.549 1226.99,579.882 1226.5,594.5C 1227.14,600.675 1227.81,606.841 1228.5,613C 1226.67,619.411 1226.67,625.911 1228.5,632.5C 1228.71,643.529 1228.04,654.696 1226.5,666C 1226.62,675.24 1226.62,684.906 1226.5,695C 1227.27,698.772 1227.94,702.605 1228.5,706.5C 1227.28,718.39 1227.28,730.223 1228.5,742C 1226.08,744.554 1226.08,747.054 1228.5,749.5C 1227.79,757.749 1227.79,766.082 1228.5,774.5C 1227.85,780.698 1227.19,786.864 1226.5,793C 1227.17,794 1227.83,795 1228.5,796C 1227.06,797.126 1226.39,798.626 1226.5,800.5C 1227.11,805.917 1227.11,811.25 1226.5,816.5C 1227.13,820.034 1227.8,823.534 1228.5,827C 1228.26,833.669 1227.93,840.335 1227.5,847C 1228.2,851.134 1228.86,855.3 1229.5,859.5C 1228.35,861.149 1227.02,862.649 1225.5,864C 1226.06,864.725 1226.39,865.558 1226.5,866.5C 1224.58,874.253 1219.75,879.253 1212,881.5C 1200.64,880.937 1189.3,880.937 1178,881.5C 1172.24,881.225 1166.57,880.558 1161,879.5C 1156.41,881.381 1151.91,881.381 1147.5,879.5C 1140.54,880.29 1133.54,880.957 1126.5,881.5C 1122.94,881.154 1119.44,880.487 1116,879.5C 1113.43,880.578 1110.77,881.245 1108,881.5C 1093.42,880.35 1078.75,880.683 1064,882.5C 1061.06,880.104 1058.23,880.104 1055.5,882.5C 1049.33,880.201 1042.99,879.868 1036.5,881.5C 1033.41,881.248 1030.41,880.581 1027.5,879.5C 1021.81,880.789 1016.15,880.789 1010.5,879.5C 1007.69,880.219 1004.85,880.886 1002,881.5C 997.348,881.394 992.682,881.394 988,881.5C 986.105,881.385 984.438,880.718 983,879.5C 976.076,882.504 969.076,882.837 962,880.5C 952.285,881.764 942.619,881.43 933,879.5C 928.35,880.232 923.684,880.899 919,881.5C 871.202,880.77 823.869,880.437 777,880.5C 768.149,881.283 759.483,881.95 751,882.5C 749.333,881.833 747.667,881.167 746,880.5C 744.333,881.167 742.667,881.833 741,882.5C 735.594,881.116 730.094,880.449 724.5,880.5C 712.997,880.651 701.497,880.651 690,880.5C 688.441,881.029 686.941,881.696 685.5,882.5C 675.358,881.797 665.191,881.13 655,880.5C 652.294,881.01 649.627,881.677 647,882.5C 638.833,881.816 630.667,880.816 622.5,879.5C 620.808,880.969 618.808,881.635 616.5,881.5C 584.843,881.565 553.177,881.232 521.5,880.5C 519.068,881.4 516.568,882.066 514,882.5C 509.655,881.006 505.155,880.339 500.5,880.5C 491.754,880.705 482.921,880.705 474,880.5C 471.739,880.865 469.573,881.531 467.5,882.5C 453.943,881.492 440.443,881.492 427,882.5C 419.631,880.899 412.465,880.566 405.5,881.5C 402.869,881.218 400.369,880.551 398,879.5C 396.333,880.167 394.667,880.833 393,881.5C 389.59,880.682 385.923,880.349 382,880.5C 379.849,880.773 377.849,881.439 376,882.5C 359.631,881.841 343.298,881.841 327,882.5C 324.667,881.833 322.333,881.167 320,880.5C 313.279,881.761 306.613,881.761 300,880.5C 298.333,881.167 296.667,881.833 295,882.5C 291.228,881.726 287.395,881.06 283.5,880.5C 275.674,881.775 267.841,881.775 260,880.5C 256.279,882.251 252.779,882.251 249.5,880.5C 246.198,881.258 242.865,881.925 239.5,882.5C 233.773,882.445 228.106,882.445 222.5,882.5C 220.541,882.125 218.707,881.459 217,880.5C 212.667,881.167 208.333,881.833 204,882.5C 202.215,881.76 200.382,881.093 198.5,880.5C 172.087,881.987 146.253,882.654 121,882.5C 114.327,879.899 107.66,879.899 101,882.5C 98.9211,881.597 96.7544,880.931 94.5,880.5C 90.8611,881.326 87.1944,881.993 83.5,882.5C 74.4122,882.708 65.4122,882.375 56.5,881.5C 53.3335,884.277 50.3335,884.111 47.5,881C 43.8225,880.547 40.1559,880.714 36.5,881.5C 33.1017,880.97 29.7683,880.137 26.5,879C 19.5458,868.356 17.2125,856.69 19.5,844C 18.8333,842.667 18.1667,841.333 17.5,840C 17.722,831.507 18.0554,823.173 18.5,815C 17.8957,812.476 17.229,809.976 16.5,807.5C 17.8141,801.346 17.8141,795.179 16.5,789C 17.0682,787.128 17.7349,785.295 18.5,783.5C 18.5636,778.866 17.897,774.199 16.5,769.5C 17.3209,767.217 17.9876,764.884 18.5,762.5C 17.1957,757.659 17.1957,752.826 18.5,748C 16.552,741.232 16.552,734.566 18.5,728C 17.4437,723.558 17.4437,718.891 18.5,714C 18.5542,711.145 17.8875,708.478 16.5,706C 16.9054,705.055 17.572,704.388 18.5,704C 17.5697,702.806 16.9031,701.473 16.5,700C 17.8234,689.359 17.8234,678.526 16.5,667.5C 17.1667,662.833 17.8333,658.167 18.5,653.5C 17.7399,650.319 18.0732,647.152 19.5,644C 17.9515,638.297 17.2849,632.464 17.5,626.5C 17.3943,615.637 17.7276,605.137 18.5,595C 17.8041,590.866 17.1375,586.7 16.5,582.5C 17.383,566.656 18.383,550.656 19.5,534.5C 17.2043,531.546 16.871,528.38 18.5,525C 18.1075,521.241 17.4408,517.574 16.5,514C 18.4256,510.51 18.4256,507.177 16.5,504C 17.4034,496.247 17.4034,488.413 16.5,480.5C 17.0372,479.259 17.7039,478.092 18.5,477C 18.0689,472.878 17.4022,468.545 16.5,464C 17.1667,463 17.8333,462 18.5,461C 17.416,455.834 17.416,450.501 18.5,445C 18.1603,439.948 17.4936,434.948 16.5,430C 17.8136,412.578 17.8136,395.244 16.5,378C 17.3567,377.311 18.0233,376.478 18.5,375.5C 17.2117,372.966 17.2117,370.466 18.5,368C 17.8333,367 17.1667,366 16.5,365C 16.8492,361.969 16.8492,358.802 16.5,355.5C 18.7423,351.748 18.7423,347.915 16.5,344C 17.3943,342.604 18.0609,341.104 18.5,339.5C 17.9192,326.338 17.9192,313.172 18.5,300C 17.8333,297 17.1667,294 16.5,291C 16.7465,274.428 16.7465,257.762 16.5,241C 16.9504,239.715 17.6171,238.548 18.5,237.5C 17.353,231.285 17.353,225.285 18.5,219.5C 17.8333,218.5 17.1667,217.5 16.5,216.5C 16.6928,197.773 16.6928,178.94 16.5,160C 19.1139,153.574 19.1139,147.074 16.5,140.5C 17.803,132.214 17.803,123.714 16.5,115C 16.9054,114.055 17.572,113.388 18.5,113C 17.4258,112.261 16.7591,111.261 16.5,110C 17.6953,108.467 17.6953,106.967 16.5,105.5C 18.9374,94.3623 18.9374,83.3623 16.5,72.5C 18.4677,62.328 19.1343,52.1614 18.5,42C 17.6433,41.3109 16.9767,40.4776 16.5,39.5C 18.3524,34.3775 19.0191,29.2108 18.5,24C 19.1963,22.1072 20.0296,20.2738 21,18.5C 24.6581,16.281 28.4915,14.6144 32.5,13.5 Z"/></g>
<g><path style="opacity:1" fill="#3c3836" d="M 1018.5,43.5 C 1034.31,43.3366 1050.31,43.3366 1066.5,43.5C 1063.71,44.4767 1060.71,44.81 1057.5,44.5C 1044.47,44.7345 1031.47,44.4012 1018.5,43.5 Z"/></g>
<g><path style="opacity:1" fill="#302e2c" d="M 255.5,44.5 C 262.833,43.1667 270.167,43.1667 277.5,44.5C 270.213,45.0632 262.879,45.0632 255.5,44.5 Z"/></g>
<g><path style="opacity:1" fill="#33302f" d="M 473.5,44.5 C 484.5,43.1667 495.5,43.1667 506.5,44.5C 499.155,44.6291 491.822,44.9625 484.5,45.5C 481.038,44.5184 477.371,44.185 473.5,44.5 Z"/></g>
<g><path style="opacity:1" fill="#524e4b" d="M 726.5,44.5 C 719.833,44.5 713.167,44.5 706.5,44.5C 685.741,44.7481 665.074,44.7481 644.5,44.5C 671.986,43.2153 699.32,43.2153 726.5,44.5 Z"/></g>
<g><path style="opacity:1" fill="#4e4a47" d="M 1018.5,43.5 C 1016.39,44.4682 1014.06,44.8016 1011.5,44.5C 1009.83,44.5 1008.17,44.5 1006.5,44.5C 999.299,44.7335 992.299,44.7335 985.5,44.5C 996.469,43.5931 1007.47,43.2598 1018.5,43.5 Z"/></g>
<g><path style="opacity:1" fill="#68635f" d="M 412.5,44.5 C 396.675,45.4964 380.675,45.8297 364.5,45.5C 335.5,45.5 306.5,45.5 277.5,45.5C 277.5,45.1667 277.5,44.8333 277.5,44.5C 322.514,44.1319 367.514,44.1319 412.5,44.5 Z"/></g>
<g><path style="opacity:1" fill="#8f8883" d="M 644.5,44.5 C 639.679,45.5974 635.013,45.5974 630.5,44.5C 635.364,44.0856 640.031,44.0856 644.5,44.5 Z"/></g>
<g><path style="opacity:1" fill="#a19993" d="M 810.5,44.5 C 805.562,44.3881 800.729,45.0547 796,46.5C 766.016,45.8524 736.183,45.1857 706.5,44.5C 713.167,44.5 719.833,44.5 726.5,44.5C 754.655,44.13 782.655,44.13 810.5,44.5 Z"/></g>
<g><path style="opacity:1" fill="#8b847f" d="M 823.5,44.5 C 819.02,45.6624 814.687,45.6624 810.5,44.5C 814.997,43.5425 819.33,43.5425 823.5,44.5 Z"/></g>
<g><path style="opacity:1" fill="#9c948f" d="M 843.5,44.5 C 870.322,44.3431 897.322,44.3431 924.5,44.5C 897.661,45.6989 870.661,45.6989 843.5,44.5 Z"/></g>
<g><path style="opacity:1" fill="#aaa19b" d="M 1018.5,43.5 C 1031.47,44.4012 1044.47,44.7345 1057.5,44.5C 1042.17,45.8333 1026.83,45.8333 1011.5,44.5C 1014.06,44.8016 1016.39,44.4682 1018.5,43.5 Z"/></g>
<g><path style="opacity:1" fill="#928a85" d="M 194.5,45.5 C 154.462,46.5297 114.462,46.5297 74.5,45.5C 71.873,46.0578 69.5396,47.0578 67.5,48.5C 65.6954,47.7629 64.0287,46.7629 62.5,45.5C 67.1667,45.1667 71.8333,44.8333 76.5,44.5C 115.913,44.4807 155.246,44.8141 194.5,45.5 Z"/></g>
<g><path style="opacity:1" fill="#e8dcd4" d="M 1066.5,43.5 C 1068.17,43.5 1069.83,43.5 1071.5,43.5C 1092.48,45.3247 1113.81,46.158 1135.5,46C 1140.11,47.7301 1144.78,47.7301 1149.5,46C 1159.5,45.3333 1169.5,45.3333 1179.5,46C 1180.06,46.3826 1180.39,46.8826 1180.5,47.5C 1178.52,50.3171 1176.35,52.9838 1174,55.5C 1168.57,58.5941 1164.07,62.7607 1160.5,68C 1157.39,68.6095 1155.39,70.4428 1154.5,73.5C 1143.35,82.9064 1132.02,92.0731 1120.5,101C 1112.22,110.116 1103.22,118.283 1093.5,125.5C 1089.87,130.148 1085.87,134.314 1081.5,138C 1073.87,142.662 1067.2,148.495 1061.5,155.5C 1057.26,156.741 1054.26,159.408 1052.5,163.5C 1046.37,168.749 1040.04,173.749 1033.5,178.5C 1031.24,183.26 1027.57,186.427 1022.5,188C 1016.88,195.74 1009.88,201.907 1001.5,206.5C 998.948,211.22 995.282,214.72 990.5,217C 980.046,226.729 969.38,236.229 958.5,245.5C 957.352,247.149 956.019,248.649 954.5,250C 954.833,250.333 955.167,250.667 955.5,251C 953.608,251.973 951.608,252.64 949.5,253C 940.594,260.405 932.594,268.571 925.5,277.5C 922.345,279.626 919.012,281.459 915.5,283C 911.378,289.126 906.045,293.793 899.5,297C 897.919,298.828 896.585,300.828 895.5,303C 890.274,305.729 886.274,309.562 883.5,314.5C 882.022,314.238 880.689,314.571 879.5,315.5C 875.261,319.45 871.261,323.616 867.5,328C 866.128,328.402 864.795,328.902 863.5,329.5C 860.092,332.925 856.425,336.091 852.5,339C 851.167,341 849.833,343 848.5,345C 844.476,345.526 841.809,347.693 840.5,351.5C 833.513,357.81 826.18,363.81 818.5,369.5C 817.755,371.747 816.422,373.58 814.5,375C 806.289,380.203 798.956,386.536 792.5,394C 781.885,401.281 772.552,409.948 764.5,420C 762.779,420.739 761.113,421.573 759.5,422.5C 756.34,424.828 753.673,427.661 751.5,431C 747.581,432.584 744.581,435.25 742.5,439C 733.79,444.537 726.123,451.37 719.5,459.5C 707.854,466.849 697.521,475.849 688.5,486.5C 686.833,487.333 685.167,488.167 683.5,489C 674.407,497.769 665.073,506.102 655.5,514C 652.003,519.323 647.336,523.49 641.5,526.5C 635.99,531.844 630.323,537.01 624.5,542C 621.52,540.668 618.52,539.001 615.5,537C 610.141,530.537 603.808,525.037 596.5,520.5C 593.416,515.286 589.083,511.452 583.5,509C 581.533,505.195 578.533,502.695 574.5,501.5C 571.223,497.204 567.556,493.038 563.5,489C 559.104,488.27 556.27,485.77 555,481.5C 548.808,475.971 542.641,470.471 536.5,465C 533.199,463.682 530.199,461.848 527.5,459.5C 521.682,453.181 515.682,447.014 509.5,441C 507.754,440.529 506.087,439.862 504.5,439C 503.408,436.406 501.741,434.239 499.5,432.5C 494.189,427.845 488.522,423.678 482.5,420C 481.54,418.581 480.707,417.081 480,415.5C 474.821,410.801 469.655,405.968 464.5,401C 462.975,399.991 461.308,399.491 459.5,399.5C 459.374,396.405 457.707,394.572 454.5,394C 451.247,390.361 447.581,387.528 443.5,385.5C 442.89,381.556 440.557,379.223 436.5,378.5C 433.16,376.156 430.493,373.156 428.5,369.5C 421.833,364.482 415.5,358.982 409.5,353C 405.634,352.204 403.634,350.204 403.5,347C 401.913,346.138 400.246,345.471 398.5,345C 395.804,339.973 391.804,336.306 386.5,334C 385.228,332.693 384.228,331.193 383.5,329.5C 382.205,328.902 380.872,328.402 379.5,328C 375.865,323.216 371.865,318.882 367.5,315C 366.207,314.51 364.873,314.343 363.5,314.5C 363.719,313.325 363.386,312.325 362.5,311.5C 356.236,307.572 350.903,302.572 346.5,296.5C 340.437,293.275 335.437,288.775 331.5,283C 324.865,281.53 320.199,277.696 317.5,271.5C 311.167,265.667 304.833,259.833 298.5,254C 296.608,253.027 294.608,252.36 292.5,252C 290.894,248.631 288.561,245.298 285.5,242C 277.597,235.036 269.263,228.536 260.5,222.5C 255.197,217.528 250.197,212.194 245.5,206.5C 237.549,201.453 230.549,195.286 224.5,188C 219.429,186.427 215.762,183.26 213.5,178.5C 206.939,173.232 200.272,168.065 193.5,163C 192.27,158.936 189.604,156.436 185.5,155.5C 182.578,152.822 179.911,149.822 177.5,146.5C 165.415,136.582 153.415,126.416 141.5,116C 133.294,107.126 124.46,98.9593 115,91.5C 114.517,90.552 114.351,89.552 114.5,88.5C 110.008,88.6768 107.008,86.6768 105.5,82.5C 99.8586,78.8552 94.8586,74.5219 90.5,69.5C 89.2054,68.9017 87.8721,68.4017 86.5,68C 83.4537,63.2868 79.4537,59.6202 74.5,57C 72.3323,54.0019 69.9989,51.1686 67.5,48.5C 69.5396,47.0578 71.873,46.0578 74.5,45.5C 114.462,46.5297 154.462,46.5297 194.5,45.5C 214.806,44.5473 235.14,44.2139 255.5,44.5C 262.879,45.0632 270.213,45.0632 277.5,44.5C 277.5,44.8333 277.5,45.1667 277.5,45.5C 284.477,46.5904 291.643,47.2571 299,47.5C 313.117,46.7092 327.284,46.7092 341.5,47.5C 349.336,47.0139 357.002,46.3473 364.5,45.5C 380.675,45.8297 396.675,45.4964 412.5,44.5C 420.846,45.0782 429.179,45.4115 437.5,45.5C 447.216,45.9764 456.883,45.9764 466.5,45.5C 466.833,45.5 467.167,45.5 467.5,45.5C 472.966,45.8112 478.633,45.8112 484.5,45.5C 491.822,44.9625 499.155,44.6291 506.5,44.5C 507.568,45.4345 508.901,45.7678 510.5,45.5C 542.653,46.3933 574.653,46.0599 606.5,44.5C 614.563,44.9852 622.563,44.9852 630.5,44.5C 635.013,45.5974 639.679,45.5974 644.5,44.5C 665.074,44.7481 685.741,44.7481 706.5,44.5C 736.183,45.1857 766.016,45.8524 796,46.5C 800.729,45.0547 805.562,44.3881 810.5,44.5C 814.687,45.6624 819.02,45.6624 823.5,44.5C 830.167,44.5 836.833,44.5 843.5,44.5C 870.661,45.6989 897.661,45.6989 924.5,44.5C 926.5,44.5 928.5,44.5 930.5,44.5C 933.509,45.2829 936.676,45.9496 940,46.5C 946.18,45.8538 952.347,45.1872 958.5,44.5C 974.624,47.1329 990.624,47.1329 1006.5,44.5C 1008.17,44.5 1009.83,44.5 1011.5,44.5C 1026.83,45.8333 1042.17,45.8333 1057.5,44.5C 1060.71,44.81 1063.71,44.4767 1066.5,43.5 Z"/></g>
<g><path style="opacity:1" fill="#89827d" d="M 510.5,45.5 C 542.329,44.5018 574.329,44.1684 606.5,44.5C 574.653,46.0599 542.653,46.3933 510.5,45.5 Z"/></g>
<g><path style="opacity:1" fill="#9b938e" d="M 473.5,44.5 C 477.371,44.185 481.038,44.5184 484.5,45.5C 478.633,45.8112 472.966,45.8112 467.5,45.5C 469.5,45.1667 471.5,44.8333 473.5,44.5 Z"/></g>
<g><path style="opacity:1" fill="#756f6b" d="M 437.5,45.5 C 447.167,44.1667 456.833,44.1667 466.5,45.5C 456.883,45.9764 447.216,45.9764 437.5,45.5 Z"/></g>
<g><path style="opacity:1" fill="#bcb2ac" d="M 985.5,44.5 C 992.299,44.7335 999.299,44.7335 1006.5,44.5C 990.624,47.1329 974.624,47.1329 958.5,44.5C 952.347,45.1872 946.18,45.8538 940,46.5C 936.676,45.9496 933.509,45.2829 930.5,44.5C 948.845,43.7143 967.178,43.7143 985.5,44.5 Z"/></g>
<g><path style="opacity:1" fill="#ccc1ba" d="M 277.5,45.5 C 306.5,45.5 335.5,45.5 364.5,45.5C 357.002,46.3473 349.336,47.0139 341.5,47.5C 327.284,46.7092 313.117,46.7092 299,47.5C 291.643,47.2571 284.477,46.5904 277.5,45.5 Z"/></g>
<g><path style="opacity:1" fill="#b4aaa4" d="M 1071.5,43.5 C 1109.63,44.0145 1147.63,44.1811 1185.5,44C 1184.51,46.1585 1182.84,47.3252 1180.5,47.5C 1180.39,46.8826 1180.06,46.3826 1179.5,46C 1169.5,45.3333 1159.5,45.3333 1149.5,46C 1144.78,47.7301 1140.11,47.7301 1135.5,46C 1113.81,46.158 1092.48,45.3247 1071.5,43.5 Z"/></g>
<g><path style="opacity:1" fill="#e8dcd4" d="M 45.5,64.5 C 47.5115,65.2283 49.5115,66.0617 51.5,67C 61.3389,78.2405 72.0056,88.5738 83.5,98C 85.6314,98.5431 87.6314,99.3764 89.5,100.5C 94.6562,105.825 99.6562,111.325 104.5,117C 106.921,119.094 109.588,120.76 112.5,122C 116.828,127.327 121.494,132.327 126.5,137C 133.038,140.272 138.372,144.939 142.5,151C 147.404,154.647 152.404,158.147 157.5,161.5C 160.437,166.939 164.77,170.772 170.5,173C 178.452,181.297 186.785,189.13 195.5,196.5C 196.086,196.291 196.586,195.957 197,195.5C 198.69,200.87 202.19,204.537 207.5,206.5C 213.625,212.124 219.625,217.958 225.5,224C 229.389,225.55 232.389,228.216 234.5,232C 241.763,237.26 248.43,243.26 254.5,250C 262.911,255.805 270.577,262.472 277.5,270C 283.42,272.964 288.087,277.297 291.5,283C 293.67,284.586 296.004,285.92 298.5,287C 306.837,295.67 315.503,304.003 324.5,312C 327.005,313.753 329.671,315.253 332.5,316.5C 336.614,323.282 342.281,328.282 349.5,331.5C 356.315,340.149 363.982,347.982 372.5,355C 375.167,356.333 377.833,357.667 380.5,359C 380.167,359.333 379.833,359.667 379.5,360C 383.142,361.44 385.808,363.94 387.5,367.5C 393.976,372.475 399.976,377.975 405.5,384C 407.67,385.586 410.004,386.92 412.5,388C 424.134,399.8 436.134,411.133 448.5,422C 452.324,423.372 455.99,425.539 459.5,428.5C 462.807,434.974 467.64,439.974 474,443.5C 474.667,444.833 474.667,446.167 474,447.5C 469.608,452.722 464.442,457.055 458.5,460.5C 455.867,464.973 452.2,468.14 447.5,470C 440.723,477.561 433.723,484.895 426.5,492C 420.732,495.537 415.399,499.537 410.5,504C 407.027,507.473 403.527,510.973 400,514.5C 399.517,515.448 399.351,516.448 399.5,517.5C 397.738,517.357 396.071,517.691 394.5,518.5C 392.305,522.862 388.972,526.028 384.5,528C 379.319,533.348 373.985,538.515 368.5,543.5C 367.738,544.628 367.071,545.795 366.5,547C 358.825,552.679 351.825,559.013 345.5,566C 330.578,576.59 316.911,588.59 304.5,602C 295.171,608.33 287.171,615.997 280.5,625C 274.579,627.591 269.913,631.591 266.5,637C 252.146,649.027 238.146,661.36 224.5,674C 213.804,683.686 203.138,694.019 192.5,705C 191.062,705.219 189.729,705.719 188.5,706.5C 166.938,726.234 145.605,746.067 124.5,766C 123.552,766.483 122.552,766.649 121.5,766.5C 121.649,767.552 121.483,768.552 121,769.5C 113.873,774.959 107.039,780.792 100.5,787C 98.393,788.264 97.393,790.097 97.5,792.5C 95.5165,792.383 93.8498,793.05 92.5,794.5C 85.7039,802.128 78.3706,809.295 70.5,816C 63.9263,819.57 58.593,824.57 54.5,831C 52.4494,833.02 50.1161,834.52 47.5,835.5C 46.503,816.341 46.1697,797.007 46.5,777.5C 47.1524,761.209 47.4857,744.876 47.5,728.5C 47.4994,712.485 46.8328,696.819 45.5,681.5C 45.2994,678.272 45.6328,675.105 46.5,672C 46.1639,670.97 45.4972,670.47 44.5,670.5C 44.4372,665.797 44.7705,661.13 45.5,656.5C 46.8618,647.291 47.1951,637.958 46.5,628.5C 47.8333,607.833 47.8333,587.167 46.5,566.5C 47.0185,547.006 47.3518,527.506 47.5,508C 47.7197,489.639 47.053,471.472 45.5,453.5C 46.416,449.208 46.416,444.874 45.5,440.5C 46.5074,434.856 46.5074,429.189 45.5,423.5C 46.3128,414.002 46.3128,404.335 45.5,394.5C 46.4614,392.735 46.7947,390.735 46.5,388.5C 47.162,386.696 47.4954,384.696 47.5,382.5C 46.9691,370.668 46.3025,359.002 45.5,347.5C 46.8022,335.949 46.8022,324.282 45.5,312.5C 45.5,299.833 45.5,287.167 45.5,274.5C 46.7113,253.674 46.7113,233.008 45.5,212.5C 46.7669,196.17 46.7669,179.837 45.5,163.5C 46.293,159.661 46.9597,155.661 47.5,151.5C 45.6732,129.685 45.0065,108.019 45.5,86.5C 45.5,79.1667 45.5,71.8333 45.5,64.5 Z"/></g>
<g><path style="opacity:1" fill="#e8dcd4" d="M 1196.5,66.5 C 1197.79,68.0478 1198.46,70.0478 1198.5,72.5C 1199.21,81.8359 1199.88,91.1693 1200.5,100.5C 1200.5,117.5 1200.5,134.5 1200.5,151.5C 1200.55,155.198 1200.89,158.865 1201.5,162.5C 1200.82,165.006 1199.82,167.506 1198.5,170C 1199.15,187.307 1199.81,204.474 1200.5,221.5C 1200.83,221.5 1201.17,221.5 1201.5,221.5C 1201.73,226.895 1201.4,232.228 1200.5,237.5C 1199.03,248.965 1198.36,260.632 1198.5,272.5C 1198.67,279.833 1198.83,287.167 1199,294.5C 1199.2,296.382 1199.7,298.048 1200.5,299.5C 1200.5,326.833 1200.5,354.167 1200.5,381.5C 1199.17,398.833 1199.17,416.167 1200.5,433.5C 1200.18,437.702 1200.52,441.702 1201.5,445.5C 1202.45,446.919 1202.78,448.585 1202.5,450.5C 1201.17,456.463 1200.5,462.796 1200.5,469.5C 1200.5,476.009 1200.83,482.342 1201.5,488.5C 1202.49,492.97 1202.82,497.637 1202.5,502.5C 1201.02,506.951 1200.36,511.618 1200.5,516.5C 1201.23,526.822 1201.56,537.155 1201.5,547.5C 1200.5,569.66 1200.17,591.994 1200.5,614.5C 1200.17,623.017 1200.51,631.35 1201.5,639.5C 1201.5,641.167 1201.5,642.833 1201.5,644.5C 1200.17,672.5 1200.17,700.5 1201.5,728.5C 1201.33,748.845 1201.66,769.179 1202.5,789.5C 1201,797.278 1200.33,805.278 1200.5,813.5C 1200.5,819.011 1200.83,824.344 1201.5,829.5C 1201.81,831.924 1201.47,834.257 1200.5,836.5C 1198.37,835.533 1196.37,834.366 1194.5,833C 1186.32,823.038 1176.99,814.538 1166.5,807.5C 1163.18,802.514 1159.18,798.18 1154.5,794.5C 1153.15,793.05 1151.48,792.383 1149.5,792.5C 1149.65,791.448 1149.48,790.448 1149,789.5C 1143.68,785.351 1138.85,780.685 1134.5,775.5C 1128.31,771.303 1122.64,766.47 1117.5,761C 1116.55,760.517 1115.55,760.351 1114.5,760.5C 1112.15,754.982 1108.15,750.816 1102.5,748C 1096.23,740.888 1089.23,734.721 1081.5,729.5C 1078,725.891 1074.66,722.057 1071.5,718C 1067.17,714.333 1062.83,710.667 1058.5,707C 1057.06,706.781 1055.73,706.281 1054.5,705.5C 1050.7,700.78 1046.7,696.28 1042.5,692C 1036.58,686.242 1030.25,681.076 1023.5,676.5C 1023.07,675.29 1022.4,674.29 1021.5,673.5C 1016.46,669.126 1011.79,664.46 1007.5,659.5C 1006.27,658.719 1004.94,658.219 1003.5,658C 1001.44,654.277 998.443,651.61 994.5,650C 990.814,644.649 986.148,640.316 980.5,637C 977.072,631.61 972.405,627.61 966.5,625C 962.381,620.043 958.047,615.21 953.5,610.5C 941.434,599.929 929.434,589.096 917.5,578C 912.347,573.923 907.013,570.089 901.5,566.5C 899.377,563.754 897.377,560.921 895.5,558C 890.072,555.054 885.072,551.387 880.5,547C 879.73,543.729 877.73,541.562 874.5,540.5C 873.289,538.578 871.956,536.745 870.5,535C 866.193,532.353 862.193,529.353 858.5,526C 856.38,523.591 854.38,521.091 852.5,518.5C 849.287,518.278 847.454,516.612 847,513.5C 842.229,509.538 837.395,505.705 832.5,502C 830.245,497.913 826.912,495.08 822.5,493.5C 819.978,490.812 817.644,487.979 815.5,485C 814.128,484.598 812.795,484.098 811.5,483.5C 808.028,478.528 804.028,474.028 799.5,470C 794.888,467.958 791.221,464.791 788.5,460.5C 782.552,457.048 777.385,452.714 773,447.5C 772.123,442.443 774.29,439.609 779.5,439C 782.531,435.77 785.197,432.27 787.5,428.5C 796.51,423.988 804.177,417.822 810.5,410C 814.193,406.647 818.193,403.647 822.5,401C 826.343,396.326 830.343,391.826 834.5,387.5C 836.915,386.695 839.249,385.695 841.5,384.5C 843.288,382.424 844.954,380.257 846.5,378C 854.755,372.065 861.755,365.399 867.5,358C 870.446,357.194 873.112,355.861 875.5,354C 883.685,347.315 891.018,339.815 897.5,331.5C 905.007,327.668 911.34,322.335 916.5,315.5C 921.25,313.583 924.917,310.416 927.5,306C 935.815,300.348 943.149,293.682 949.5,286C 951.725,285.439 953.725,284.439 955.5,283C 959.138,279.026 962.805,275.026 966.5,271C 971.427,268.409 975.427,264.742 978.5,260C 992.574,249.762 1005.57,238.262 1017.5,225.5C 1018.73,224.719 1020.06,224.219 1021.5,224C 1028.31,216.184 1035.97,209.518 1044.5,204C 1046.73,201.436 1048.56,198.603 1050,195.5C 1050.33,195.833 1050.67,196.167 1051,196.5C 1052.09,195.707 1053.25,195.04 1054.5,194.5C 1055.71,193.726 1055.71,192.893 1054.5,192C 1062.56,187.797 1069.23,181.964 1074.5,174.5C 1081.92,171.249 1087.58,166.083 1091.5,159C 1092.83,158.667 1094.17,158.333 1095.5,158C 1097.9,154.933 1100.9,152.6 1104.5,151C 1108.67,144.93 1114,140.263 1120.5,137C 1127.98,128.356 1136.31,120.69 1145.5,114C 1150.53,107.339 1156.53,101.839 1163.5,97.5C 1166.24,93.9652 1169.57,91.1318 1173.5,89C 1180.88,83.2868 1187.21,76.6202 1192.5,69C 1193.98,68.3378 1195.32,67.5045 1196.5,66.5 Z"/></g>
<g><path style="opacity:1" fill="#b7aea8" d="M 1196.5,66.5 C 1197.57,65.5655 1198.9,65.2322 1200.5,65.5C 1200.36,77.185 1200.7,88.8517 1201.5,100.5C 1201.17,100.5 1200.83,100.5 1200.5,100.5C 1199.88,91.1693 1199.21,81.8359 1198.5,72.5C 1198.46,70.0478 1197.79,68.0478 1196.5,66.5 Z"/></g>
<g><path style="opacity:1" fill="#77716d" d="M 45.5,64.5 C 45.5,71.8333 45.5,79.1667 45.5,86.5C 44.3446,83.7374 43.6779,80.7374 43.5,77.5C 43.8851,72.9797 44.5517,68.6463 45.5,64.5 Z"/></g>
<g><path style="opacity:1" fill="#9e9690" d="M 45.5,86.5 C 45.0065,108.019 45.6732,129.685 47.5,151.5C 46.9597,155.661 46.293,159.661 45.5,163.5C 45.5,159.167 45.5,154.833 45.5,150.5C 45.7434,139.136 45.41,127.802 44.5,116.5C 45.494,106.681 45.8274,96.6806 45.5,86.5 Z"/></g>
<g><path style="opacity:1" fill="#3e3b39" d="M 44.5,116.5 C 45.41,127.802 45.7434,139.136 45.5,150.5C 44.7768,140.153 44.1101,129.653 43.5,119C 43.528,117.93 43.8614,117.097 44.5,116.5 Z"/></g>
<g><path style="opacity:1" fill="#928b86" d="M 1200.5,100.5 C 1200.83,100.5 1201.17,100.5 1201.5,100.5C 1202.14,117.534 1202.14,134.534 1201.5,151.5C 1201.17,151.5 1200.83,151.5 1200.5,151.5C 1200.5,134.5 1200.5,117.5 1200.5,100.5 Z"/></g>
<g><path style="opacity:1" fill="#66615e" d="M 1200.5,151.5 C 1200.83,151.5 1201.17,151.5 1201.5,151.5C 1201.89,168.807 1201.89,186.14 1201.5,203.5C 1200.29,189.989 1200.29,176.323 1201.5,162.5C 1200.89,158.865 1200.55,155.198 1200.5,151.5 Z"/></g>
<g><path style="opacity:1" fill="#9e9691" d="M 45.5,163.5 C 46.7669,179.837 46.7669,196.17 45.5,212.5C 45.6926,202.448 45.3593,192.448 44.5,182.5C 44.1765,175.978 44.5098,169.645 45.5,163.5 Z"/></g>
<g><path style="opacity:1" fill="#312e2d" d="M 44.5,182.5 C 45.3593,192.448 45.6926,202.448 45.5,212.5C 45.5,220.5 45.5,228.5 45.5,236.5C 43.6109,218.658 43.2776,200.658 44.5,182.5 Z"/></g>
<g><path style="opacity:1" fill="#bab0aa" d="M 1201.5,162.5 C 1200.29,176.323 1200.29,189.989 1201.5,203.5C 1200.59,209.441 1200.25,215.441 1200.5,221.5C 1199.81,204.474 1199.15,187.307 1198.5,170C 1199.82,167.506 1200.82,165.006 1201.5,162.5 Z"/></g>
<g><path style="opacity:1" fill="#504c49" d="M 1201.5,203.5 C 1201.66,209.276 1201.66,215.276 1201.5,221.5C 1201.17,221.5 1200.83,221.5 1200.5,221.5C 1200.25,215.441 1200.59,209.441 1201.5,203.5 Z"/></g>
<g><path style="opacity:1" fill="#cec3bc" d="M 1200.5,237.5 C 1200.5,258.167 1200.5,278.833 1200.5,299.5C 1199.7,298.048 1199.2,296.382 1199,294.5C 1198.83,287.167 1198.67,279.833 1198.5,272.5C 1198.36,260.632 1199.03,248.965 1200.5,237.5 Z"/></g>
<g><path style="opacity:1" fill="#67625e" d="M 1201.5,221.5 C 1201.9,268.998 1201.9,316.664 1201.5,364.5C 1201.83,377.677 1201.5,390.677 1200.5,403.5C 1200.5,396.167 1200.5,388.833 1200.5,381.5C 1200.5,354.167 1200.5,326.833 1200.5,299.5C 1200.5,278.833 1200.5,258.167 1200.5,237.5C 1201.4,232.228 1201.73,226.895 1201.5,221.5 Z"/></g>
<g><path style="opacity:1" fill="#a89f9a" d="M 45.5,212.5 C 46.7113,233.008 46.7113,253.674 45.5,274.5C 44.0027,272.71 43.336,270.544 43.5,268C 45.0584,257.557 45.7251,247.057 45.5,236.5C 45.5,228.5 45.5,220.5 45.5,212.5 Z"/></g>
<g><path style="opacity:1" fill="#494543" d="M 45.5,312.5 C 46.8022,324.282 46.8022,335.949 45.5,347.5C 44.1667,335.833 44.1667,324.167 45.5,312.5 Z"/></g>
<g><path style="opacity:1" fill="#a49b96" d="M 45.5,347.5 C 46.3025,359.002 46.9691,370.668 47.5,382.5C 47.4954,384.696 47.162,386.696 46.5,388.5C 46.0244,380.174 45.691,371.84 45.5,363.5C 45.5,358.167 45.5,352.833 45.5,347.5 Z"/></g>
<g><path style="opacity:1" fill="#5d5855" d="M 45.5,363.5 C 45.691,371.84 46.0244,380.174 46.5,388.5C 46.7947,390.735 46.4614,392.735 45.5,394.5C 44.8533,383.994 44.8533,373.66 45.5,363.5 Z"/></g>
<g><path style="opacity:1" fill="#2e2c2b" d="M 1201.5,364.5 C 1202.83,379.5 1202.83,394.5 1201.5,409.5C 1201.17,407.5 1200.83,405.5 1200.5,403.5C 1201.5,390.677 1201.83,377.677 1201.5,364.5 Z"/></g>
<g><path style="opacity:1" fill="#c6bcb5" d="M 1200.5,381.5 C 1200.5,388.833 1200.5,396.167 1200.5,403.5C 1200.83,405.5 1201.17,407.5 1201.5,409.5C 1200.51,417.316 1200.17,425.316 1200.5,433.5C 1199.17,416.167 1199.17,398.833 1200.5,381.5 Z"/></g>
<g><path style="opacity:1" fill="#847e79" d="M 45.5,394.5 C 46.3128,404.335 46.3128,414.002 45.5,423.5C 45.5,420.833 45.5,418.167 45.5,415.5C 44.4344,410.733 43.7678,405.9 43.5,401C 43.5332,398.39 44.1999,396.223 45.5,394.5 Z"/></g>
<g><path style="opacity:1" fill="#4f4b48" d="M 45.5,415.5 C 45.5,418.167 45.5,420.833 45.5,423.5C 46.5074,429.189 46.5074,434.856 45.5,440.5C 44.1667,432.167 44.1667,423.833 45.5,415.5 Z"/></g>
<g><path style="opacity:1" fill="#7b7570" d="M 1201.5,409.5 C 1202.32,421.482 1202.32,433.482 1201.5,445.5C 1200.52,441.702 1200.18,437.702 1200.5,433.5C 1200.17,425.316 1200.51,417.316 1201.5,409.5 Z"/></g>
<g><path style="opacity:1" fill="#e8dcd4" d="M 1183.5,854.5 C 1178.2,853.725 1172.87,853.392 1167.5,853.5C 1154.7,852.862 1141.86,852.528 1129,852.5C 1112.97,852.278 1097.13,852.944 1081.5,854.5C 1071.2,855.204 1060.87,855.204 1050.5,854.5C 1037.51,854.219 1024.35,853.553 1011,852.5C 1009.93,852.528 1009.1,852.861 1008.5,853.5C 1005.87,854.092 1003.21,854.425 1000.5,854.5C 988.217,853.54 975.883,853.206 963.5,853.5C 959.336,853.956 955.336,854.622 951.5,855.5C 949.379,855.675 947.379,855.341 945.5,854.5C 939.028,854.186 932.361,854.186 925.5,854.5C 911.5,853.167 897.5,853.167 883.5,854.5C 881.621,855.341 879.621,855.675 877.5,855.5C 875.393,854.532 873.059,854.198 870.5,854.5C 839.642,854.434 808.809,853.768 778,852.5C 767.856,853.273 757.689,853.773 747.5,854C 746.263,854.232 745.263,854.732 744.5,855.5C 738.171,855.1 731.838,854.767 725.5,854.5C 692.83,854.607 660.164,854.941 627.5,855.5C 622.5,855.5 617.5,855.5 612.5,855.5C 586.672,854.502 560.672,854.169 534.5,854.5C 533.167,854.5 531.833,854.5 530.5,854.5C 516.99,854.171 503.656,854.504 490.5,855.5C 467.848,854.442 445.181,854.442 422.5,855.5C 419.272,854.586 415.939,854.253 412.5,854.5C 407.628,854.691 402.795,854.358 398,853.5C 392.672,854.043 387.505,854.71 382.5,855.5C 374.91,855.37 367.243,855.037 359.5,854.5C 358.903,853.861 358.07,853.528 357,853.5C 341.015,854.13 325.182,854.797 309.5,855.5C 301.553,855.679 293.553,855.346 285.5,854.5C 265.993,854.17 246.659,854.503 227.5,855.5C 217.508,854.233 207.508,854.233 197.5,855.5C 169.988,854.224 142.322,854.224 114.5,855.5C 103.833,855.5 93.1667,855.5 82.5,855.5C 76.3554,854.51 70.0221,854.177 63.5,854.5C 74.2918,843.735 85.6252,833.568 97.5,824C 100.731,821.273 103.397,818.106 105.5,814.5C 110.645,813.593 114.311,810.759 116.5,806C 120.681,801.821 125.181,797.988 130,794.5C 130.483,793.552 130.649,792.552 130.5,791.5C 132.308,791.509 133.975,791.009 135.5,790C 144.47,782.031 153.137,773.697 161.5,765C 162.872,764.598 164.205,764.098 165.5,763.5C 173.022,756.478 180.022,748.978 186.5,741C 188.246,740.529 189.913,739.862 191.5,739C 195.947,735.13 199.947,730.796 203.5,726C 205.246,725.529 206.913,724.862 208.5,724C 212.852,718.648 217.852,713.982 223.5,710C 224.337,708.989 224.67,707.822 224.5,706.5C 227.815,706.028 230.149,704.195 231.5,701C 238.321,696.344 244.321,690.844 249.5,684.5C 253.553,682.98 256.553,680.314 258.5,676.5C 261.112,675.221 263.445,673.555 265.5,671.5C 269.059,666.11 273.393,661.61 278.5,658C 279.833,657.333 281.167,656.667 282.5,656C 286.5,651.667 290.5,647.333 294.5,643C 296.246,642.529 297.913,641.862 299.5,641C 303.723,636.44 308.223,632.273 313,628.5C 313.483,627.552 313.649,626.552 313.5,625.5C 314.552,625.649 315.552,625.483 316.5,625C 322.771,616.654 330.437,609.82 339.5,604.5C 344.911,599.481 349.911,593.981 354.5,588C 359.639,586.866 363.306,583.866 365.5,579C 366.833,578.333 368.167,577.667 369.5,577C 376.409,570.253 383.409,563.753 390.5,557.5C 391.853,556.476 392.52,555.143 392.5,553.5C 396.159,552.685 398.826,550.519 400.5,547C 409.964,539.649 419.13,531.815 428,523.5C 436.786,515.056 445.952,506.889 455.5,499C 457.527,496.906 459.194,494.573 460.5,492C 472.318,482.846 483.484,473.012 494,462.5C 495.419,463.46 496.919,464.293 498.5,465C 505.286,473.119 513.286,479.786 522.5,485C 526.123,487.787 528.79,491.287 530.5,495.5C 551.793,511.941 572.126,529.775 591.5,549C 593.087,549.862 594.754,550.529 596.5,551C 601.084,555.559 605.418,560.226 609.5,565C 614.142,566.603 618.808,568.103 623.5,569.5C 628.336,567.327 633.336,565.661 638.5,564.5C 642.689,557.815 648.356,552.649 655.5,549C 674.836,529.817 695.17,511.984 716.5,495.5C 717.123,493.289 718.123,491.289 719.5,489.5C 722.318,486.588 725.652,484.421 729.5,483C 737.361,476.019 745.195,469.186 753,462.5C 756.952,465.742 760.452,469.408 763.5,473.5C 764.736,474.246 766.07,474.579 767.5,474.5C 767.281,475.675 767.614,476.675 768.5,477.5C 773.126,480.458 777.126,484.124 780.5,488.5C 782.68,490.09 785.013,491.424 787.5,492.5C 788.005,495.188 789.338,497.355 791.5,499C 798.971,504.637 805.971,510.804 812.5,517.5C 813.85,518.95 815.516,519.617 817.5,519.5C 817.393,521.903 818.393,523.736 820.5,525C 828.193,532.028 835.859,539.028 843.5,546C 844.5,546.333 845.5,546.667 846.5,547C 859.652,560.066 872.986,572.899 886.5,585.5C 888.22,586.934 890.22,587.767 892.5,588C 900.009,597.852 909.009,605.852 919.5,612C 920.83,615.354 923.163,617.854 926.5,619.5C 927.711,621.422 929.044,623.255 930.5,625C 931.448,625.483 932.448,625.649 933.5,625.5C 933.561,628.73 935.228,630.563 938.5,631C 941.302,634.555 944.302,637.888 947.5,641C 953.592,643.762 958.425,647.928 962,653.5C 970.686,659.617 978.519,666.784 985.5,675C 988.86,675.694 990.86,677.694 991.5,681C 993.087,681.862 994.754,682.529 996.5,683C 997.13,684.892 998.13,686.559 999.5,688C 1009.74,696.418 1019.74,704.918 1029.5,713.5C 1031.48,717.146 1034.15,720.146 1037.5,722.5C 1044.6,726.769 1050.6,732.269 1055.5,739C 1057.09,739.862 1058.75,740.529 1060.5,741C 1061.19,742.067 1061.69,743.234 1062,744.5C 1067.86,750.028 1073.69,755.528 1079.5,761C 1081.7,762.697 1084.03,764.197 1086.5,765.5C 1088.38,768.091 1090.38,770.591 1092.5,773C 1099.48,777.983 1105.81,783.649 1111.5,790C 1115.18,790.839 1117.68,793.006 1119,796.5C 1124.83,801.328 1130.33,806.495 1135.5,812C 1137.5,812.833 1139.5,813.667 1141.5,814.5C 1143.6,818.106 1146.27,821.273 1149.5,824C 1154.83,828.328 1159.83,832.994 1164.5,838C 1168.56,839.718 1171.72,842.551 1174,846.5C 1177.07,849.415 1180.24,852.081 1183.5,854.5 Z"/></g>
<g><path style="opacity:1" fill="#968e89" d="M 1202.5,450.5 C 1202.09,463.128 1201.76,475.795 1201.5,488.5C 1200.83,482.342 1200.5,476.009 1200.5,469.5C 1200.5,462.796 1201.17,456.463 1202.5,450.5 Z"/></g>
<g><path style="opacity:1" fill="#514d4a" d="M 1202.5,502.5 C 1203.16,503.793 1203.49,505.293 1203.5,507C 1202.92,520.66 1202.25,534.16 1201.5,547.5C 1201.56,537.155 1201.23,526.822 1200.5,516.5C 1200.36,511.618 1201.02,506.951 1202.5,502.5 Z"/></g>
<g><path style="opacity:1" fill="#a29a94" d="M 45.5,453.5 C 47.053,471.472 47.7197,489.639 47.5,508C 47.3518,527.506 47.0185,547.006 46.5,566.5C 46.1667,566.5 45.8333,566.5 45.5,566.5C 45.7884,528.89 45.7884,491.224 45.5,453.5 Z"/></g>
<g><path style="opacity:1" fill="#9d9590" d="M 1201.5,547.5 C 1201.43,560.513 1201.76,573.513 1202.5,586.5C 1201.83,595.833 1201.17,605.167 1200.5,614.5C 1200.17,591.994 1200.5,569.66 1201.5,547.5 Z"/></g>
<g><path style="opacity:1" fill="#5e5956" d="M 45.5,566.5 C 45.8333,566.5 46.1667,566.5 46.5,566.5C 46.8288,579.677 46.4955,592.677 45.5,605.5C 44.9256,592.468 44.9256,579.468 45.5,566.5 Z"/></g>
<g><path style="opacity:1" fill="#3a3735" d="M 1202.5,586.5 C 1202.75,604.187 1202.41,621.854 1201.5,639.5C 1200.51,631.35 1200.17,623.017 1200.5,614.5C 1201.17,605.167 1201.83,595.833 1202.5,586.5 Z"/></g>
<g><path style="opacity:1" fill="#beb4ae" d="M 46.5,566.5 C 47.8333,587.167 47.8333,607.833 46.5,628.5C 46.8229,622.31 46.4896,616.31 45.5,610.5C 45.5,608.833 45.5,607.167 45.5,605.5C 46.4955,592.677 46.8288,579.677 46.5,566.5 Z"/></g>
<g><path style="opacity:1" fill="#756f6a" d="M 45.5,610.5 C 46.4896,616.31 46.8229,622.31 46.5,628.5C 47.1951,637.958 46.8618,647.291 45.5,656.5C 44.4804,641.265 44.4804,625.931 45.5,610.5 Z"/></g>
<g><path style="opacity:1" fill="#a79f99" d="M 1201.5,644.5 C 1201.74,672.538 1201.74,700.538 1201.5,728.5C 1200.17,700.5 1200.17,672.5 1201.5,644.5 Z"/></g>
<g><path style="opacity:1" fill="#5a5653" d="M 44.5,670.5 C 45.4972,670.47 46.1639,670.97 46.5,672C 45.6328,675.105 45.2994,678.272 45.5,681.5C 44.5184,678.038 44.185,674.371 44.5,670.5 Z"/></g>
<g><path style="opacity:1" fill="#6d6764" d="M 1021.5,673.5 C 1022.4,674.29 1023.07,675.29 1023.5,676.5C 1021.95,676.179 1021.29,675.179 1021.5,673.5 Z"/></g>
<g><path style="opacity:1" fill="#ada49e" d="M 45.5,681.5 C 46.8328,696.819 47.4994,712.485 47.5,728.5C 47.4857,744.876 47.1524,761.209 46.5,777.5C 46.1667,777.5 45.8333,777.5 45.5,777.5C 45.5,776.5 45.5,775.5 45.5,774.5C 46.8333,768.833 46.8333,763.167 45.5,757.5C 45.5,732.167 45.5,706.833 45.5,681.5 Z"/></g>
<g><path style="opacity:1" fill="#837d78" d="M 45.5,757.5 C 46.8333,763.167 46.8333,768.833 45.5,774.5C 45.0191,768.904 45.0191,763.238 45.5,757.5 Z"/></g>
<g><path style="opacity:1" fill="#746e6a" d="M 45.5,777.5 C 45.8333,777.5 46.1667,777.5 46.5,777.5C 46.1697,797.007 46.503,816.341 47.5,835.5C 44.9273,838.176 43.9273,837.342 44.5,833C 45.4409,814.516 45.7742,796.016 45.5,777.5 Z"/></g>
<g><path style="opacity:1" fill="#7e7873" d="M 1202.5,789.5 C 1201.72,802.819 1201.39,816.152 1201.5,829.5C 1200.83,824.344 1200.5,819.011 1200.5,813.5C 1200.33,805.278 1201,797.278 1202.5,789.5 Z"/></g>
<g><path style="opacity:1" fill="#c6bbb4" d="M 1167.5,853.5 C 1167.5,853.833 1167.5,854.167 1167.5,854.5C 1163.29,854.115 1159.29,854.115 1155.5,854.5C 1130.83,854.5 1106.17,854.5 1081.5,854.5C 1097.13,852.944 1112.97,852.278 1129,852.5C 1141.86,852.528 1154.7,852.862 1167.5,853.5 Z"/></g>
<g><path style="opacity:1" fill="#948c87" d="M 870.5,854.5 C 828.724,855.012 786.724,855.345 744.5,855.5C 745.263,854.732 746.263,854.232 747.5,854C 757.689,853.773 767.856,853.273 778,852.5C 808.809,853.768 839.642,854.434 870.5,854.5 Z"/></g>
<g><path style="opacity:1" fill="#afa6a0" d="M 883.5,854.5 C 897.5,853.167 911.5,853.167 925.5,854.5C 920.473,854.503 915.473,854.836 910.5,855.5C 901.479,855.599 892.479,855.266 883.5,854.5 Z"/></g>
<g><path style="opacity:1" fill="#afa6a0" d="M 963.5,853.5 C 975.883,853.206 988.217,853.54 1000.5,854.5C 998.052,855.473 995.385,855.806 992.5,855.5C 982.833,854.833 973.167,854.167 963.5,853.5 Z"/></g>
<g><path style="opacity:1" fill="#aea59f" d="M 1008.5,853.5 C 1009.1,852.861 1009.93,852.528 1011,852.5C 1024.35,853.553 1037.51,854.219 1050.5,854.5C 1037.46,854.907 1024.46,854.907 1011.5,854.5C 1010.79,853.596 1009.79,853.263 1008.5,853.5 Z"/></g>
<g><path style="opacity:1" fill="#9c948f" d="M 1167.5,854.5 C 1167.5,854.167 1167.5,853.833 1167.5,853.5C 1172.87,853.392 1178.2,853.725 1183.5,854.5C 1182.34,855.513 1180.34,855.847 1177.5,855.5C 1174.38,854.521 1171.04,854.187 1167.5,854.5 Z"/></g>
<g><path style="opacity:1" fill="#7a7470" d="M 197.5,855.5 C 169.645,855.576 141.978,855.576 114.5,855.5C 142.322,854.224 169.988,854.224 197.5,855.5 Z"/></g>
<g><path style="opacity:1" fill="#a19893" d="M 227.5,855.5 C 246.659,854.503 265.993,854.17 285.5,854.5C 285.5,854.833 285.5,855.167 285.5,855.5C 277.486,855.568 269.486,855.901 261.5,856.5C 250.346,855.505 239.012,855.172 227.5,855.5 Z"/></g>
<g><path style="opacity:1" fill="#8e8782" d="M 359.5,854.5 C 345.863,855.427 332.196,855.76 318.5,855.5C 317.833,855.5 317.167,855.5 316.5,855.5C 314.167,855.5 311.833,855.5 309.5,855.5C 325.182,854.797 341.015,854.13 357,853.5C 358.07,853.528 358.903,853.861 359.5,854.5 Z"/></g>
<g><path style="opacity:1" fill="#a19893" d="M 412.5,854.5 C 402.681,855.494 392.681,855.827 382.5,855.5C 387.505,854.71 392.672,854.043 398,853.5C 402.795,854.358 407.628,854.691 412.5,854.5 Z"/></g>
<g><path style="opacity:1" fill="#55504d" d="M 490.5,855.5 C 467.837,855.643 445.17,855.643 422.5,855.5C 445.181,854.442 467.848,854.442 490.5,855.5 Z"/></g>
<g><path style="opacity:1" fill="#867f7a" d="M 490.5,855.5 C 503.656,854.504 516.99,854.171 530.5,854.5C 517.323,855.984 503.99,856.317 490.5,855.5 Z"/></g>
<g><path style="opacity:1" fill="#726c68" d="M 945.5,854.5 C 938.679,855.632 932.012,855.632 925.5,854.5C 932.361,854.186 939.028,854.186 945.5,854.5 Z"/></g>
<g><path style="opacity:1" fill="#3e3b39" d="M 963.5,853.5 C 973.167,854.167 982.833,854.833 992.5,855.5C 978.833,855.5 965.167,855.5 951.5,855.5C 955.336,854.622 959.336,853.956 963.5,853.5 Z"/></g>
<g><path style="opacity:1" fill="#4d4947" d="M 1155.5,854.5 C 1159.29,854.115 1163.29,854.115 1167.5,854.5C 1171.04,854.187 1174.38,854.521 1177.5,855.5C 1170.12,855.726 1162.79,855.392 1155.5,854.5 Z"/></g>
<g><path style="opacity:1" fill="#6c6662" d="M 63.5,854.5 C 70.0221,854.177 76.3554,854.51 82.5,855.5C 75.1071,855.443 67.7738,855.61 60.5,856C 61.2438,854.961 62.2438,854.461 63.5,854.5 Z"/></g>
<g><path style="opacity:1" fill="#474441" d="M 227.5,855.5 C 239.012,855.172 250.346,855.505 261.5,856.5C 239.936,856.425 218.603,856.092 197.5,855.5C 207.508,854.233 217.508,854.233 227.5,855.5 Z"/></g>
<g><path style="opacity:1" fill="#393634" d="M 285.5,855.5 C 285.5,855.167 285.5,854.833 285.5,854.5C 293.553,855.346 301.553,855.679 309.5,855.5C 311.833,855.5 314.167,855.5 316.5,855.5C 306.326,856.615 295.992,856.615 285.5,855.5 Z"/></g>
<g><path style="opacity:1" fill="#302e2c" d="M 359.5,854.5 C 359.5,854.833 359.5,855.167 359.5,855.5C 345.706,856.806 332.039,856.806 318.5,855.5C 332.196,855.76 345.863,855.427 359.5,854.5 Z"/></g>
<g><path style="opacity:1" fill="#44403e" d="M 359.5,854.5 C 367.243,855.037 374.91,855.37 382.5,855.5C 374.833,856.833 367.167,856.833 359.5,855.5C 359.5,855.167 359.5,854.833 359.5,854.5 Z"/></g>
<g><path style="opacity:1" fill="#433f3d" d="M 534.5,854.5 C 560.672,854.169 586.672,854.502 612.5,855.5C 597.676,856.057 582.843,856.39 568,856.5C 556.479,856.499 545.313,855.832 534.5,854.5 Z"/></g>
<g><path style="opacity:1" fill="#4b4845" d="M 725.5,854.5 C 712.163,855.27 698.663,855.937 685,856.5C 665.683,856.552 646.516,856.218 627.5,855.5C 660.164,854.941 692.83,854.607 725.5,854.5 Z"/></g>
<g><path style="opacity:1" fill="#312f2d" d="M 883.5,854.5 C 892.479,855.266 901.479,855.599 910.5,855.5C 899.5,856.833 888.5,856.833 877.5,855.5C 879.621,855.675 881.621,855.341 883.5,854.5 Z"/></g>
<g><path style="opacity:1" fill="#4a4644" d="M 1008.5,853.5 C 1009.79,853.263 1010.79,853.596 1011.5,854.5C 1007.02,855.268 1002.52,855.934 998,856.5C 995.967,856.494 994.134,856.161 992.5,855.5C 995.385,855.806 998.052,855.473 1000.5,854.5C 1003.21,854.425 1005.87,854.092 1008.5,853.5 Z"/></g>
</svg>
