<?xml version="1.0" encoding="UTF-8"?>
<!DOCTYPE svg PUBLIC "-//W3C//DTD SVG 1.1//EN" "http://www.w3.org/Graphics/SVG/1.1/DTD/svg11.dtd">
<svg xmlns="http://www.w3.org/2000/svg" version="1.1" width="24px" height="24px" style="shape-rendering:geometricPrecision; text-rendering:geometricPrecision; image-rendering:optimizeQuality; fill-rule:evenodd; clip-rule:evenodd" xmlns:xlink="http://www.w3.org/1999/xlink">
<g><path style="opacity:0.736" fill="#000000" d="M 6.5,1.5 C 18.3244,-0.176399 23.1577,4.8236 21,16.5C 17.7167,22.5007 15.2167,22.5007 13.5,16.5C 16.8644,13.685 17.3644,10.3516 15,6.5C 12.6667,7.83333 10.3333,7.83333 8,6.5C 7.39884,8.13677 6.89884,9.80343 6.5,11.5C 7.82144,13.3318 8.82144,15.3318 9.5,17.5C 5.94382,17.2749 5.61048,18.1082 8.5,20C 8.16667,20.5 7.83333,21 7.5,21.5C 1.79811,18.0448 -0.0352199,13.0448 2,6.5C 3.36569,4.63834 4.86569,2.97167 6.5,1.5 Z"/></g>
</svg>
