<?xml version="1.0" encoding="UTF-8"?>
<!DOCTYPE svg PUBLIC "-//W3C//DTD SVG 1.1//EN" "http://www.w3.org/Graphics/SVG/1.1/DTD/svg11.dtd">
<svg xmlns="http://www.w3.org/2000/svg" version="1.1" width="30px" height="30px" style="shape-rendering:geometricPrecision; text-rendering:geometricPrecision; image-rendering:optimizeQuality; fill-rule:evenodd; clip-rule:evenodd" xmlns:xlink="http://www.w3.org/1999/xlink">
<g><path style="opacity:0.772" fill="#000000" d="M 9.5,1.5 C 25.7289,0.945766 30.8956,8.2791 25,23.5C 18.8691,28.1956 12.3691,28.6956 5.5,25C 0.804418,18.8691 0.304418,12.3691 4,5.5C 5.81213,4.02294 7.64547,2.6896 9.5,1.5 Z M 20.5,7.5 C 16.5,7.5 12.5,7.5 8.5,7.5C 12.5,4.83333 16.5,4.83333 20.5,7.5 Z M 7.5,8.5 C 7.5,12.5 7.5,16.5 7.5,20.5C 4.83333,16.5 4.83333,12.5 7.5,8.5 Z M 21.5,8.5 C 24.1667,12.5 24.1667,16.5 21.5,20.5C 21.5,16.5 21.5,12.5 21.5,8.5 Z M 8.5,21.5 C 12.5,21.5 16.5,21.5 20.5,21.5C 16.5,24.1667 12.5,24.1667 8.5,21.5 Z"/></g>
<g><path style="opacity:0.79" fill="#000000" d="M 8.5,7.5 C 12.5,7.5 16.5,7.5 20.5,7.5C 20.5,8.16667 20.8333,8.5 21.5,8.5C 21.5,12.5 21.5,16.5 21.5,20.5C 20.8333,20.5 20.5,20.8333 20.5,21.5C 16.5,21.5 12.5,21.5 8.5,21.5C 8.5,20.8333 8.16667,20.5 7.5,20.5C 7.5,16.5 7.5,12.5 7.5,8.5C 8.16667,8.5 8.5,8.16667 8.5,7.5 Z"/></g>
<g><path style="opacity:0.765" fill="#000000" d="M 11.5,11.5 C 13.5,11.5 15.5,11.5 17.5,11.5C 17.5,13.5 17.5,15.5 17.5,17.5C 15.5,17.5 13.5,17.5 11.5,17.5C 11.5,15.5 11.5,13.5 11.5,11.5 Z"/></g>
</svg>
