<?xml version="1.0" encoding="UTF-8"?>
<!DOCTYPE svg PUBLIC "-//W3C//DTD SVG 1.1//EN" "http://www.w3.org/Graphics/SVG/1.1/DTD/svg11.dtd">
<svg xmlns="http://www.w3.org/2000/svg" version="1.1" width="1413px" height="1517px" style="shape-rendering:geometricPrecision; text-rendering:geometricPrecision; image-rendering:optimizeQuality; fill-rule:evenodd; clip-rule:evenodd" xmlns:xlink="http://www.w3.org/1999/xlink">
<g><path style="opacity:0.975" fill="#020201" d="M 128.5,563.5 C 133.447,566.019 138.113,569.186 142.5,573C 144.037,574.11 144.703,575.61 144.5,577.5C 148.34,577.255 151.673,578.421 154.5,581C 159.062,585.46 163.395,590.127 167.5,595C 170.276,595.066 172.442,596.232 174,598.5C 175.016,597.366 175.683,597.699 176,599.5C 176.333,599.167 176.667,598.833 177,598.5C 178.44,600.046 180.273,600.879 182.5,601C 182.167,601.333 181.833,601.667 181.5,602C 182.76,603.113 183.927,603.28 185,602.5C 186.385,605.386 188.551,607.386 191.5,608.5C 195.726,612.109 200.393,615.275 205.5,618C 204.167,619.84 204.334,620.34 206,619.5C 207.093,621.349 208.426,623.016 210,624.5C 211.494,623.253 212.994,623.253 214.5,624.5C 213.975,625.192 213.308,625.692 212.5,626C 214.74,626.977 217.073,627.477 219.5,627.5C 219.966,629.201 219.966,630.701 219.5,632C 222.167,632.333 224.833,632.667 227.5,633C 232.842,638.416 238.509,642.416 244.5,645C 247.558,650.049 251.891,653.716 257.5,656C 259.709,657.873 261.542,660.04 263,662.5C 263.333,662.167 263.667,661.833 264,661.5C 265.816,663.441 267.816,664.108 270,663.5C 270.915,664.328 271.581,665.328 272,666.5C 272.914,665.346 273.747,665.513 274.5,667C 274.167,667.333 273.833,667.667 273.5,668C 278.658,668.013 281.992,670.346 283.5,675C 288.848,678.356 294.181,681.689 299.5,685C 301.125,685.853 301.458,686.853 300.5,688C 302.848,688.11 304.348,689.277 305,691.5C 305.333,691.167 305.667,690.833 306,690.5C 309.477,691.966 312.31,693.466 314.5,695C 314.043,695.414 313.709,695.914 313.5,696.5C 314.274,697.711 315.107,697.711 316,696.5C 316.667,697.833 317.333,699.167 318,700.5C 318.333,700.167 318.667,699.833 319,699.5C 321.543,701.342 323.71,703.509 325.5,706C 333.22,707.42 339.553,711.587 344.5,718.5C 345.086,718.291 345.586,717.957 346,717.5C 346.667,718.833 347.333,720.167 348,721.5C 348.333,720.833 348.667,720.167 349,719.5C 349.71,720.973 350.876,721.64 352.5,721.5C 352.5,722.5 352.5,723.5 352.5,724.5C 354.308,724.491 355.975,724.991 357.5,726C 360.628,727.96 363.295,730.46 365.5,733.5C 368.202,734.522 370.869,735.522 373.5,736.5C 373.626,739.595 375.293,741.428 378.5,742C 379.841,745.006 382.175,746.506 385.5,746.5C 385.176,749.694 386.342,750.694 389,749.5C 399.366,754.449 408.199,761.449 415.5,770.5C 416.736,771.246 418.07,771.579 419.5,771.5C 419.238,772.978 419.571,774.311 420.5,775.5C 421.107,775.376 421.44,775.043 421.5,774.5C 422.222,774.082 422.722,773.416 423,772.5C 423.219,773.938 423.719,775.271 424.5,776.5C 425.451,775.674 426.451,775.508 427.5,776C 428.833,778 430.5,779.667 432.5,781C 436.155,782.897 439.655,785.064 443,787.5C 443.333,787.167 443.667,786.833 444,786.5C 448.218,791.903 453.384,795.903 459.5,798.5C 463.282,801.443 466.949,804.61 470.5,808C 478.986,813.745 487.652,819.245 496.5,824.5C 498.988,828.808 501.988,831.975 505.5,834C 508.215,834.878 510.549,836.378 512.5,838.5C 513.833,837.167 515.167,837.167 516.5,838.5C 520.222,841.387 523.389,844.72 526,848.5C 526.333,848.167 526.667,847.833 527,847.5C 530.07,849.447 532.57,851.947 534.5,855C 537.245,855.053 539.245,856.22 540.5,858.5C 548.46,862.481 555.293,867.147 561,872.5C 561.333,872.167 561.667,871.833 562,871.5C 564.949,873.383 567.782,876.05 570.5,879.5C 571.086,879.291 571.586,878.957 572,878.5C 573,880.167 574.333,881.5 576,882.5C 576.333,882.167 576.667,881.833 577,881.5C 579.194,886.237 582.528,889.904 587,892.5C 591.394,891.318 594.561,893.318 596.5,898.5C 599.457,900.689 602.457,902.189 605.5,903C 605.982,904.008 606.148,905.175 606,906.5C 607.073,905.72 608.24,905.887 609.5,907C 611.32,907.979 612.487,909.479 613,911.5C 613.333,911.167 613.667,910.833 614,910.5C 615.66,913.336 618.16,914.836 621.5,915C 621.167,915.333 620.833,915.667 620.5,916C 624.229,917.537 627.895,919.037 631.5,920.5C 631.351,921.552 631.517,922.552 632,923.5C 632.333,923.167 632.667,922.833 633,922.5C 635.175,925.181 638.008,926.847 641.5,927.5C 644.116,930.955 646.95,934.288 650,937.5C 650.718,936.549 651.551,936.383 652.5,937C 654.167,938.833 655.833,940.667 657.5,942.5C 658.167,942.167 658.833,941.833 659.5,941.5C 665.687,950.419 674.02,956.086 684.5,958.5C 684.343,959.873 684.51,961.207 685,962.5C 686.908,961.921 688.575,961.921 690,962.5C 691.563,965.84 694.063,968.007 697.5,969C 699.815,975.709 703.815,976.376 709.5,971C 708.396,969.869 708.729,969.035 710.5,968.5C 712.396,969.639 713.396,968.973 713.5,966.5C 717.013,963.573 721.013,960.406 725.5,957C 731.502,957.468 735.502,954.968 737.5,949.5C 738.5,949.5 739.5,949.5 740.5,949.5C 740.351,948.448 740.517,947.448 741,946.5C 744.194,943.144 748.027,940.811 752.5,939.5C 753.386,938.675 753.719,937.675 753.5,936.5C 754.822,936.33 755.989,936.663 757,937.5C 758.236,935.462 760.069,934.295 762.5,934C 761.833,933.667 761.167,933.333 760.5,933C 762.692,931.641 764.359,929.808 765.5,927.5C 771.977,924.696 777.644,920.696 782.5,915.5C 784.322,916.429 785.655,915.762 786.5,913.5C 787.451,914.326 788.451,914.492 789.5,914C 792.828,910.111 796.828,907.111 801.5,905C 800.542,903.853 800.875,902.853 802.5,902C 805.089,900.803 807.756,899.803 810.5,899C 811.874,896.417 813.374,893.917 815,891.5C 815.333,891.833 815.667,892.167 816,892.5C 818.558,890.862 821.391,889.696 824.5,889C 827.238,884.648 830.738,881.148 835,878.5C 835.772,878.645 836.439,878.978 837,879.5C 838.333,877.833 839.667,876.167 841,874.5C 841.333,874.833 841.667,875.167 842,875.5C 848.65,869.322 856.483,863.822 865.5,859C 866.743,857.846 867.743,856.512 868.5,855C 870.167,854.667 871.833,854.333 873.5,854C 876.149,849.445 880.149,846.778 885.5,846C 884.5,843.909 885.167,842.243 887.5,841C 892.494,839.186 897.161,836.686 901.5,833.5C 902.861,831.972 904.028,830.305 905,828.5C 905.333,829.167 905.667,829.833 906,830.5C 907.763,827.98 909.763,825.647 912,823.5C 912.333,823.833 912.667,824.167 913,824.5C 917.707,820.126 922.707,816.126 928,812.5C 928.333,812.833 928.667,813.167 929,813.5C 930.554,809.423 932.887,808.09 936,809.5C 940.448,803.296 946.281,798.963 953.5,796.5C 960.066,789.617 968.066,783.784 977.5,779C 979.157,776.667 981.157,774.667 983.5,773C 984.996,772.493 986.163,772.993 987,774.5C 987.255,771.207 988.755,770.04 991.5,771C 993.978,768.116 996.312,765.116 998.5,762C 1001.71,760.148 1005.04,758.481 1008.5,757C 1009.21,755.745 1010.04,754.579 1011,753.5C 1011.98,754.774 1012.81,754.774 1013.5,753.5C 1014.4,752.791 1014.74,751.791 1014.5,750.5C 1017.6,751.029 1019.94,750.029 1021.5,747.5C 1023.49,746.502 1025.49,745.502 1027.5,744.5C 1028.39,743.675 1028.72,742.675 1028.5,741.5C 1032.58,741.418 1035.25,739.418 1036.5,735.5C 1039.75,735.137 1041.91,733.471 1043,730.5C 1043.33,730.833 1043.67,731.167 1044,731.5C 1046.59,728.833 1049.25,726.167 1052,723.5C 1053.81,724.609 1054.65,723.942 1054.5,721.5C 1056.2,721.034 1057.7,721.034 1059,721.5C 1059.58,719.998 1060.42,718.665 1061.5,717.5C 1065.43,715.489 1068.43,713.156 1070.5,710.5C 1073.64,708.656 1076.8,706.989 1080,705.5C 1080.33,705.833 1080.67,706.167 1081,706.5C 1084.36,703.14 1087.69,699.806 1091,696.5C 1091.72,697.451 1092.55,697.617 1093.5,697C 1092.94,695.434 1093.61,694.101 1095.5,693C 1097.56,692.689 1099.56,692.189 1101.5,691.5C 1105.95,686.442 1111.28,682.609 1117.5,680C 1118.74,678.846 1119.74,677.512 1120.5,676C 1121.45,675.517 1122.45,675.351 1123.5,675.5C 1123.93,670.197 1126.93,667.864 1132.5,668.5C 1132.5,667.5 1132.5,666.5 1132.5,665.5C 1140.27,663.541 1146.77,659.541 1152,653.5C 1152.33,653.833 1152.67,654.167 1153,654.5C 1157.59,650.116 1162.09,645.616 1166.5,641C 1167.5,640.5 1168.5,640 1169.5,639.5C 1170.77,640.428 1172.1,640.595 1173.5,640C 1173.17,639.667 1172.83,639.333 1172.5,639C 1176.41,634.795 1180.58,632.628 1185,632.5C 1185.5,631.333 1186.33,630.5 1187.5,630C 1187.04,629.586 1186.71,629.086 1186.5,628.5C 1188.74,627.868 1190.4,626.535 1191.5,624.5C 1195.53,624.321 1198.7,622.654 1201,619.5C 1201.33,619.833 1201.67,620.167 1202,620.5C 1201.74,619.049 1201.9,617.716 1202.5,616.5C 1208.08,613.195 1213.74,610.028 1219.5,607C 1219.17,606.667 1218.83,606.333 1218.5,606C 1219.45,605.517 1220.45,605.351 1221.5,605.5C 1221.35,604.448 1221.52,603.448 1222,602.5C 1222.33,602.833 1222.67,603.167 1223,603.5C 1224.35,600.738 1226.35,599.738 1229,600.5C 1230.33,599.833 1231.33,598.833 1232,597.5C 1232.33,597.833 1232.67,598.167 1233,598.5C 1235,596.173 1237.5,594.673 1240.5,594C 1241.28,591.418 1242.95,589.751 1245.5,589C 1245.17,588.667 1244.83,588.333 1244.5,588C 1247.62,586.118 1250.29,583.785 1252.5,581C 1255.42,579.291 1258.25,577.458 1261,575.5C 1264.81,573.424 1268.64,570.591 1272.5,567C 1275.01,566.346 1277.17,565.179 1279,563.5C 1280.84,564.833 1281.34,564.666 1280.5,563C 1282.23,559.799 1284.73,558.632 1288,559.5C 1292.01,554.243 1297.17,550.576 1303.5,548.5C 1303.51,545.639 1304.68,544.639 1307,545.5C 1307.3,541.639 1309.14,540.139 1312.5,541C 1311.29,540.107 1311.29,539.274 1312.5,538.5C 1317.47,537.024 1321.47,534.19 1324.5,530C 1326.09,529.138 1327.75,528.471 1329.5,528C 1329.17,527.667 1328.83,527.333 1328.5,527C 1329.45,526.517 1330.45,526.351 1331.5,526.5C 1331.56,524.408 1332.56,522.908 1334.5,522C 1338.75,519.378 1343.08,517.045 1347.5,515C 1348.83,514 1348.83,513 1347.5,512C 1352.71,510.603 1358.04,510.103 1363.5,510.5C 1363.5,830.5 1363.5,1150.5 1363.5,1470.5C 922.833,1470.5 482.167,1470.5 41.5,1470.5C 41.5,1150.5 41.5,830.5 41.5,510.5C 46.8746,510.172 52.2079,510.505 57.5,511.5C 62.944,515.73 68.6106,519.73 74.5,523.5C 75.2811,524.729 75.7811,526.062 76,527.5C 76.3333,526.833 76.6667,526.167 77,525.5C 81.8818,530.678 87.5485,535.344 94,539.5C 95.6665,538.66 95.8331,539.16 94.5,541C 95.9346,540.689 97.2679,540.855 98.5,541.5C 100.466,543.968 102.632,546.301 105,548.5C 105.333,547.833 105.667,547.167 106,546.5C 106.561,548.725 107.561,550.725 109,552.5C 109.333,552.167 109.667,551.833 110,551.5C 113.242,553.997 116.242,556.664 119,559.5C 119.333,559.167 119.667,558.833 120,558.5C 122.924,560.078 125.758,561.745 128.5,563.5 Z"/></g>
<g><path style="opacity:1" fill="#aca596" d="M 64.5,542.5 C 63.2058,541.71 62.0391,540.71 61,539.5C 59.8437,540.502 59.3437,541.502 59.5,542.5C 58.3871,541.054 58.2204,539.387 59,537.5C 60.4411,538.26 61.9411,538.926 63.5,539.5C 64.3857,540.325 64.719,541.325 64.5,542.5 Z"/></g>
<g><path style="opacity:1" fill="#f5ebd5" d="M 1349.5,546.5 C 1346,546.259 1345.67,547.092 1348.5,549C 1347.29,550.107 1347.62,550.607 1349.5,550.5C 1348.85,551.807 1348.18,553.14 1347.5,554.5C 1348.17,557.5 1348.83,560.5 1349.5,563.5C 1348.97,564.192 1348.31,564.692 1347.5,565C 1348.47,569.737 1348.8,574.57 1348.5,579.5C 1348.67,580.822 1348.34,581.989 1347.5,583C 1349.06,583.72 1350.06,584.887 1350.5,586.5C 1349.64,587.531 1348.98,588.697 1348.5,590C 1349.69,592.055 1349.69,594.055 1348.5,596C 1349.43,597.194 1350.1,598.527 1350.5,600C 1348.64,602.376 1347.97,604.876 1348.5,607.5C 1349.79,610.021 1350.45,612.687 1350.5,615.5C 1349.45,615.351 1348.45,615.517 1347.5,616C 1349.83,617.842 1350.17,620.009 1348.5,622.5C 1347.62,622.369 1346.96,622.702 1346.5,623.5C 1347.2,623.787 1347.87,624.12 1348.5,624.5C 1348.5,625.167 1348.5,625.833 1348.5,626.5C 1345.93,627.484 1345.93,628.651 1348.5,630C 1347.29,631.107 1347.62,631.607 1349.5,631.5C 1349.5,632.167 1349.5,632.833 1349.5,633.5C 1347.07,634.353 1346.24,636.019 1347,638.5C 1347.67,637.748 1348.5,637.414 1349.5,637.5C 1350.63,641.958 1350.63,646.625 1349.5,651.5C 1348.32,651.281 1347.32,651.614 1346.5,652.5C 1349.75,655.552 1350.09,659.052 1347.5,663C 1348.79,668.377 1348.79,673.71 1347.5,679C 1350.47,681.842 1350.8,684.842 1348.5,688C 1349.17,690 1349.83,692 1350.5,694C 1349.05,701.694 1348.72,709.361 1349.5,717C 1348.2,717.804 1347.53,718.971 1347.5,720.5C 1348.18,723.989 1349.51,727.156 1351.5,730C 1348.87,735.677 1348.53,741.344 1350.5,747C 1348.99,750.888 1347.99,754.888 1347.5,759C 1348.36,759.689 1349.02,760.522 1349.5,761.5C 1349.14,763.733 1348.14,765.566 1346.5,767C 1347,767.5 1347.5,768 1348,768.5C 1347.92,775.373 1348.76,782.04 1350.5,788.5C 1349.29,789.72 1349.29,790.887 1350.5,792C 1349.06,792.991 1348.06,794.324 1347.5,796C 1348.83,801 1348.83,806 1347.5,811C 1348.17,813.667 1348.83,816.333 1349.5,819C 1348.64,819.689 1347.98,820.522 1347.5,821.5C 1348.21,824.983 1348.87,828.483 1349.5,832C 1348.34,836.75 1348.34,841.583 1349.5,846.5C 1348.33,847.584 1347,848.417 1345.5,849C 1349.09,850.275 1349.09,851.942 1345.5,854C 1349.81,854.866 1350.14,855.866 1346.5,857C 1347.31,857.308 1347.97,857.808 1348.5,858.5C 1347.93,861.417 1347.93,864.417 1348.5,867.5C 1344.94,867.717 1344.94,868.717 1348.5,870.5C 1347.29,871.88 1347.63,873.047 1349.5,874C 1348.83,875 1348.17,876 1347.5,877C 1348.15,884.183 1349.15,891.35 1350.5,898.5C 1349.83,899.167 1349.17,899.833 1348.5,900.5C 1349.47,904.536 1350.14,908.87 1350.5,913.5C 1349.05,919.376 1348.38,925.376 1348.5,931.5C 1344.8,932.934 1345.13,934.268 1349.5,935.5C 1349.52,937.143 1348.85,938.476 1347.5,939.5C 1348.17,940.167 1348.83,940.833 1349.5,941.5C 1348.85,943.115 1348.35,944.782 1348,946.5C 1345.51,945.238 1345.17,945.571 1347,947.5C 1347.78,952.554 1347.61,957.554 1346.5,962.5C 1349.17,965.167 1349.17,967.833 1346.5,970.5C 1348.81,972.686 1348.81,975.019 1346.5,977.5C 1347.95,979.618 1348.61,981.951 1348.5,984.5C 1347.45,984.351 1346.45,984.517 1345.5,985C 1347.3,987.114 1348.3,989.614 1348.5,992.5C 1347.23,991.913 1346.23,991.913 1345.5,992.5C 1346.71,993.72 1346.71,994.887 1345.5,996C 1346.04,996.717 1346.71,997.217 1347.5,997.5C 1347.67,999.492 1347,1001.16 1345.5,1002.5C 1348.06,1004.12 1348.06,1005.62 1345.5,1007C 1347.43,1011.89 1348.76,1016.72 1349.5,1021.5C 1349.16,1026.84 1348.83,1032.17 1348.5,1037.5C 1345.21,1039.44 1344.71,1042.1 1347,1045.5C 1347.38,1044.94 1347.88,1044.61 1348.5,1044.5C 1348.62,1047.59 1347.62,1050.25 1345.5,1052.5C 1345.67,1053.17 1345.83,1053.83 1346,1054.5C 1348.13,1053.15 1349.29,1053.82 1349.5,1056.5C 1348.5,1058.17 1347.5,1059.83 1346.5,1061.5C 1347.03,1064.86 1348.03,1068.03 1349.5,1071C 1348.9,1072.61 1347.9,1073.94 1346.5,1075C 1347.5,1075.83 1348.5,1076.67 1349.5,1077.5C 1348.46,1078.62 1347.79,1079.96 1347.5,1081.5C 1348.17,1083.83 1348.83,1086.17 1349.5,1088.5C 1349.21,1090.04 1348.54,1091.38 1347.5,1092.5C 1348.82,1094.53 1348.82,1096.53 1347.5,1098.5C 1347.59,1099.5 1347.25,1100.33 1346.5,1101C 1347.38,1101.71 1348.05,1102.54 1348.5,1103.5C 1348.37,1105.22 1348.04,1106.88 1347.5,1108.5C 1346.64,1107.54 1345.97,1107.54 1345.5,1108.5C 1347,1109.84 1347.67,1111.51 1347.5,1113.5C 1347.31,1116.37 1347.97,1119.04 1349.5,1121.5C 1349,1122.5 1348.5,1123.5 1348,1124.5C 1347.28,1123.55 1346.45,1123.38 1345.5,1124C 1346.23,1125.4 1346.73,1126.9 1347,1128.5C 1347.72,1127.55 1348.55,1127.38 1349.5,1128C 1348.91,1131.01 1347.25,1133.17 1344.5,1134.5C 1345,1135.5 1345.5,1136.5 1346,1137.5C 1346.67,1136.17 1347.33,1136.17 1348,1137.5C 1348.5,1139.47 1348.66,1141.47 1348.5,1143.5C 1347.32,1143.28 1346.32,1143.61 1345.5,1144.5C 1345.85,1145.7 1346.35,1145.7 1347,1144.5C 1347.74,1146.95 1348.24,1149.45 1348.5,1152C 1347.16,1155.02 1347.16,1157.69 1348.5,1160C 1348.04,1162.31 1347.04,1164.31 1345.5,1166C 1347.81,1168.66 1348.14,1171.66 1346.5,1175C 1346.9,1176.47 1347.57,1177.81 1348.5,1179C 1347.55,1179.48 1346.55,1179.65 1345.5,1179.5C 1345.4,1182.67 1346.07,1185.67 1347.5,1188.5C 1347.32,1193.9 1347.32,1199.4 1347.5,1205C 1347.1,1206.9 1346.1,1208.4 1344.5,1209.5C 1345.32,1210.39 1346.32,1210.72 1347.5,1210.5C 1347.95,1214.03 1348.28,1217.37 1348.5,1220.5C 1347.5,1220.5 1346.5,1220.5 1345.5,1220.5C 1347.62,1224.01 1347.95,1227.68 1346.5,1231.5C 1349.5,1236.63 1349.16,1241.46 1345.5,1246C 1348.17,1247 1348.17,1248 1345.5,1249C 1348.05,1251.4 1348.05,1253.73 1345.5,1256C 1347.27,1258.27 1347.94,1260.6 1347.5,1263C 1343.39,1266.51 1343.56,1267.01 1348,1264.5C 1348.17,1265 1348.33,1265.5 1348.5,1266C 1345.42,1269.01 1345.08,1272.18 1347.5,1275.5C 1346.75,1277.04 1345.75,1278.37 1344.5,1279.5C 1346.66,1281.79 1346.99,1284.29 1345.5,1287C 1348.63,1289.02 1349.13,1291.52 1347,1294.5C 1346.28,1293.55 1345.45,1293.38 1344.5,1294C 1348.34,1295.64 1348.34,1297.14 1344.5,1298.5C 1345.63,1299.62 1346.3,1300.96 1346.5,1302.5C 1345.73,1303.17 1345.07,1304.01 1344.5,1305C 1345.52,1305.52 1346.18,1306.35 1346.5,1307.5C 1346.15,1308.85 1345.82,1310.18 1345.5,1311.5C 1346.4,1312.16 1347.4,1312.82 1348.5,1313.5C 1348.88,1317.39 1348.21,1321.22 1346.5,1325C 1347.38,1326.36 1347.71,1327.86 1347.5,1329.5C 1346.32,1329.28 1345.32,1329.61 1344.5,1330.5C 1346.54,1333.54 1346.87,1336.71 1345.5,1340C 1347.54,1342.3 1347.87,1344.8 1346.5,1347.5C 1348.65,1348.68 1348.65,1350.18 1346.5,1352C 1348.04,1353.11 1348.7,1354.61 1348.5,1356.5C 1347.45,1356.35 1346.45,1356.52 1345.5,1357C 1346.41,1359.23 1347.41,1361.4 1348.5,1363.5C 1346.87,1365.39 1347.2,1366.89 1349.5,1368C 1347.34,1368.96 1347.01,1370.46 1348.5,1372.5C 1348.03,1374.57 1347.37,1376.57 1346.5,1378.5C 1349.82,1381.36 1350.15,1384.36 1347.5,1387.5C 1347.1,1386.47 1346.44,1386.31 1345.5,1387C 1346.9,1389.07 1346.56,1390.91 1344.5,1392.5C 1346.09,1391.97 1347.42,1392.64 1348.5,1394.5C 1348.35,1404.14 1347.35,1413.64 1345.5,1423C 1347.9,1425.58 1348.06,1428.41 1346,1431.5C 1342.97,1429.77 1340.14,1427.77 1337.5,1425.5C 1335.35,1423.59 1333.02,1421.92 1330.5,1420.5C 1329.21,1420.74 1328.21,1420.4 1327.5,1419.5C 1327.49,1417.98 1326.82,1416.82 1325.5,1416C 1323.14,1414.24 1320.81,1413.07 1318.5,1412.5C 1317.17,1412.5 1316.5,1411.83 1316.5,1410.5C 1315.03,1408.61 1313.36,1406.94 1311.5,1405.5C 1308.07,1404.06 1304.73,1403.22 1301.5,1403C 1302.06,1402.62 1302.39,1402.12 1302.5,1401.5C 1302.18,1399.95 1301.18,1399.29 1299.5,1399.5C 1299.5,1398.5 1299.5,1397.5 1299.5,1396.5C 1297.78,1396.37 1296.12,1396.04 1294.5,1395.5C 1291.03,1392.89 1287.36,1390.39 1283.5,1388C 1282.71,1386.91 1282.04,1385.75 1281.5,1384.5C 1276.55,1380.73 1271.22,1377.56 1265.5,1375C 1264.62,1373.41 1263.62,1371.91 1262.5,1370.5C 1257.03,1366.68 1251.69,1362.68 1246.5,1358.5C 1242.74,1357.31 1239.07,1355.98 1235.5,1354.5C 1234.83,1351.83 1233.17,1350.17 1230.5,1349.5C 1228.52,1348.31 1226.52,1346.98 1224.5,1345.5C 1221.99,1342.49 1219.32,1339.66 1216.5,1337C 1214.56,1336.19 1212.56,1335.69 1210.5,1335.5C 1208.43,1334.11 1206.76,1332.28 1205.5,1330C 1204.55,1329.52 1203.55,1329.35 1202.5,1329.5C 1197.93,1325.44 1192.93,1321.94 1187.5,1319C 1180.22,1312.36 1172.22,1306.69 1163.5,1302C 1156.66,1295.76 1149.33,1290.26 1141.5,1285.5C 1139.88,1283.68 1137.88,1282.35 1135.5,1281.5C 1134.83,1280.5 1134.17,1279.5 1133.5,1278.5C 1132.66,1276.83 1131.32,1275.66 1129.5,1275C 1125.53,1274.65 1121.86,1273.49 1118.5,1271.5C 1118.52,1269.86 1117.85,1268.52 1116.5,1267.5C 1113.31,1265.48 1110.31,1263.15 1107.5,1260.5C 1105.22,1258.87 1102.89,1258.04 1100.5,1258C 1099.24,1255.72 1097.57,1253.89 1095.5,1252.5C 1091.68,1249.02 1087.35,1246.35 1082.5,1244.5C 1076.85,1238.86 1070.85,1233.52 1064.5,1228.5C 1062.23,1227.51 1059.89,1226.68 1057.5,1226C 1055.02,1223.23 1052.02,1221.23 1048.5,1220C 1047.66,1218.99 1047.33,1217.82 1047.5,1216.5C 1044.34,1215.02 1041.01,1214.02 1037.5,1213.5C 1035.64,1211.72 1033.97,1209.72 1032.5,1207.5C 1031.58,1206.87 1030.58,1206.54 1029.5,1206.5C 1027.97,1206.57 1026.97,1205.91 1026.5,1204.5C 1026.63,1203.76 1026.46,1203.09 1026,1202.5C 1024.35,1200.79 1022.52,1199.46 1020.5,1198.5C 1019.46,1197.21 1018.29,1197.21 1017,1198.5C 1013.65,1196.4 1010.81,1193.74 1008.5,1190.5C 1002.33,1186.95 996.996,1183.29 992.5,1179.5C 990.203,1177.71 988.037,1175.71 986,1173.5C 985.329,1174.25 984.496,1174.59 983.5,1174.5C 979.667,1170.87 975.667,1167.2 971.5,1163.5C 965.701,1158.95 959.701,1154.95 953.5,1151.5C 946.073,1145.42 938.073,1140.09 929.5,1135.5C 928.533,1134.19 927.199,1133.53 925.5,1133.5C 925.719,1132.32 925.386,1131.32 924.5,1130.5C 921.111,1129.78 919.111,1127.78 918.5,1124.5C 916.219,1124.92 914.552,1124.26 913.5,1122.5C 911.544,1121.51 909.544,1120.51 907.5,1119.5C 907.294,1117.45 906.461,1117.12 905,1118.5C 904.56,1116.92 903.727,1115.59 902.5,1114.5C 900.668,1113.75 899.001,1112.75 897.5,1111.5C 896.914,1111.71 896.414,1112.04 896,1112.5C 894.893,1109.74 893.06,1107.74 890.5,1106.5C 889.33,1104.72 887.664,1103.72 885.5,1103.5C 884.341,1102.54 883.174,1101.54 882,1100.5C 879.922,1101.94 879.089,1101.28 879.5,1098.5C 879.586,1097.5 879.252,1096.67 878.5,1096C 875.798,1095.16 873.132,1094.33 870.5,1093.5C 867.397,1091.32 864.73,1088.65 862.5,1085.5C 859.872,1084.19 857.205,1082.85 854.5,1081.5C 853.215,1079.55 851.549,1077.88 849.5,1076.5C 846.224,1074.78 843.057,1072.78 840,1070.5C 839.282,1071.45 838.449,1071.62 837.5,1071C 836.837,1069.48 835.837,1068.31 834.5,1067.5C 834.586,1066.5 834.252,1065.67 833.5,1065C 831.595,1063.58 829.595,1062.41 827.5,1061.5C 825.934,1060.83 824.267,1059.5 822.5,1057.5C 819.796,1056.43 817.13,1055.43 814.5,1054.5C 814.67,1053.18 814.337,1052.01 813.5,1051C 809.119,1048.15 804.786,1045.32 800.5,1042.5C 798.66,1040.33 796.326,1039 793.5,1038.5C 792.522,1035.52 790.522,1033.52 787.5,1032.5C 786.554,1031.07 785.388,1029.74 784,1028.5C 779.318,1028.22 775.818,1025.72 773.5,1021C 770.302,1020.15 767.469,1018.65 765,1016.5C 763.375,1017.41 762.541,1016.75 762.5,1014.5C 760.031,1012.63 757.364,1010.97 754.5,1009.5C 752.359,1007.89 750.026,1006.39 747.5,1005C 745.093,1001.62 741.76,999.622 737.5,999C 736.117,997.729 735.117,996.229 734.5,994.5C 733.198,992.178 731.198,990.845 728.5,990.5C 722.499,989.485 721.165,986.485 724.5,981.5C 727.777,979.885 730.777,977.885 733.5,975.5C 735.039,974.233 736.706,973.233 738.5,972.5C 742.888,970.29 746.555,967.124 749.5,963C 754.052,960.772 758.385,958.272 762.5,955.5C 762.33,954.178 762.663,953.011 763.5,952C 767.354,950.953 771.02,949.453 774.5,947.5C 776.005,946.158 776.672,944.492 776.5,942.5C 778.167,942.5 779.833,942.5 781.5,942.5C 781.297,940.61 781.963,939.11 783.5,938C 789.426,935.271 794.759,931.604 799.5,927C 801.134,926.506 802.801,926.34 804.5,926.5C 804.351,925.448 804.517,924.448 805,923.5C 805.333,923.833 805.667,924.167 806,924.5C 808.682,922.097 811.182,919.597 813.5,917C 816.845,916.323 819.345,914.489 821,911.5C 821.333,911.833 821.667,912.167 822,912.5C 823.113,911.695 824.279,911.028 825.5,910.5C 827.167,909.5 828.5,908.167 829.5,906.5C 832.285,907.084 833.952,906.084 834.5,903.5C 838.119,901.055 841.619,898.389 845,895.5C 849.006,894.484 852.172,892.317 854.5,889C 856.833,888 859.167,887 861.5,886C 868.069,878.753 875.735,873.086 884.5,869C 886.471,865.353 889.471,863.186 893.5,862.5C 896.971,861.367 898.971,859.033 899.5,855.5C 903.102,853.951 906.769,852.284 910.5,850.5C 915.44,846.845 919.774,842.512 923.5,837.5C 928.035,835.339 932.369,833.006 936.5,830.5C 939.839,829.81 941.839,827.81 942.5,824.5C 946.692,822.927 950.358,820.594 953.5,817.5C 956.313,817.975 958.313,816.975 959.5,814.5C 960.028,813.279 960.695,812.113 961.5,811C 965.553,809.64 969.22,807.807 972.5,805.5C 972.468,803.381 973.468,802.048 975.5,801.5C 977.927,801.477 980.26,800.977 982.5,800C 984.027,797.31 986.027,795.143 988.5,793.5C 994.781,789.352 1001.11,785.186 1007.5,781C 1008.5,776.837 1011.17,774.67 1015.5,774.5C 1021.39,770.129 1027.39,766.129 1033.5,762.5C 1036.2,762.33 1037.87,760.997 1038.5,758.5C 1041.06,756.727 1043.39,754.727 1045.5,752.5C 1048.76,752.236 1050.76,750.57 1051.5,747.5C 1053.72,746.797 1055.55,745.464 1057,743.5C 1058.07,744.28 1059.24,744.113 1060.5,743C 1062.4,740.932 1064.4,739.099 1066.5,737.5C 1068.38,737.771 1069.71,737.104 1070.5,735.5C 1073.13,734.745 1073.79,733.245 1072.5,731C 1073.53,730.487 1074.53,729.987 1075.5,729.5C 1080.31,728.345 1083.98,725.678 1086.5,721.5C 1087.45,719.545 1088.78,719.211 1090.5,720.5C 1094.29,718.147 1097.29,715.647 1099.5,713C 1102.97,713.122 1105.63,711.789 1107.5,709C 1106.83,708.667 1106.17,708.333 1105.5,708C 1108.08,706.856 1110.75,706.022 1113.5,705.5C 1114.71,705.068 1115.71,704.401 1116.5,703.5C 1116.5,702.5 1116.5,701.5 1116.5,700.5C 1117.79,700.737 1118.79,700.404 1119.5,699.5C 1123.05,698.231 1126.05,696.231 1128.5,693.5C 1133.48,692.845 1136.48,690.178 1137.5,685.5C 1141.15,684.955 1144.15,683.288 1146.5,680.5C 1149.54,679.35 1152.54,677.85 1155.5,676C 1157.46,673.193 1159.96,671.027 1163,669.5C 1163.46,668.906 1163.63,668.239 1163.5,667.5C 1166.24,667.293 1168.57,666.293 1170.5,664.5C 1172.34,662.193 1174.34,659.86 1176.5,657.5C 1177.32,656.614 1178.32,656.281 1179.5,656.5C 1182.58,656.413 1184.91,655.08 1186.5,652.5C 1187.03,651.279 1187.69,650.113 1188.5,649C 1194.84,646.493 1200.34,642.66 1205,637.5C 1205.33,637.833 1205.67,638.167 1206,638.5C 1207.73,636.549 1209.9,635.549 1212.5,635.5C 1213.89,634.101 1214.89,632.434 1215.5,630.5C 1217.12,629.962 1218.78,629.629 1220.5,629.5C 1220.5,628.5 1220.5,627.5 1220.5,626.5C 1221.5,626.5 1222.5,626.5 1223.5,626.5C 1223.5,625.5 1223.5,624.5 1223.5,623.5C 1230.39,621.385 1236.39,617.719 1241.5,612.5C 1246.27,611.431 1249.77,608.764 1252,604.5C 1252.33,604.833 1252.67,605.167 1253,605.5C 1255.87,602.113 1259.37,599.78 1263.5,598.5C 1263.09,596.027 1264.09,594.694 1266.5,594.5C 1269.68,593.563 1272.34,591.896 1274.5,589.5C 1276.94,586.775 1279.61,584.275 1282.5,582C 1288.98,578.592 1295.32,574.925 1301.5,571C 1304.27,568.939 1306.6,566.439 1308.5,563.5C 1313.02,562.504 1316.52,560.17 1319,556.5C 1319.67,555.167 1320.33,555.167 1321,556.5C 1321.38,555.058 1322.21,554.058 1323.5,553.5C 1325.4,553.204 1327.07,552.537 1328.5,551.5C 1329.87,549.206 1331.87,547.539 1334.5,546.5C 1336.37,545.737 1338.04,544.737 1339.5,543.5C 1341.82,541.35 1344.32,539.35 1347,537.5C 1349.38,537.818 1350.54,539.151 1350.5,541.5C 1349.13,541.343 1347.79,541.51 1346.5,542C 1348.44,542.908 1349.44,544.408 1349.5,546.5 Z"/></g>
<g><path style="opacity:1" fill="#f5ebd5" d="M 64.5,542.5 C 66.4412,542.869 68.2745,543.536 70,544.5C 72.654,545.959 75.154,548.293 77.5,551.5C 79.1955,552.174 80.8621,552.841 82.5,553.5C 84.2459,555.252 86.2459,556.585 88.5,557.5C 88.8333,558.167 89.1667,558.833 89.5,559.5C 90.209,560.404 91.209,560.737 92.5,560.5C 98.2917,564.786 103.958,569.286 109.5,574C 110.793,574.49 112.127,574.657 113.5,574.5C 113.5,575.5 113.5,576.5 113.5,577.5C 116.827,577.829 119.493,579.163 121.5,581.5C 123.147,583.326 125.147,584.66 127.5,585.5C 129.775,586.111 131.441,587.445 132.5,589.5C 133.545,590.878 134.878,591.878 136.5,592.5C 138.472,591.483 139.805,592.15 140.5,594.5C 142.267,597.679 144.934,599.679 148.5,600.5C 151.381,603.029 154.381,605.529 157.5,608C 158.448,608.483 159.448,608.649 160.5,608.5C 160.5,609.5 160.5,610.5 160.5,611.5C 163.01,611.054 165.01,611.72 166.5,613.5C 167.806,614.467 168.473,615.801 168.5,617.5C 169.5,617.5 170.5,617.5 171.5,617.5C 172.29,618.401 173.29,619.068 174.5,619.5C 174.393,621.379 174.893,621.712 176,620.5C 176.278,621.416 176.778,622.082 177.5,622.5C 181.241,621.599 183.241,622.932 183.5,626.5C 184.5,626.5 185.5,626.5 186.5,626.5C 186.281,627.675 186.614,628.675 187.5,629.5C 189.759,629.784 191.426,630.784 192.5,632.5C 193.048,634.532 194.381,635.532 196.5,635.5C 201.39,637.529 205.39,640.529 208.5,644.5C 212.164,647.335 216.164,649.668 220.5,651.5C 221.507,653.522 223.174,654.855 225.5,655.5C 226.923,657.545 228.923,658.545 231.5,658.5C 239.735,664.061 247.402,670.395 254.5,677.5C 255.78,678.931 257.447,679.598 259.5,679.5C 260.757,680.818 262.091,682.151 263.5,683.5C 264.527,682.209 265.527,682.209 266.5,683.5C 267.08,685.749 268.413,687.415 270.5,688.5C 271.5,690.167 272.833,691.5 274.5,692.5C 278.245,694.209 281.912,696.209 285.5,698.5C 288.904,700.22 291.571,702.72 293.5,706C 298.064,708.23 302.397,710.73 306.5,713.5C 307.262,715.262 308.596,716.262 310.5,716.5C 312.534,717.644 314.534,718.977 316.5,720.5C 318.345,719.605 319.678,720.272 320.5,722.5C 322.167,724.167 323.833,725.833 325.5,727.5C 327.262,727.357 328.929,727.691 330.5,728.5C 333.217,732.351 336.551,735.518 340.5,738C 344.738,740.713 348.738,743.713 352.5,747C 353.833,747.333 355.167,747.667 356.5,748C 356.167,748.333 355.833,748.667 355.5,749C 360.34,752.592 365.007,756.425 369.5,760.5C 371.707,761.635 374.04,762.301 376.5,762.5C 376.351,763.552 376.517,764.552 377,765.5C 377.333,765.167 377.667,764.833 378,764.5C 380.356,767.014 383.189,768.848 386.5,770C 388.84,773.509 392.173,775.509 396.5,776C 403.684,784.062 412.018,790.562 421.5,795.5C 421.511,797.017 422.177,798.184 423.5,799C 425.927,800.591 428.593,801.425 431.5,801.5C 431.554,803.632 432.554,804.965 434.5,805.5C 439.367,807.674 444.033,810.341 448.5,813.5C 449.612,814.265 450.279,815.265 450.5,816.5C 450.5,818.5 451.5,819.5 453.5,819.5C 455.117,820.038 456.784,820.371 458.5,820.5C 458.5,821.5 458.5,822.5 458.5,823.5C 460.099,823.232 461.432,823.566 462.5,824.5C 462.859,826.485 463.692,827.151 465,826.5C 466.3,828.588 468.133,829.921 470.5,830.5C 470.414,831.496 470.748,832.329 471.5,833C 474.883,833.875 478.216,834.875 481.5,836C 485.878,841.045 490.545,845.711 495.5,850C 496.745,850.791 498.078,851.291 499.5,851.5C 500.784,853.614 502.784,854.614 505.5,854.5C 506.326,856.264 507.659,857.598 509.5,858.5C 511.852,860.346 514.352,862.012 517,863.5C 517.333,863.167 517.667,862.833 518,862.5C 519.813,864.761 521.313,867.095 522.5,869.5C 524.514,869.392 526.18,870.058 527.5,871.5C 529.147,873.326 531.147,874.66 533.5,875.5C 534.833,875.5 535.5,876.167 535.5,877.5C 536.671,878.345 538.005,879.011 539.5,879.5C 540.5,881.167 541.833,882.5 543.5,883.5C 546.222,885.647 549.222,887.313 552.5,888.5C 552.957,890.773 554.29,892.106 556.5,892.5C 557.455,894.71 558.955,895.043 561,893.5C 562.883,894.653 563.716,896.319 563.5,898.5C 564.552,898.351 565.552,898.517 566.5,899C 569.969,902.047 573.802,904.547 578,906.5C 578.333,906.167 578.667,905.833 579,905.5C 580.869,910.351 584.369,913.184 589.5,914C 590.252,914.671 590.586,915.504 590.5,916.5C 592.336,918.588 594.669,919.921 597.5,920.5C 597.981,923.397 599.648,925.064 602.5,925.5C 603.873,925.343 605.207,925.51 606.5,926C 609.024,929.174 612.024,931.674 615.5,933.5C 619.39,937.726 624.056,940.726 629.5,942.5C 630.131,944.448 631.131,946.281 632.5,948C 638.765,948.894 643.765,951.727 647.5,956.5C 648.035,958.446 649.368,959.446 651.5,959.5C 657.047,964.011 662.714,968.345 668.5,972.5C 670.294,973.233 671.961,974.233 673.5,975.5C 676.291,977.735 679.291,979.735 682.5,981.5C 682.5,981.833 682.5,982.167 682.5,982.5C 683.942,983.82 684.608,985.486 684.5,987.5C 681.65,989.795 678.317,991.295 674.5,992C 672.97,994.352 671.303,996.519 669.5,998.5C 666.759,998.707 664.426,999.707 662.5,1001.5C 662.649,1002.55 662.483,1003.55 662,1004.5C 661.667,1004.17 661.333,1003.83 661,1003.5C 657.49,1005.05 654.324,1007.05 651.5,1009.5C 646.612,1012.37 641.945,1015.7 637.5,1019.5C 634.134,1020.34 631.801,1022.34 630.5,1025.5C 628.925,1026.46 627.258,1027.12 625.5,1027.5C 623.973,1027.43 622.973,1028.09 622.5,1029.5C 621.761,1029.37 621.094,1029.54 620.5,1030C 618.712,1032.18 617.046,1034.35 615.5,1036.5C 615.167,1037.5 614.5,1038.17 613.5,1038.5C 610.814,1039.84 608.148,1041.18 605.5,1042.5C 603.292,1043.02 601.792,1044.36 601,1046.5C 600.667,1046.17 600.333,1045.83 600,1045.5C 598.898,1046.95 597.731,1048.28 596.5,1049.5C 594.566,1050.11 592.899,1051.11 591.5,1052.5C 589.611,1053.6 587.945,1054.94 586.5,1056.5C 583.911,1056.46 581.911,1057.46 580.5,1059.5C 580.167,1060.17 579.833,1060.83 579.5,1061.5C 577.405,1062.41 575.405,1063.58 573.5,1065C 572.748,1065.67 572.414,1066.5 572.5,1067.5C 570.569,1068.26 569.069,1069.59 568,1071.5C 567.667,1071.17 567.333,1070.83 567,1070.5C 564.26,1071.14 561.76,1072.31 559.5,1074C 557.507,1076.75 555.007,1078.91 552,1080.5C 551.517,1081.45 551.351,1082.45 551.5,1083.5C 549.549,1083.23 548.049,1083.89 547,1085.5C 546.282,1084.55 545.449,1084.38 544.5,1085C 540.291,1090.97 534.958,1094.64 528.5,1096C 526.976,1098.36 524.976,1100.19 522.5,1101.5C 522.709,1102.09 523.043,1102.59 523.5,1103C 519.924,1104.02 516.591,1105.52 513.5,1107.5C 508.352,1110.72 503.685,1114.38 499.5,1118.5C 496.802,1118.84 494.802,1120.18 493.5,1122.5C 490.314,1123.94 487.648,1126.11 485.5,1129C 483.975,1130.01 482.308,1130.51 480.5,1130.5C 480.719,1131.68 480.386,1132.68 479.5,1133.5C 474.938,1138.41 469.604,1142.08 463.5,1144.5C 461.167,1144.83 459.833,1146.17 459.5,1148.5C 459.167,1148.5 458.833,1148.5 458.5,1148.5C 456.067,1148.27 454.401,1149.27 453.5,1151.5C 451.847,1155.34 448.847,1157.17 444.5,1157C 441.64,1159.36 438.64,1161.53 435.5,1163.5C 434.614,1164.32 434.281,1165.32 434.5,1166.5C 431.99,1166.99 429.656,1167.99 427.5,1169.5C 427.185,1171.48 426.185,1172.82 424.5,1173.5C 421.422,1173.59 419.089,1174.92 417.5,1177.5C 414.733,1177.87 412.733,1179.2 411.5,1181.5C 408.425,1182.07 406.425,1183.91 405.5,1187C 402.866,1187.65 400.533,1188.82 398.5,1190.5C 397.761,1190.37 397.094,1190.54 396.5,1191C 395.252,1192.4 394.252,1193.9 393.5,1195.5C 391.321,1196.68 388.987,1197.68 386.5,1198.5C 385.448,1198.35 384.448,1198.52 383.5,1199C 381.525,1202.58 378.858,1205.41 375.5,1207.5C 373.799,1208.21 372.799,1209.54 372.5,1211.5C 372.389,1212.12 372.056,1212.62 371.5,1213C 369.1,1213.19 366.766,1213.69 364.5,1214.5C 362.457,1217.54 359.79,1219.88 356.5,1221.5C 354.62,1221.23 353.287,1221.9 352.5,1223.5C 350.641,1225.57 348.308,1226.91 345.5,1227.5C 344.614,1228.32 344.281,1229.32 344.5,1230.5C 341.439,1230.44 339.272,1231.78 338,1234.5C 337.667,1234.17 337.333,1233.83 337,1233.5C 329.243,1239.67 322.076,1245.84 315.5,1252C 313.744,1252.2 312.078,1252.7 310.5,1253.5C 309.5,1254.83 308.5,1256.17 307.5,1257.5C 302.735,1257.35 299.235,1259.69 297,1264.5C 296.667,1264.17 296.333,1263.83 296,1263.5C 292.281,1266.4 288.947,1269.73 286,1273.5C 284.539,1272.12 283.706,1272.45 283.5,1274.5C 280.729,1274.42 278.063,1274.92 275.5,1276C 274.167,1276.67 274.167,1277.33 275.5,1278C 272.921,1279.08 271.254,1280.91 270.5,1283.5C 267.687,1283.02 265.687,1284.02 264.5,1286.5C 259.676,1288 255.676,1290.67 252.5,1294.5C 249.656,1294.34 247.989,1295.68 247.5,1298.5C 245.284,1299.97 243.284,1301.63 241.5,1303.5C 238.626,1304.1 236.292,1305.43 234.5,1307.5C 232.111,1309.12 229.444,1310.46 226.5,1311.5C 223.73,1313.56 221.396,1316.06 219.5,1319C 213.784,1320.24 209.784,1323.4 207.5,1328.5C 205.784,1328.63 204.117,1328.96 202.5,1329.5C 200.167,1331.17 198.167,1333.17 196.5,1335.5C 194.436,1335.69 192.436,1336.19 190.5,1337C 185.589,1342.75 179.923,1347.58 173.5,1351.5C 171.449,1352.49 169.782,1353.82 168.5,1355.5C 162.517,1357.27 157.517,1360.6 153.5,1365.5C 149.888,1367.13 146.555,1369.13 143.5,1371.5C 142.469,1372.7 141.635,1374.03 141,1375.5C 140.667,1375.17 140.333,1374.83 140,1374.5C 133.685,1379.4 127.185,1383.9 120.5,1388C 118.037,1389.92 116.037,1392.25 114.5,1395C 110.684,1395.75 107.35,1397.25 104.5,1399.5C 104.762,1400.98 104.429,1402.31 103.5,1403.5C 101.328,1403.68 98.9951,1403.84 96.5,1404C 95.944,1404.38 95.6107,1404.88 95.5,1405.5C 94.5,1406.5 93.5,1407.5 92.5,1408.5C 92.1193,1409.93 91.1193,1410.76 89.5,1411C 90.7119,1412.11 90.3786,1412.61 88.5,1412.5C 86.0107,1412.24 84.344,1413.24 83.5,1415.5C 83.1667,1415.5 82.8333,1415.5 82.5,1415.5C 80.6115,1416.6 78.9448,1417.94 77.5,1419.5C 76.8333,1419.5 76.5,1419.83 76.5,1420.5C 73.6357,1421.97 70.9691,1423.63 68.5,1425.5C 64.4248,1428.91 60.0915,1431.91 55.5,1434.5C 56.3994,1430.3 56.3994,1426.3 55.5,1422.5C 58.6704,1421.21 59.0038,1419.54 56.5,1417.5C 56.3285,1415.51 56.9951,1413.84 58.5,1412.5C 57.8333,1408.17 57.1667,1403.83 56.5,1399.5C 57.2624,1399.09 58.2624,1398.92 59.5,1399C 56.2057,1395.7 55.539,1391.2 57.5,1385.5C 56.8333,1383.83 56.1667,1382.17 55.5,1380.5C 55.9391,1378.9 56.6057,1377.4 57.5,1376C 57.1667,1373 56.8333,1370 56.5,1367C 57.1667,1365.67 57.8333,1364.33 58.5,1363C 57.8333,1362 57.1667,1361 56.5,1360C 58.4166,1356.44 58.7499,1352.77 57.5,1349C 57.7591,1347.74 58.4258,1346.74 59.5,1346C 58.2068,1345.51 56.8734,1345.34 55.5,1345.5C 56.4706,1340.86 57.8039,1336.36 59.5,1332C 57.311,1331.32 56.9776,1330.16 58.5,1328.5C 56.9702,1326.77 55.9702,1324.77 55.5,1322.5C 55.8178,1321.35 56.4844,1320.52 57.5,1320C 54.1586,1317.68 53.8252,1315.01 56.5,1312C 55.9828,1309.92 55.3161,1307.92 54.5,1306C 55.8333,1304.67 57.1667,1303.33 58.5,1302C 57.7539,1298.72 57.0873,1295.39 56.5,1292C 57.0542,1288.6 57.0542,1284.77 56.5,1280.5C 60.2654,1279.52 60.2654,1278.19 56.5,1276.5C 57.1667,1276.17 57.8333,1275.83 58.5,1275.5C 57.3047,1274.03 57.3047,1272.53 58.5,1271C 58.1639,1269.97 57.4972,1269.47 56.5,1269.5C 58.4997,1260.83 58.4997,1252.17 56.5,1243.5C 58.1389,1240.96 57.8056,1238.79 55.5,1237C 56.4162,1236.63 57.2496,1236.13 58,1235.5C 57.9192,1233.01 58.0859,1230.68 58.5,1228.5C 58.5926,1226.75 58.926,1224.92 59.5,1223C 58.9558,1222.28 58.2891,1221.78 57.5,1221.5C 56.9445,1217 57.6112,1212.84 59.5,1209C 58.552,1208.52 57.552,1208.35 56.5,1208.5C 56.2124,1205.2 57.2124,1202.36 59.5,1200C 58.5,1199.67 57.5,1199.33 56.5,1199C 56.9986,1196.19 57.9986,1194.36 59.5,1193.5C 56.1514,1190.96 55.8181,1188.13 58.5,1185C 57.9529,1182.63 56.9529,1180.47 55.5,1178.5C 56.376,1177.75 57.376,1177.25 58.5,1177C 57.7747,1172.71 57.108,1168.38 56.5,1164C 56.7355,1163.13 57.0688,1162.29 57.5,1161.5C 56.4101,1159.64 55.4101,1157.8 54.5,1156C 55.2551,1153.87 56.5884,1152.2 58.5,1151C 57.5,1150.67 56.5,1150.33 55.5,1150C 58.1175,1145.82 58.7842,1141.65 57.5,1137.5C 58.0906,1136.85 58.7573,1136.18 59.5,1135.5C 59.0431,1134.7 58.3764,1134.37 57.5,1134.5C 57.2302,1130.15 57.8968,1125.98 59.5,1122C 56.5178,1119.81 56.1845,1117.48 58.5,1115C 56.9226,1112.04 57.2559,1109.38 59.5,1107C 56.8333,1104.33 56.8333,1101.67 59.5,1099C 56.5178,1096.81 56.1845,1094.48 58.5,1092C 55.9299,1089.28 55.9299,1086.62 58.5,1084C 57.8333,1083.33 57.1667,1082.67 56.5,1082C 57.0681,1080.7 57.0681,1079.2 56.5,1077.5C 56.7092,1076.01 57.3759,1074.84 58.5,1074C 57.3883,1068.78 57.3883,1063.45 58.5,1058C 57.6119,1056.78 56.9452,1055.45 56.5,1054C 57.5447,1051.95 57.5447,1049.95 56.5,1048C 56.9031,1046.53 57.5697,1045.19 58.5,1044C 57.1839,1040.55 57.5172,1037.21 59.5,1034C 55.8316,1031.27 55.8316,1028.77 59.5,1026.5C 56.9422,1024.88 56.9422,1023.38 59.5,1022C 58.3279,1021.58 57.3279,1020.91 56.5,1020C 57.176,1010.37 57.176,1000.54 56.5,990.5C 57.552,990.649 58.552,990.483 59.5,990C 57.3424,988.688 57.0091,987.022 58.5,985C 57.5294,983.796 56.5294,983.296 55.5,983.5C 56.325,982.614 57.325,982.281 58.5,982.5C 58.2606,980.533 58.5939,978.699 59.5,977C 58.0699,974.945 56.7366,972.779 55.5,970.5C 55.8557,967.885 57.189,966.052 59.5,965C 56.632,962.291 55.9653,959.124 57.5,955.5C 58.6753,956.855 59.6753,956.688 60.5,955C 57.3901,952.996 56.7235,950.329 58.5,947C 58.0315,943.614 57.0315,940.447 55.5,937.5C 56.2331,934.003 56.2331,930.337 55.5,926.5C 56.122,923.63 56.7887,920.796 57.5,918C 56.8695,915.184 57.5362,912.518 59.5,910C 59.7425,907.928 59.4092,905.761 58.5,903.5C 58.9175,902.778 59.5842,902.278 60.5,902C 60.0257,900.271 59.0257,899.105 57.5,898.5C 58.5981,897.603 58.5981,896.77 57.5,896C 60.1307,894.309 59.7973,893.142 56.5,892.5C 57.2739,891.289 58.1072,891.289 59,892.5C 60.6149,890.989 60.6149,889.656 59,888.5C 58.4646,890.271 57.6313,890.604 56.5,889.5C 57.2634,888.281 58.2634,887.281 59.5,886.5C 57.1649,883.803 57.1649,881.303 59.5,879C 56.8333,877.667 56.8333,876.333 59.5,875C 58.7511,871.797 58.7511,868.463 59.5,865C 57.5049,861.335 56.5049,857.669 56.5,854C 58.9714,845.245 59.3048,836.578 57.5,828C 57.6431,825.849 58.6431,824.182 60.5,823C 59.5834,820.609 58.5834,818.276 57.5,816C 57.4947,813.837 58.4947,812.337 60.5,811.5C 58.4224,809.61 57.0891,807.276 56.5,804.5C 55.8921,801.421 56.5587,798.421 58.5,795.5C 57.3656,792.885 57.6989,790.385 59.5,788C 58.9777,787.05 58.311,786.216 57.5,785.5C 59.5442,783.932 59.8776,782.098 58.5,780C 58.9755,778.237 59.6422,776.57 60.5,775C 58.2011,772.202 58.2011,769.535 60.5,767C 57.9062,764.928 57.9062,762.761 60.5,760.5C 59.7366,759.281 58.7366,758.281 57.5,757.5C 58.0736,755.941 58.7402,754.441 59.5,753C 58.3759,752.161 57.7092,750.994 57.5,749.5C 58.8577,743.031 59.8577,736.698 60.5,730.5C 59.8333,729.833 59.1667,729.167 58.5,728.5C 59.7728,726.016 59.7728,723.516 58.5,721C 58.9054,720.055 59.572,719.388 60.5,719C 58.1993,716.997 58.1993,715.163 60.5,713.5C 57.0597,711.235 56.3931,708.568 58.5,705.5C 57.4291,703.675 58.0958,702.508 60.5,702C 59.552,701.517 58.552,701.351 57.5,701.5C 57.1601,698.856 57.8267,696.523 59.5,694.5C 57.5196,691.79 57.1862,688.957 58.5,686C 56.4873,684.209 56.4873,682.875 58.5,682C 55.5775,677.647 55.9108,673.647 59.5,670C 58.2389,666.712 58.2389,663.379 59.5,660C 59.0946,659.055 58.428,658.388 57.5,658C 57.2144,656.612 57.5477,655.112 58.5,653.5C 60.0481,653.179 60.7148,652.179 60.5,650.5C 59.0413,650.567 57.7079,650.234 56.5,649.5C 56.5608,646.95 57.8941,645.45 60.5,645C 59.8742,644.25 59.3742,643.416 59,642.5C 58.6667,642.833 58.3333,643.167 58,643.5C 57.7305,640.776 57.2305,638.109 56.5,635.5C 57.5553,628.666 57.5553,621.832 56.5,615C 58.4732,610.259 59.8065,605.259 60.5,600C 59.1667,598.667 59.1667,597.333 60.5,596C 57.8333,594.667 57.8333,593.333 60.5,592C 58.8789,587.984 58.3789,583.817 59,579.5C 59.6543,580.696 60.1543,580.696 60.5,579.5C 58.5832,578.166 57.5832,576.333 57.5,574C 59.8526,566.539 60.0193,559.039 58,551.5C 57.3457,552.696 56.8457,552.696 56.5,551.5C 57.325,550.614 58.325,550.281 59.5,550.5C 58.7459,547.744 58.7459,545.078 59.5,542.5C 59.3437,541.502 59.8437,540.502 61,539.5C 62.0391,540.71 63.2058,541.71 64.5,542.5 Z"/></g>
<g><path style="opacity:1" fill="#878175" d="M 1339.5,543.5 C 1338.04,544.737 1336.37,545.737 1334.5,546.5C 1335.05,543.916 1336.71,542.916 1339.5,543.5 Z"/></g>
<g><path style="opacity:1" fill="#958f82" d="M 1349.5,546.5 C 1349.5,547.833 1349.5,549.167 1349.5,550.5C 1347.62,550.607 1347.29,550.107 1348.5,549C 1345.67,547.092 1346,546.259 1349.5,546.5 Z"/></g>
<g><path style="opacity:1" fill="#746f65" d="M 1328.5,551.5 C 1327.07,552.537 1325.4,553.204 1323.5,553.5C 1324.55,551.744 1326.22,551.077 1328.5,551.5 Z"/></g>
<g><path style="opacity:1" fill="#817b70" d="M 82.5,553.5 C 82.8966,552.475 83.5632,552.308 84.5,553C 86.0414,554.371 87.3747,555.871 88.5,557.5C 86.2459,556.585 84.2459,555.252 82.5,553.5 Z"/></g>
<g><path style="opacity:1" fill="#716d63" d="M 92.5,560.5 C 91.209,560.737 90.209,560.404 89.5,559.5C 90.8946,558.185 91.8946,558.519 92.5,560.5 Z"/></g>
<g><path style="opacity:1" fill="#000000" d="M 128.5,562.5 C 129.833,563.167 129.833,563.167 128.5,562.5 Z"/></g>
<g><path style="opacity:1" fill="#767267" d="M 121.5,581.5 C 124.292,581.622 126.292,582.956 127.5,585.5C 125.147,584.66 123.147,583.326 121.5,581.5 Z"/></g>
<g><path style="opacity:1" fill="#777268" d="M 1348.5,579.5 C 1349.86,581.22 1350.86,583.22 1351.5,585.5C 1351.38,586.107 1351.04,586.44 1350.5,586.5C 1350.06,584.887 1349.06,583.72 1347.5,583C 1348.34,581.989 1348.67,580.822 1348.5,579.5 Z"/></g>
<g><path style="opacity:1" fill="#747065" d="M 132.5,589.5 C 134.619,589.468 135.952,590.468 136.5,592.5C 134.878,591.878 133.545,590.878 132.5,589.5 Z"/></g>
<g><path style="opacity:1" fill="#857f73" d="M 1274.5,589.5 C 1272.34,591.896 1269.68,593.563 1266.5,594.5C 1266.37,593.624 1266.7,592.957 1267.5,592.5C 1269.66,590.98 1272,589.98 1274.5,589.5 Z"/></g>
<g><path style="opacity:1" fill="#6e695f" d="M 140.5,594.5 C 143.533,596.016 146.2,598.016 148.5,600.5C 144.934,599.679 142.267,597.679 140.5,594.5 Z"/></g>
<g><path style="opacity:1" fill="#000000" d="M 191.5,607.5 C 192.833,608.167 192.833,608.167 191.5,607.5 Z"/></g>
<g><path style="opacity:1" fill="#746f65" d="M 166.5,613.5 C 168.429,613.231 170.095,613.731 171.5,615C 170.833,615.333 170.167,615.667 169.5,616C 170.416,616.278 171.082,616.778 171.5,617.5C 170.5,617.5 169.5,617.5 168.5,617.5C 168.473,615.801 167.806,614.467 166.5,613.5 Z"/></g>
<g><path style="opacity:1" fill="#736e64" d="M 177.5,622.5 C 176.778,622.082 176.278,621.416 176,620.5C 174.893,621.712 174.393,621.379 174.5,619.5C 175.222,619.082 175.722,618.416 176,617.5C 177.269,618.905 177.769,620.571 177.5,622.5 Z"/></g>
<g><path style="opacity:1" fill="#000000" d="M 208.5,620.5 C 209.833,621.167 209.833,621.167 208.5,620.5 Z"/></g>
<g><path style="opacity:1" fill="#726d63" d="M 1348.5,622.5 C 1349.83,623.167 1349.83,623.833 1348.5,624.5C 1347.87,624.12 1347.2,623.787 1346.5,623.5C 1346.96,622.702 1347.62,622.369 1348.5,622.5 Z"/></g>
<g><path style="opacity:1" fill="#504c45" d="M 1348.5,626.5 C 1349.3,628.042 1349.63,629.708 1349.5,631.5C 1347.62,631.607 1347.29,631.107 1348.5,630C 1345.93,628.651 1345.93,627.484 1348.5,626.5 Z"/></g>
<g><path style="opacity:1" fill="#666259" d="M 1215.5,630.5 C 1214.89,632.434 1213.89,634.101 1212.5,635.5C 1211.92,632.715 1212.92,631.048 1215.5,630.5 Z"/></g>
<g><path style="opacity:1" fill="#6a665c" d="M 196.5,635.5 C 194.381,635.532 193.048,634.532 192.5,632.5C 193.117,632.389 193.617,632.056 194,631.5C 195.085,632.736 195.918,634.069 196.5,635.5 Z"/></g>
<g><path style="opacity:1" fill="#767267" d="M 1349.5,633.5 C 1348.52,635.314 1348.52,636.648 1349.5,637.5C 1348.5,637.414 1347.67,637.748 1347,638.5C 1346.24,636.019 1347.07,634.353 1349.5,633.5 Z"/></g>
<g><path style="opacity:1" fill="#7d786d" d="M 208.5,644.5 C 212.097,645.115 215.431,646.449 218.5,648.5C 219.425,649.357 220.092,650.357 220.5,651.5C 216.164,649.668 212.164,647.335 208.5,644.5 Z"/></g>
<g><path style="opacity:1" fill="#7e796e" d="M 225.5,655.5 C 223.174,654.855 221.507,653.522 220.5,651.5C 223.744,650.381 225.411,651.715 225.5,655.5 Z"/></g>
<g><path style="opacity:1" fill="#6a655c" d="M 56.5,649.5 C 57.7079,650.234 59.0413,650.567 60.5,650.5C 60.7148,652.179 60.0481,653.179 58.5,653.5C 56.8235,652.817 56.1568,651.483 56.5,649.5 Z"/></g>
<g><path style="opacity:1" fill="#7c776b" d="M 1186.5,652.5 C 1184.91,655.08 1182.58,656.413 1179.5,656.5C 1181.24,654.231 1183.58,652.898 1186.5,652.5 Z"/></g>
<g><path style="opacity:1" fill="#958e81" d="M 225.5,655.5 C 228.313,655.025 230.313,656.025 231.5,658.5C 228.923,658.545 226.923,657.545 225.5,655.5 Z"/></g>
<g><path style="opacity:1" fill="#817c70" d="M 1170.5,664.5 C 1168.57,666.293 1166.24,667.293 1163.5,667.5C 1165.32,665.552 1167.65,664.552 1170.5,664.5 Z"/></g>
<g><path style="opacity:1" fill="#4a4740" d="M 259.5,679.5 C 257.447,679.598 255.78,678.931 254.5,677.5C 255.552,677.649 256.552,677.483 257.5,677C 258.833,676.333 258.833,675.667 257.5,675C 258.635,674.251 259.635,674.417 260.5,675.5C 259.754,676.736 259.421,678.07 259.5,679.5 Z"/></g>
<g><path style="opacity:1" fill="#888377" d="M 259.5,679.5 C 260.847,680.171 262.014,680.171 263,679.5C 264.627,680.532 265.793,681.866 266.5,683.5C 265.527,682.209 264.527,682.209 263.5,683.5C 262.091,682.151 260.757,680.818 259.5,679.5 Z"/></g>
<g><path style="opacity:1" fill="#746f64" d="M 1146.5,680.5 C 1144.15,683.288 1141.15,684.955 1137.5,685.5C 1139.44,683.394 1141.61,681.394 1144,679.5C 1144.67,680.252 1145.5,680.586 1146.5,680.5 Z"/></g>
<g><path style="opacity:1" fill="#979183" d="M 266.5,683.5 C 268.893,684.353 270.226,686.019 270.5,688.5C 268.413,687.415 267.08,685.749 266.5,683.5 Z"/></g>
<g><path style="opacity:1" fill="#7f7a6f" d="M 274.5,692.5 C 279.543,692.185 283.21,694.185 285.5,698.5C 281.912,696.209 278.245,694.209 274.5,692.5 Z"/></g>
<g><path style="opacity:1" fill="#777268" d="M 1128.5,693.5 C 1126.05,696.231 1123.05,698.231 1119.5,699.5C 1119.35,698.448 1119.52,697.448 1120,696.5C 1120.33,696.833 1120.67,697.167 1121,697.5C 1123.19,695.46 1125.69,694.126 1128.5,693.5 Z"/></g>
<g><path style="opacity:1" fill="#757065" d="M 1116.5,703.5 C 1115.71,704.401 1114.71,705.068 1113.5,705.5C 1113.63,702.993 1114.63,702.326 1116.5,703.5 Z"/></g>
<g><path style="opacity:1" fill="#8f897c" d="M 310.5,716.5 C 308.596,716.262 307.262,715.262 306.5,713.5C 306.435,713.062 306.601,712.728 307,712.5C 309.071,713.103 310.238,714.436 310.5,716.5 Z"/></g>
<g><path style="opacity:1" fill="#807b6f" d="M 320.5,722.5 C 322.433,722.729 324.1,723.562 325.5,725C 326.598,725.77 326.598,726.603 325.5,727.5C 323.833,725.833 322.167,724.167 320.5,722.5 Z"/></g>
<g><path style="opacity:1" fill="#9e9789" d="M 1086.5,721.5 C 1083.98,725.678 1080.31,728.345 1075.5,729.5C 1079.14,726.869 1082.81,724.203 1086.5,721.5 Z"/></g>
<g><path style="opacity:1" fill="#868074" d="M 1070.5,735.5 C 1069.71,737.104 1068.38,737.771 1066.5,737.5C 1066.79,734.519 1068.13,733.852 1070.5,735.5 Z"/></g>
<g><path style="opacity:1" fill="#969082" d="M 1051.5,747.5 C 1050.76,750.57 1048.76,752.236 1045.5,752.5C 1047.5,750.833 1049.5,749.167 1051.5,747.5 Z"/></g>
<g><path style="opacity:1" fill="#000000" d="M 1013.5,753.5 C 1012.83,752.167 1012.83,752.167 1013.5,753.5 Z"/></g>
<g><path style="opacity:1" fill="#958f82" d="M 1038.5,758.5 C 1037.87,760.997 1036.2,762.33 1033.5,762.5C 1034.94,760.937 1036.61,759.604 1038.5,758.5 Z"/></g>
<g><path style="opacity:1" fill="#000000" d="M 421.5,774.5 C 420.833,773.167 420.833,773.167 421.5,774.5 Z"/></g>
<g><path style="opacity:1" fill="#908a7d" d="M 421.5,795.5 C 424.806,797.696 428.139,799.696 431.5,801.5C 428.593,801.425 425.927,800.591 423.5,799C 422.177,798.184 421.511,797.017 421.5,795.5 Z"/></g>
<g><path style="opacity:1" fill="#938d80" d="M 988.5,793.5 C 986.027,795.143 984.027,797.31 982.5,800C 980.26,800.977 977.927,801.477 975.5,801.5C 977.277,800.4 979.277,799.566 981.5,799C 982.851,795.805 985.185,793.972 988.5,793.5 Z"/></g>
<g><path style="opacity:1" fill="#908a7d" d="M 431.5,801.5 C 433.532,802.048 434.532,803.381 434.5,805.5C 432.554,804.965 431.554,803.632 431.5,801.5 Z"/></g>
<g><path style="opacity:1" fill="#7e796d" d="M 959.5,814.5 C 958.313,816.975 956.313,817.975 953.5,817.5C 953.75,816.078 954.583,815.078 956,814.5C 956.986,815.171 958.153,815.171 959.5,814.5 Z"/></g>
<g><path style="opacity:1" fill="#8b8578" d="M 453.5,819.5 C 451.5,819.5 450.5,818.5 450.5,816.5C 452.437,815.805 453.437,816.805 453.5,819.5 Z"/></g>
<g><path style="opacity:1" fill="#807a6f" d="M 462.5,824.5 C 463.552,824.351 464.552,824.517 465.5,825C 467.194,826.935 468.861,828.769 470.5,830.5C 468.133,829.921 466.3,828.588 465,826.5C 463.692,827.151 462.859,826.485 462.5,824.5 Z"/></g>
<g><path style="opacity:1" fill="#797569" d="M 942.5,824.5 C 941.839,827.81 939.839,829.81 936.5,830.5C 938.449,828.522 940.449,826.522 942.5,824.5 Z"/></g>
<g><path style="opacity:1" fill="#847e73" d="M 499.5,851.5 C 501.75,852.13 503.75,853.13 505.5,854.5C 502.784,854.614 500.784,853.614 499.5,851.5 Z"/></g>
<g><path style="opacity:1" fill="#7c776c" d="M 505.5,854.5 C 508.179,854.525 509.512,855.858 509.5,858.5C 507.659,857.598 506.326,856.264 505.5,854.5 Z"/></g>
<g><path style="opacity:1" fill="#807b6f" d="M 899.5,855.5 C 898.971,859.033 896.971,861.367 893.5,862.5C 895.103,859.892 897.103,857.559 899.5,855.5 Z"/></g>
<g><path style="opacity:1" fill="#757166" d="M 1348.5,867.5 C 1349.83,868.5 1349.83,869.5 1348.5,870.5C 1344.94,868.717 1344.94,867.717 1348.5,867.5 Z"/></g>
<g><path style="opacity:1" fill="#6b665d" d="M 527.5,871.5 C 529.153,872.605 530.82,872.771 532.5,872C 532.167,872.333 531.833,872.667 531.5,873C 532.381,873.708 533.047,874.542 533.5,875.5C 531.147,874.66 529.147,873.326 527.5,871.5 Z"/></g>
<g><path style="opacity:1" fill="#726e64" d="M 535.5,877.5 C 537.483,877.157 538.817,877.824 539.5,879.5C 538.005,879.011 536.671,878.345 535.5,877.5 Z"/></g>
<g><path style="opacity:1" fill="#868074" d="M 543.5,883.5 C 541.833,882.5 540.5,881.167 539.5,879.5C 541.505,878.876 543.172,879.71 544.5,882C 543.944,882.383 543.611,882.883 543.5,883.5 Z"/></g>
<g><path style="opacity:1" fill="#7c776c" d="M 552.5,888.5 C 553.978,888.238 555.311,888.571 556.5,889.5C 555.209,890.527 555.209,891.527 556.5,892.5C 554.29,892.106 552.957,890.773 552.5,888.5 Z"/></g>
<g><path style="opacity:1" fill="#7e796e" d="M 57.5,898.5 C 59.0257,899.105 60.0257,900.271 60.5,902C 59.5842,902.278 58.9175,902.778 58.5,903.5C 57.7656,902.122 57.0989,900.622 56.5,899C 56.7284,898.601 57.0618,898.435 57.5,898.5 Z"/></g>
<g><path style="opacity:1" fill="#8d877b" d="M 834.5,903.5 C 833.952,906.084 832.285,907.084 829.5,906.5C 831.045,905.36 832.712,904.36 834.5,903.5 Z"/></g>
<g><path style="opacity:1" fill="#908a7d" d="M 829.5,906.5 C 828.5,908.167 827.167,909.5 825.5,910.5C 825.389,909.883 825.056,909.383 824.5,909C 826.078,907.906 827.745,907.072 829.5,906.5 Z"/></g>
<g><path style="opacity:1" fill="#888276" d="M 590.5,916.5 C 593.578,916.587 595.911,917.92 597.5,920.5C 594.669,919.921 592.336,918.588 590.5,916.5 Z"/></g>
<g><path style="opacity:1" fill="#7a756a" d="M 597.5,920.5 C 599.5,921.833 601.167,923.5 602.5,925.5C 599.648,925.064 597.981,923.397 597.5,920.5 Z"/></g>
<g><path style="opacity:1" fill="#868175" d="M 615.5,933.5 C 618.585,933.542 620.919,934.875 622.5,937.5C 623.192,936.975 623.692,936.308 624,935.5C 624.967,938.621 626.8,940.954 629.5,942.5C 624.056,940.726 619.39,937.726 615.5,933.5 Z"/></g>
<g><path style="opacity:1" fill="#807b6f" d="M 1348.5,931.5 C 1349.43,932.568 1349.77,933.901 1349.5,935.5C 1345.13,934.268 1344.8,932.934 1348.5,931.5 Z"/></g>
<g><path style="opacity:1" fill="#000000" d="M 668.5,949.5 C 669.833,950.167 669.833,950.167 668.5,949.5 Z"/></g>
<g><path style="opacity:1" fill="#000000" d="M 735.5,950.5 C 736.833,951.167 736.833,951.167 735.5,950.5 Z"/></g>
<g><path style="opacity:1" fill="#7f7a6f" d="M 647.5,956.5 C 649.619,956.468 650.952,957.468 651.5,959.5C 649.368,959.446 648.035,958.446 647.5,956.5 Z"/></g>
<g><path style="opacity:1" fill="#000000" d="M 713.5,966.5 C 712.833,965.167 712.833,965.167 713.5,966.5 Z"/></g>
<g><path style="opacity:1" fill="#7d786d" d="M 673.5,975.5 C 671.961,974.233 670.294,973.233 668.5,972.5C 669.93,972.579 671.264,972.246 672.5,971.5C 673.429,972.689 673.762,974.022 673.5,975.5 Z"/></g>
<g><path style="opacity:1" fill="#888276" d="M 738.5,972.5 C 736.706,973.233 735.039,974.233 733.5,975.5C 733.238,974.022 733.571,972.689 734.5,971.5C 735.736,972.246 737.07,972.579 738.5,972.5 Z"/></g>
<g><path style="opacity:1" fill="#979183" d="M 733.5,975.5 C 730.777,977.885 727.777,979.885 724.5,981.5C 724.821,979.952 725.821,979.285 727.5,979.5C 727.759,975.932 729.759,974.599 733.5,975.5 Z"/></g>
<g><path style="opacity:1" fill="#979183" d="M 673.5,975.5 C 677.575,975.911 680.575,977.911 682.5,981.5C 679.291,979.735 676.291,977.735 673.5,975.5 Z"/></g>
<g><path style="opacity:1" fill="#8f897c" d="M 682.5,982.5 C 683.5,982.5 684.5,982.5 685.5,982.5C 685.784,984.415 685.451,986.081 684.5,987.5C 684.608,985.486 683.942,983.82 682.5,982.5 Z"/></g>
<g><path style="opacity:1" fill="#969082" d="M 1348.5,992.5 C 1347.7,994.042 1347.37,995.708 1347.5,997.5C 1346.71,997.217 1346.04,996.717 1345.5,996C 1346.71,994.887 1346.71,993.72 1345.5,992.5C 1346.23,991.913 1347.23,991.913 1348.5,992.5 Z"/></g>
<g><path style="opacity:1" fill="#918b7f" d="M 728.5,990.5 C 731.198,990.845 733.198,992.178 734.5,994.5C 732.147,993.66 730.147,992.326 728.5,990.5 Z"/></g>
<g><path style="opacity:1" fill="#f5ebd5" d="M 705.5,998.5 C 707.728,999.377 709.728,1000.71 711.5,1002.5C 712.209,1003.4 713.209,1003.74 714.5,1003.5C 716.123,1006.49 718.457,1008.82 721.5,1010.5C 722.167,1010.83 722.833,1011.17 723.5,1011.5C 724.67,1013.28 726.336,1014.28 728.5,1014.5C 732.27,1016.77 735.603,1019.6 738.5,1023C 744.513,1023.82 748.846,1026.82 751.5,1032C 753.653,1032.1 755.319,1032.93 756.5,1034.5C 757.262,1036.26 758.596,1037.26 760.5,1037.5C 763.559,1038.91 766.225,1040.91 768.5,1043.5C 770.06,1045.43 772.06,1046.76 774.5,1047.5C 780.656,1052.08 786.989,1056.41 793.5,1060.5C 793.894,1062.71 795.227,1064.04 797.5,1064.5C 798.542,1065.79 799.708,1065.79 801,1064.5C 802.039,1065.71 803.206,1066.71 804.5,1067.5C 805.699,1070.69 808.032,1072.36 811.5,1072.5C 814.408,1074.78 817.075,1077.28 819.5,1080C 820.833,1080.33 822.167,1080.67 823.5,1081C 822.828,1082.58 823.495,1083.75 825.5,1084.5C 828.97,1086.32 832.303,1088.32 835.5,1090.5C 837.121,1093.74 839.788,1095.74 843.5,1096.5C 844.853,1098.18 846.52,1099.52 848.5,1100.5C 849.873,1102.21 851.539,1103.54 853.5,1104.5C 856.713,1106.68 860.046,1108.68 863.5,1110.5C 864.833,1113.35 867.166,1115.02 870.5,1115.5C 873.455,1117.12 876.122,1119.12 878.5,1121.5C 880.684,1124.68 883.684,1126.68 887.5,1127.5C 889.973,1127.09 891.306,1128.09 891.5,1130.5C 892.27,1132.94 893.937,1134.27 896.5,1134.5C 900.604,1136.68 904.437,1139.35 908,1142.5C 908.333,1142.17 908.667,1141.83 909,1141.5C 911.028,1145.08 914.528,1147.58 919.5,1149C 923.749,1154.08 928.749,1158.25 934.5,1161.5C 934.81,1163.14 935.81,1164.14 937.5,1164.5C 941.777,1166.78 945.777,1169.45 949.5,1172.5C 950.911,1174.91 952.911,1176.58 955.5,1177.5C 956.791,1177.26 957.791,1177.6 958.5,1178.5C 959.048,1181.08 960.715,1182.08 963.5,1181.5C 964.404,1182.21 964.737,1183.21 964.5,1184.5C 967.468,1184.63 969.468,1186.13 970.5,1189C 973.324,1191.08 976.324,1192.58 979.5,1193.5C 981.519,1195.19 983.519,1196.86 985.5,1198.5C 989.09,1200.49 992.757,1202.49 996.5,1204.5C 997.262,1205.63 997.929,1206.79 998.5,1208C 1003.09,1210.36 1006.92,1213.53 1010,1217.5C 1011.36,1216.74 1012.53,1217.24 1013.5,1219C 1014.83,1219.33 1016.17,1219.67 1017.5,1220C 1020.88,1225.34 1025.55,1228.84 1031.5,1230.5C 1031.83,1231.5 1032.5,1232.17 1033.5,1232.5C 1033.84,1233.34 1034.51,1233.67 1035.5,1233.5C 1035.91,1234.64 1036.57,1235.64 1037.5,1236.5C 1040.67,1237.59 1043.67,1238.92 1046.5,1240.5C 1046.5,1242.5 1047.5,1243.5 1049.5,1243.5C 1051.22,1245.69 1053.56,1246.86 1056.5,1247C 1059.05,1251.94 1063.05,1254.94 1068.5,1256C 1068.17,1256.33 1067.83,1256.67 1067.5,1257C 1072.65,1261.14 1078.32,1264.47 1084.5,1267C 1085.08,1268.3 1085.75,1269.47 1086.5,1270.5C 1087.58,1272.59 1089.25,1273.92 1091.5,1274.5C 1096.78,1276.27 1101.11,1279.43 1104.5,1284C 1108.13,1287.13 1112.13,1289.63 1116.5,1291.5C 1117.03,1293.45 1118.37,1294.45 1120.5,1294.5C 1121.17,1294.83 1121.83,1295.17 1122.5,1295.5C 1123.29,1298.62 1125.29,1300.29 1128.5,1300.5C 1129.29,1301.79 1130.29,1302.96 1131.5,1304C 1141.39,1307.97 1150.06,1313.97 1157.5,1322C 1161.27,1324.22 1165.27,1325.89 1169.5,1327C 1172.16,1328.48 1173.83,1330.65 1174.5,1333.5C 1176.93,1333.52 1179.26,1334.02 1181.5,1335C 1183.15,1337.97 1185.15,1340.64 1187.5,1343C 1191.4,1344.57 1194.73,1346.91 1197.5,1350C 1199.71,1351.04 1202.05,1351.71 1204.5,1352C 1206.58,1353.49 1207.91,1355.49 1208.5,1358C 1214.62,1362.57 1220.96,1366.9 1227.5,1371C 1229.17,1371.33 1230.83,1371.67 1232.5,1372C 1232.17,1372.33 1231.83,1372.67 1231.5,1373C 1233.43,1375.3 1235.76,1377.14 1238.5,1378.5C 1239.09,1378.29 1239.59,1377.96 1240,1377.5C 1242.12,1381.39 1245.28,1384.06 1249.5,1385.5C 1252.91,1389.61 1257.24,1392.44 1262.5,1394C 1264.74,1395.41 1266.41,1397.24 1267.5,1399.5C 1268.54,1401.53 1270.21,1402.86 1272.5,1403.5C 1274.89,1405.18 1277.55,1406.51 1280.5,1407.5C 1281.33,1409.26 1282.66,1410.6 1284.5,1411.5C 1287.49,1414.48 1290.83,1417.15 1294.5,1419.5C 1296.76,1420.8 1299.09,1421.8 1301.5,1422.5C 1301.29,1424.18 1301.95,1425.18 1303.5,1425.5C 1304.5,1426.5 1305.5,1427.5 1306.5,1428.5C 1309.78,1430.14 1313.11,1431.81 1316.5,1433.5C 1319.91,1437.75 1324.25,1440.58 1329.5,1442C 1331.5,1444 1333.5,1446 1335.5,1448C 1333.42,1448.53 1331.58,1448.03 1330,1446.5C 1323.55,1446.8 1317.05,1446.8 1310.5,1446.5C 1308.05,1446.98 1305.88,1447.98 1304,1449.5C 1300.83,1447.39 1297.33,1446.39 1293.5,1446.5C 1289.91,1447.27 1286.41,1447.27 1283,1446.5C 1281,1447.17 1279,1447.83 1277,1448.5C 1273,1445.83 1269,1445.83 1265,1448.5C 1263.15,1446.22 1261.48,1446.22 1260,1448.5C 1259.59,1448.04 1259.09,1447.71 1258.5,1447.5C 1257.45,1448.38 1256.29,1449.05 1255,1449.5C 1252.07,1448.58 1249.24,1447.58 1246.5,1446.5C 1243.92,1447.23 1241.42,1448.23 1239,1449.5C 1235.92,1448.95 1232.59,1448.29 1229,1447.5C 1226.74,1447.44 1224.74,1448.11 1223,1449.5C 1218.91,1445.96 1214.57,1445.63 1210,1448.5C 1208.71,1448.05 1207.55,1447.38 1206.5,1446.5C 1201.57,1446.64 1196.74,1446.64 1192,1446.5C 1191.52,1447.45 1191.35,1448.45 1191.5,1449.5C 1189,1449.02 1186.66,1448.02 1184.5,1446.5C 1181.61,1447.01 1178.94,1448.01 1176.5,1449.5C 1172.46,1447.51 1168.3,1447.51 1164,1449.5C 1160.31,1448.45 1156.64,1447.45 1153,1446.5C 1149.45,1447.2 1145.95,1448.2 1142.5,1449.5C 1139.51,1449.28 1136.85,1448.28 1134.5,1446.5C 1133.32,1448.65 1131.82,1448.65 1130,1446.5C 1128.75,1447.57 1127.42,1447.57 1126,1446.5C 1120.93,1448.23 1115.93,1449.23 1111,1449.5C 1108.54,1448.05 1105.88,1447.05 1103,1446.5C 1100.45,1447.78 1097.95,1447.78 1095.5,1446.5C 1093.17,1447.17 1090.83,1447.83 1088.5,1448.5C 1083.29,1448.57 1078.12,1448.24 1073,1447.5C 1070,1449.96 1067.17,1449.63 1064.5,1446.5C 1054.78,1446.84 1044.78,1447.51 1034.5,1448.5C 1029.46,1446.65 1024.29,1446.65 1019,1448.5C 1013.94,1447.34 1008.94,1447.34 1004,1448.5C 1003.33,1447.83 1002.67,1447.17 1002,1446.5C 997.668,1450.13 993.001,1450.46 988,1447.5C 980.887,1448.41 973.887,1448.74 967,1448.5C 964.204,1447.79 961.37,1447.12 958.5,1446.5C 954.153,1449.42 949.486,1450.75 944.5,1450.5C 939.905,1449.35 935.238,1448.51 930.5,1448C 921.119,1447.81 911.786,1447.31 902.5,1446.5C 901.452,1447.38 900.285,1448.05 899,1448.5C 894.066,1447.83 889.233,1447.49 884.5,1447.5C 882.074,1447.4 879.907,1448.07 878,1449.5C 875.333,1449.5 872.667,1449.5 870,1449.5C 869.292,1448.62 868.458,1447.95 867.5,1447.5C 864.455,1448.2 861.455,1448.53 858.5,1448.5C 857.85,1448.8 857.183,1449.14 856.5,1449.5C 854.465,1447.99 852.131,1447.32 849.5,1447.5C 842.552,1449.49 835.552,1450.15 828.5,1449.5C 826.5,1448.83 824.5,1448.17 822.5,1447.5C 817.259,1447.59 812.092,1447.59 807,1447.5C 803.216,1449.72 799.216,1450.05 795,1448.5C 789.759,1451.44 784.759,1451.1 780,1447.5C 769.23,1447.71 758.23,1447.71 747,1447.5C 745.667,1448.17 744.333,1448.83 743,1449.5C 737.53,1448.43 731.864,1448.43 726,1449.5C 724.105,1449.39 722.438,1448.72 721,1447.5C 718.463,1447.59 715.963,1447.59 713.5,1447.5C 711.689,1448.74 709.689,1449.41 707.5,1449.5C 704.131,1448.38 700.798,1448.38 697.5,1449.5C 693.241,1447.25 689.074,1447.25 685,1449.5C 683.559,1448.74 682.059,1448.07 680.5,1447.5C 675.572,1449.81 670.738,1449.81 666,1447.5C 661.381,1450.09 656.714,1450.09 652,1447.5C 647.605,1449.98 643.272,1449.98 639,1447.5C 637.196,1449.42 635.196,1449.75 633,1448.5C 632.055,1448.91 631.388,1449.57 631,1450.5C 625.872,1449.94 620.539,1449.28 615,1448.5C 612.578,1448.48 610.412,1449.15 608.5,1450.5C 606.896,1450.06 605.396,1449.39 604,1448.5C 602.297,1449.7 600.797,1449.37 599.5,1447.5C 596.474,1448.07 593.641,1449.07 591,1450.5C 587.621,1450.4 584.287,1450.4 581,1450.5C 579.915,1449.71 578.748,1449.04 577.5,1448.5C 572.681,1449.19 567.848,1449.86 563,1450.5C 556.47,1450.05 549.803,1450.05 543,1450.5C 541.445,1448.85 539.779,1448.52 538,1449.5C 537.333,1448.83 536.667,1448.17 536,1447.5C 532.024,1450.78 527.857,1451.11 523.5,1448.5C 522.148,1449.9 520.481,1450.56 518.5,1450.5C 516.235,1449.66 514.068,1449.66 512,1450.5C 510.261,1449.11 508.261,1448.44 506,1448.5C 502.196,1449.2 498.363,1449.54 494.5,1449.5C 493.828,1448.73 492.995,1448.07 492,1447.5C 491.481,1448.52 490.647,1449.18 489.5,1449.5C 488.151,1449.15 486.817,1448.82 485.5,1448.5C 481.878,1448.87 478.378,1448.87 475,1448.5C 474.333,1449.17 473.667,1449.83 473,1450.5C 468.36,1450.42 463.694,1450.42 459,1450.5C 457.173,1449.34 455.507,1448.01 454,1446.5C 448.919,1448.87 443.752,1450.21 438.5,1450.5C 436.588,1449.15 434.422,1448.48 432,1448.5C 429,1449.83 426,1449.83 423,1448.5C 419.327,1448.63 415.994,1449.63 413,1451.5C 410.121,1450.29 407.287,1450.29 404.5,1451.5C 403.719,1450.26 402.719,1449.26 401.5,1448.5C 398.684,1447.87 396.018,1448.54 393.5,1450.5C 392.148,1449.1 390.481,1448.44 388.5,1448.5C 384.686,1449.59 380.853,1449.59 377,1448.5C 374.391,1448.37 372.058,1449.04 370,1450.5C 366.85,1449.02 363.517,1448.36 360,1448.5C 352.474,1449.74 344.974,1450.74 337.5,1451.5C 334.963,1451.56 332.963,1450.56 331.5,1448.5C 326.778,1448.75 321.944,1449.42 317,1450.5C 307.202,1448.84 297.369,1448.17 287.5,1448.5C 285.085,1449.31 282.751,1450.31 280.5,1451.5C 274.843,1448.89 269.176,1448.55 263.5,1450.5C 262.522,1450.02 261.689,1449.36 261,1448.5C 257.107,1448.66 253.107,1449.32 249,1450.5C 246.724,1449.85 244.558,1449.85 242.5,1450.5C 240.979,1449.06 239.145,1448.4 237,1448.5C 233.717,1449.91 230.217,1450.57 226.5,1450.5C 221.14,1449.75 215.806,1449.42 210.5,1449.5C 208.941,1450.07 207.441,1450.74 206,1451.5C 203.63,1449.88 200.964,1448.88 198,1448.5C 196.739,1448.76 195.739,1449.43 195,1450.5C 188.257,1450.41 181.424,1449.74 174.5,1448.5C 169.483,1448.93 164.65,1449.93 160,1451.5C 155.522,1448.25 150.855,1447.92 146,1450.5C 141.207,1450.85 136.374,1450.19 131.5,1448.5C 129.226,1448.97 127.226,1449.97 125.5,1451.5C 124.059,1450.7 122.559,1450.03 121,1449.5C 118.09,1448.95 115.257,1449.62 112.5,1451.5C 107.941,1449.41 103.441,1449.75 99,1452.5C 96.6566,1451.87 94.4899,1450.87 92.5,1449.5C 89.4258,1450.8 86.4258,1451.13 83.5,1450.5C 80.9387,1449.23 78.272,1449.23 75.5,1450.5C 75.0623,1449.49 74.3957,1449.49 73.5,1450.5C 72.6236,1450.63 71.9569,1450.3 71.5,1449.5C 72.1925,1448.48 72.8592,1447.48 73.5,1446.5C 75.6458,1442.61 78.9791,1440.44 83.5,1440C 88.001,1436.67 92.6677,1433.67 97.5,1431C 99.2429,1429.89 100.576,1428.39 101.5,1426.5C 102.736,1425.75 104.07,1425.42 105.5,1425.5C 105.5,1424.5 105.5,1423.5 105.5,1422.5C 107.908,1421.8 110.242,1420.8 112.5,1419.5C 115.51,1417.33 118.51,1415.16 121.5,1413C 122.293,1411.91 122.96,1410.75 123.5,1409.5C 127.427,1407.71 131.094,1405.71 134.5,1403.5C 136.48,1402.52 138.147,1401.18 139.5,1399.5C 141.301,1397.86 142.967,1396.03 144.5,1394C 146.608,1393.64 148.608,1392.97 150.5,1392C 150.167,1391.67 149.833,1391.33 149.5,1391C 150.833,1390.67 152.167,1390.33 153.5,1390C 155.759,1386.05 159.092,1383.88 163.5,1383.5C 166.06,1381.73 168.393,1379.73 170.5,1377.5C 170.5,1376.17 171.167,1375.5 172.5,1375.5C 173.5,1375.17 174.167,1374.5 174.5,1373.5C 178.824,1371.15 183.157,1368.49 187.5,1365.5C 189.264,1364.67 190.598,1363.34 191.5,1361.5C 193.411,1360.92 195.078,1359.92 196.5,1358.5C 199.37,1357.92 201.037,1356.26 201.5,1353.5C 207.535,1350.35 213.535,1346.85 219.5,1343C 221.203,1340.83 222.87,1338.66 224.5,1336.5C 227.176,1335.49 229.843,1334.49 232.5,1333.5C 232.5,1332.5 232.5,1331.5 232.5,1330.5C 233.833,1329.83 235.167,1329.17 236.5,1328.5C 239.621,1328.26 241.954,1326.93 243.5,1324.5C 244.833,1324.5 245.5,1323.83 245.5,1322.5C 247.403,1322.2 249.07,1321.54 250.5,1320.5C 252.54,1318.82 254.54,1317.16 256.5,1315.5C 258.041,1314.33 259.375,1313 260.5,1311.5C 262.698,1311.88 264.365,1311.21 265.5,1309.5C 265.833,1309.5 266.167,1309.5 266.5,1309.5C 268.5,1308.83 269.833,1307.5 270.5,1305.5C 271.901,1305.03 273.234,1304.36 274.5,1303.5C 274.291,1302.91 273.957,1302.41 273.5,1302C 277.94,1301.95 281.273,1300.12 283.5,1296.5C 286.469,1295.53 288.802,1293.87 290.5,1291.5C 293.561,1290.03 296.561,1288.36 299.5,1286.5C 300.386,1285.68 300.719,1284.68 300.5,1283.5C 302.484,1283.62 304.15,1282.95 305.5,1281.5C 306.364,1279.8 307.697,1278.64 309.5,1278C 309.167,1277.67 308.833,1277.33 308.5,1277C 310.65,1275.59 312.984,1274.76 315.5,1274.5C 316.5,1274.5 317.5,1274.5 318.5,1274.5C 318.527,1272.8 319.194,1271.47 320.5,1270.5C 322.383,1265.9 325.717,1263.9 330.5,1264.5C 336.29,1258.7 342.623,1253.7 349.5,1249.5C 352.25,1248.37 354.583,1246.7 356.5,1244.5C 359.51,1242.65 362.176,1240.31 364.5,1237.5C 367.76,1236.23 370.76,1234.56 373.5,1232.5C 373.12,1228.84 374.453,1227.84 377.5,1229.5C 382.451,1228.39 386.118,1225.55 388.5,1221C 390.491,1220.63 392.158,1219.79 393.5,1218.5C 396.367,1218.63 398.033,1217.3 398.5,1214.5C 399.222,1213.45 400.222,1212.78 401.5,1212.5C 405.108,1212.54 407.441,1210.87 408.5,1207.5C 409.837,1206.69 410.837,1205.52 411.5,1204C 414.8,1202.43 417.8,1200.59 420.5,1198.5C 421.93,1198.58 423.264,1198.25 424.5,1197.5C 425.882,1195.45 427.548,1193.78 429.5,1192.5C 430.609,1191.71 431.942,1191.21 433.5,1191C 436.769,1187.57 440.103,1184.41 443.5,1181.5C 446.036,1180.96 448.036,1179.63 449.5,1177.5C 451.011,1176.5 452.678,1175.83 454.5,1175.5C 455.5,1174.5 456.5,1173.5 457.5,1172.5C 461.318,1169.02 465.652,1166.35 470.5,1164.5C 472.201,1163.79 473.201,1162.46 473.5,1160.5C 477.392,1158.94 480.725,1156.6 483.5,1153.5C 485.795,1152.53 487.795,1151.19 489.5,1149.5C 491.605,1148.13 493.939,1147.13 496.5,1146.5C 497.154,1144.88 497.654,1143.22 498,1141.5C 498.333,1141.83 498.667,1142.17 499,1142.5C 507.516,1136.34 516.016,1130.34 524.5,1124.5C 526.619,1124.53 527.952,1123.53 528.5,1121.5C 529.568,1120.57 530.901,1120.23 532.5,1120.5C 532.351,1119.45 532.517,1118.45 533,1117.5C 534.876,1116.39 536.709,1115.39 538.5,1114.5C 541.292,1114.38 543.292,1113.04 544.5,1110.5C 550.317,1107.61 555.317,1103.77 559.5,1099C 562.864,1097.32 566.198,1095.65 569.5,1094C 571.07,1091.14 573.07,1088.64 575.5,1086.5C 580.145,1086.17 583.811,1084.17 586.5,1080.5C 588.196,1079.17 589.862,1077.83 591.5,1076.5C 591.973,1075.09 592.973,1074.43 594.5,1074.5C 598.283,1073.95 600.95,1071.95 602.5,1068.5C 602.953,1067.54 603.619,1066.71 604.5,1066C 606.382,1065.8 608.048,1065.3 609.5,1064.5C 611.749,1063.92 613.415,1062.59 614.5,1060.5C 615.5,1060.17 616.167,1059.5 616.5,1058.5C 618.967,1058.25 620.967,1057.25 622.5,1055.5C 625.04,1052.98 627.707,1050.48 630.5,1048C 636.138,1044.77 641.471,1041.27 646.5,1037.5C 649.004,1036.42 651.337,1035.08 653.5,1033.5C 656.087,1031.3 658.42,1028.8 660.5,1026C 663.06,1025.62 665.394,1024.78 667.5,1023.5C 668.955,1021.87 670.622,1020.53 672.5,1019.5C 673.579,1017.46 675.246,1016.12 677.5,1015.5C 679.94,1014.76 681.94,1013.43 683.5,1011.5C 686.407,1006.62 690.74,1003.62 696.5,1002.5C 698.433,998.993 701.433,997.659 705.5,998.5 Z"/></g>
<g><path style="opacity:1" fill="#767167" d="M 669.5,998.5 C 667.815,1000.82 665.481,1001.82 662.5,1001.5C 664.426,999.707 666.759,998.707 669.5,998.5 Z"/></g>
<g><path style="opacity:1" fill="#5c5850" d="M 705.5,998.5 C 708.346,998.03 710.679,998.863 712.5,1001C 711.944,1001.38 711.611,1001.88 711.5,1002.5C 709.728,1000.71 707.728,999.377 705.5,998.5 Z"/></g>
<g><path style="opacity:1" fill="#979183" d="M 714.5,1003.5 C 717.833,1004.83 720.167,1007.17 721.5,1010.5C 718.457,1008.82 716.123,1006.49 714.5,1003.5 Z"/></g>
<g><path style="opacity:1" fill="#7f796e" d="M 754.5,1009.5 C 757.364,1010.97 760.031,1012.63 762.5,1014.5C 761.178,1014.33 760.011,1014.66 759,1015.5C 757.248,1013.65 755.748,1011.65 754.5,1009.5 Z"/></g>
<g><path style="opacity:1" fill="#777267" d="M 728.5,1014.5 C 726.336,1014.28 724.67,1013.28 723.5,1011.5C 724.496,1011.59 725.329,1011.25 726,1010.5C 726.231,1012.16 727.065,1013.49 728.5,1014.5 Z"/></g>
<g><path style="opacity:1" fill="#7b766b" d="M 683.5,1011.5 C 681.94,1013.43 679.94,1014.76 677.5,1015.5C 677.821,1013.95 678.821,1013.29 680.5,1013.5C 680.351,1012.45 680.517,1011.45 681,1010.5C 681.671,1011.25 682.504,1011.59 683.5,1011.5 Z"/></g>
<g><path style="opacity:1" fill="#7e796e" d="M 651.5,1009.5 C 650.987,1011.85 649.821,1013.85 648,1015.5C 647.586,1015.04 647.086,1014.71 646.5,1014.5C 643.885,1016.97 640.885,1018.64 637.5,1019.5C 641.945,1015.7 646.612,1012.37 651.5,1009.5 Z"/></g>
<g><path style="opacity:1" fill="#5c584f" d="M 672.5,1019.5 C 670.622,1020.53 668.955,1021.87 667.5,1023.5C 667.787,1020.52 669.454,1019.18 672.5,1019.5 Z"/></g>
<g><path style="opacity:1" fill="#736e64" d="M 625.5,1027.5 C 625.027,1028.91 624.027,1029.57 622.5,1029.5C 622.973,1028.09 623.973,1027.43 625.5,1027.5 Z"/></g>
<g><path style="opacity:1" fill="#878276" d="M 622.5,1029.5 C 621.477,1033.19 619.144,1035.52 615.5,1036.5C 617.046,1034.35 618.712,1032.18 620.5,1030C 621.094,1029.54 621.761,1029.37 622.5,1029.5 Z"/></g>
<g><path style="opacity:1" fill="#938d80" d="M 653.5,1033.5 C 651.337,1035.08 649.004,1036.42 646.5,1037.5C 647.171,1036.15 647.171,1034.99 646.5,1034C 648.776,1034.57 651.109,1034.41 653.5,1033.5 Z"/></g>
<g><path style="opacity:1" fill="#847f73" d="M 756.5,1034.5 C 758.973,1034.09 760.306,1035.09 760.5,1037.5C 758.596,1037.26 757.262,1036.26 756.5,1034.5 Z"/></g>
<g><path style="opacity:1" fill="#888276" d="M 787.5,1032.5 C 790.522,1033.52 792.522,1035.52 793.5,1038.5C 792.118,1037.2 790.452,1036.37 788.5,1036C 787.663,1034.99 787.33,1033.82 787.5,1032.5 Z"/></g>
<g><path style="opacity:1" fill="#7c776c" d="M 1348.5,1037.5 C 1348.5,1039.83 1348.5,1042.17 1348.5,1044.5C 1347.88,1044.61 1347.38,1044.94 1347,1045.5C 1344.71,1042.1 1345.21,1039.44 1348.5,1037.5 Z"/></g>
<g><path style="opacity:1" fill="#706b61" d="M 793.5,1038.5 C 796.326,1039 798.66,1040.33 800.5,1042.5C 797.414,1042.4 795.081,1041.07 793.5,1038.5 Z"/></g>
<g><path style="opacity:1" fill="#736e64" d="M 613.5,1038.5 C 611.974,1041.89 609.307,1043.23 605.5,1042.5C 608.148,1041.18 610.814,1039.84 613.5,1038.5 Z"/></g>
<g><path style="opacity:1" fill="#6c685e" d="M 774.5,1047.5 C 772.06,1046.76 770.06,1045.43 768.5,1043.5C 769.222,1043.08 769.722,1042.42 770,1041.5C 771.762,1043.38 773.262,1045.38 774.5,1047.5 Z"/></g>
<g><path style="opacity:1" fill="#615d54" d="M 596.5,1049.5 C 595.656,1051.76 593.989,1052.76 591.5,1052.5C 592.899,1051.11 594.566,1050.11 596.5,1049.5 Z"/></g>
<g><path style="opacity:1" fill="#5d5a51" d="M 586.5,1056.5 C 584.819,1058.01 582.819,1059.01 580.5,1059.5C 581.911,1057.46 583.911,1056.46 586.5,1056.5 Z"/></g>
<g><path style="opacity:1" fill="#898477" d="M 622.5,1055.5 C 620.967,1057.25 618.967,1058.25 616.5,1058.5C 618.033,1056.75 620.033,1055.75 622.5,1055.5 Z"/></g>
<g><path style="opacity:1" fill="#7a756a" d="M 793.5,1060.5 C 795.5,1061.17 796.833,1062.5 797.5,1064.5C 795.227,1064.04 793.894,1062.71 793.5,1060.5 Z"/></g>
<g><path style="opacity:1" fill="#969083" d="M 614.5,1060.5 C 613.415,1062.59 611.749,1063.92 609.5,1064.5C 610.353,1062.11 612.019,1060.77 614.5,1060.5 Z"/></g>
<g><path style="opacity:1" fill="#898377" d="M 579.5,1061.5 C 579.489,1063.02 578.823,1064.18 577.5,1065C 575.751,1065.78 574.084,1066.62 572.5,1067.5C 572.414,1066.5 572.748,1065.67 573.5,1065C 575.405,1063.58 577.405,1062.41 579.5,1061.5 Z"/></g>
<g><path style="opacity:1" fill="#a19a8c" d="M 827.5,1061.5 C 829.595,1062.41 831.595,1063.58 833.5,1065C 834.252,1065.67 834.586,1066.5 834.5,1067.5C 832.916,1066.62 831.249,1065.78 829.5,1065C 828.177,1064.18 827.511,1063.02 827.5,1061.5 Z"/></g>
<g><path style="opacity:1" fill="#7b766b" d="M 811.5,1072.5 C 808.032,1072.36 805.699,1070.69 804.5,1067.5C 805.117,1067.39 805.617,1067.06 806,1066.5C 807.36,1069.02 809.193,1071.02 811.5,1072.5 Z"/></g>
<g><path style="opacity:1" fill="#7d776c" d="M 602.5,1068.5 C 600.95,1071.95 598.283,1073.95 594.5,1074.5C 595.36,1072.39 597.027,1071.22 599.5,1071C 599.167,1070.67 598.833,1070.33 598.5,1070C 599.667,1069.5 600.5,1068.67 601,1067.5C 601.383,1068.06 601.883,1068.39 602.5,1068.5 Z"/></g>
<g><path style="opacity:1" fill="#6a665d" d="M 591.5,1076.5 C 589.862,1077.83 588.196,1079.17 586.5,1080.5C 586.5,1079.5 586.5,1078.5 586.5,1077.5C 588.216,1077.37 589.883,1077.04 591.5,1076.5 Z"/></g>
<g><path style="opacity:1" fill="#8d877a" d="M 849.5,1076.5 C 851.549,1077.88 853.215,1079.55 854.5,1081.5C 852.146,1080.99 850.146,1079.82 848.5,1078C 849.056,1077.62 849.389,1077.12 849.5,1076.5 Z"/></g>
<g><path style="opacity:1" fill="#827c71" d="M 854.5,1081.5 C 857.205,1082.85 859.872,1084.19 862.5,1085.5C 860.215,1086.55 857.882,1086.55 855.5,1085.5C 855.567,1084.04 855.234,1082.71 854.5,1081.5 Z"/></g>
<g><path style="opacity:1" fill="#898377" d="M 825.5,1084.5 C 827.752,1085.33 829.919,1085.33 832,1084.5C 833.442,1086.39 834.609,1088.39 835.5,1090.5C 832.303,1088.32 828.97,1086.32 825.5,1084.5 Z"/></g>
<g><path style="opacity:1" fill="#69655c" d="M 870.5,1093.5 C 873.132,1094.33 875.798,1095.16 878.5,1096C 879.252,1096.67 879.586,1097.5 879.5,1098.5C 878.265,1098.28 877.265,1097.61 876.5,1096.5C 875.158,1097.9 874.324,1097.57 874,1095.5C 872.215,1096.35 871.049,1095.69 870.5,1093.5 Z"/></g>
<g><path style="opacity:1" fill="#8b8579" d="M 843.5,1096.5 C 846.367,1096.37 848.033,1097.7 848.5,1100.5C 846.52,1099.52 844.853,1098.18 843.5,1096.5 Z"/></g>
<g><path style="opacity:1" fill="#8c867a" d="M 1347.5,1098.5 C 1348.95,1099.62 1349.95,1101.12 1350.5,1103C 1349.91,1103.46 1349.24,1103.63 1348.5,1103.5C 1348.05,1102.54 1347.38,1101.71 1346.5,1101C 1347.25,1100.33 1347.59,1099.5 1347.5,1098.5 Z"/></g>
<g><path style="opacity:1" fill="#726d63" d="M 848.5,1100.5 C 851.063,1100.73 852.73,1102.06 853.5,1104.5C 851.539,1103.54 849.873,1102.21 848.5,1100.5 Z"/></g>
<g><path style="opacity:1" fill="#908a7d" d="M 885.5,1103.5 C 887.664,1103.72 889.33,1104.72 890.5,1106.5C 888.067,1106.73 886.401,1105.73 885.5,1103.5 Z"/></g>
<g><path style="opacity:1" fill="#787368" d="M 1347.5,1108.5 C 1348.83,1110.17 1348.83,1111.83 1347.5,1113.5C 1347.67,1111.51 1347,1109.84 1345.5,1108.5C 1345.97,1107.54 1346.64,1107.54 1347.5,1108.5 Z"/></g>
<g><path style="opacity:1" fill="#7f7a6f" d="M 544.5,1110.5 C 543.292,1113.04 541.292,1114.38 538.5,1114.5C 540.223,1112.78 542.223,1111.45 544.5,1110.5 Z"/></g>
<g><path style="opacity:1" fill="#898477" d="M 863.5,1110.5 C 865.433,1112.06 867.433,1112.56 869.5,1112C 869.167,1112.33 868.833,1112.67 868.5,1113C 869.381,1113.71 870.047,1114.54 870.5,1115.5C 867.166,1115.02 864.833,1113.35 863.5,1110.5 Z"/></g>
<g><path style="opacity:1" fill="#757065" d="M 499.5,1118.5 C 497.853,1120.33 495.853,1121.66 493.5,1122.5C 494.802,1120.18 496.802,1118.84 499.5,1118.5 Z"/></g>
<g><path style="opacity:1" fill="#726d63" d="M 528.5,1121.5 C 527.952,1123.53 526.619,1124.53 524.5,1124.5C 525.048,1122.47 526.381,1121.47 528.5,1121.5 Z"/></g>
<g><path style="opacity:1" fill="#928c7f" d="M 907.5,1119.5 C 909.544,1120.51 911.544,1121.51 913.5,1122.5C 912.883,1122.61 912.383,1122.94 912,1123.5C 909.882,1122.72 908.382,1121.38 907.5,1119.5 Z"/></g>
<g><path style="opacity:1" fill="#7b766b" d="M 887.5,1127.5 C 883.684,1126.68 880.684,1124.68 878.5,1121.5C 879.117,1121.39 879.617,1121.06 880,1120.5C 882.131,1123.44 884.631,1125.77 887.5,1127.5 Z"/></g>
<g><path style="opacity:1" fill="#807a6f" d="M 891.5,1130.5 C 892.75,1130.58 893.583,1131.24 894,1132.5C 895.308,1131.85 896.141,1132.52 896.5,1134.5C 893.937,1134.27 892.27,1132.94 891.5,1130.5 Z"/></g>
<g><path style="opacity:1" fill="#918b7e" d="M 57.5,1134.5 C 58.3764,1134.37 59.0431,1134.7 59.5,1135.5C 58.7573,1136.18 58.0906,1136.85 57.5,1137.5C 56.6236,1137.63 55.9569,1137.3 55.5,1136.5C 56.2427,1135.82 56.9094,1135.15 57.5,1134.5 Z"/></g>
<g><path style="opacity:1" fill="#868074" d="M 929.5,1135.5 C 938.073,1140.09 946.073,1145.42 953.5,1151.5C 948.595,1149.89 943.928,1147.89 939.5,1145.5C 939.5,1144.5 939.5,1143.5 939.5,1142.5C 935.386,1141.2 932.053,1138.87 929.5,1135.5 Z"/></g>
<g><path style="opacity:1" fill="#57544c" d="M 463.5,1144.5 C 463.043,1146.77 461.71,1148.11 459.5,1148.5C 459.833,1146.17 461.167,1144.83 463.5,1144.5 Z"/></g>
<g><path style="opacity:1" fill="#969083" d="M 458.5,1148.5 C 457.7,1150.74 456.034,1151.74 453.5,1151.5C 454.401,1149.27 456.067,1148.27 458.5,1148.5 Z"/></g>
<g><path style="opacity:1" fill="#777267" d="M 489.5,1149.5 C 487.795,1151.19 485.795,1152.53 483.5,1153.5C 484.392,1150.71 486.392,1149.37 489.5,1149.5 Z"/></g>
<g><path style="opacity:1" fill="#6e6a5f" d="M 937.5,1164.5 C 935.81,1164.14 934.81,1163.14 934.5,1161.5C 936.817,1160.47 937.817,1161.47 937.5,1164.5 Z"/></g>
<g><path style="opacity:1" fill="#777267" d="M 473.5,1160.5 C 473.201,1162.46 472.201,1163.79 470.5,1164.5C 470.586,1163.5 470.252,1162.67 469.5,1162C 470.667,1161.5 471.5,1160.67 472,1159.5C 472.383,1160.06 472.883,1160.39 473.5,1160.5 Z"/></g>
<g><path style="opacity:1" fill="#736e64" d="M 457.5,1172.5 C 456.5,1173.5 455.5,1174.5 454.5,1175.5C 454.586,1174.5 454.252,1173.67 453.5,1173C 454.793,1172.51 456.127,1172.34 457.5,1172.5 Z"/></g>
<g><path style="opacity:1" fill="#8d877b" d="M 949.5,1172.5 C 950.833,1172.5 952.167,1172.5 953.5,1172.5C 953.831,1174.32 954.498,1175.99 955.5,1177.5C 952.911,1176.58 950.911,1174.91 949.5,1172.5 Z"/></g>
<g><path style="opacity:1" fill="#908a7d" d="M 424.5,1173.5 C 422.924,1174.28 421.591,1175.45 420.5,1177C 419.552,1177.48 418.552,1177.65 417.5,1177.5C 419.089,1174.92 421.422,1173.59 424.5,1173.5 Z"/></g>
<g><path style="opacity:1" fill="#69655c" d="M 992.5,1179.5 C 988.716,1179.11 985.716,1177.44 983.5,1174.5C 984.496,1174.59 985.329,1174.25 986,1173.5C 988.037,1175.71 990.203,1177.71 992.5,1179.5 Z"/></g>
<g><path style="opacity:1" fill="#7b766b" d="M 417.5,1177.5 C 415.882,1179.32 413.882,1180.65 411.5,1181.5C 412.733,1179.2 414.733,1177.87 417.5,1177.5 Z"/></g>
<g><path style="opacity:1" fill="#7d786d" d="M 449.5,1177.5 C 448.036,1179.63 446.036,1180.96 443.5,1181.5C 444.95,1179.39 446.95,1178.06 449.5,1177.5 Z"/></g>
<g><path style="opacity:1" fill="#787369" d="M 958.5,1178.5 C 960.664,1178.72 962.33,1179.72 963.5,1181.5C 960.715,1182.08 959.048,1181.08 958.5,1178.5 Z"/></g>
<g><path style="opacity:1" fill="#999385" d="M 398.5,1190.5 C 397.833,1193.17 396.167,1194.83 393.5,1195.5C 394.252,1193.9 395.252,1192.4 396.5,1191C 397.094,1190.54 397.761,1190.37 398.5,1190.5 Z"/></g>
<g><path style="opacity:1" fill="#7f7a6f" d="M 429.5,1192.5 C 427.548,1193.78 425.882,1195.45 424.5,1197.5C 423.264,1198.25 421.93,1198.58 420.5,1198.5C 421.389,1197.05 422.389,1195.39 423.5,1193.5C 425.409,1192.65 427.409,1192.32 429.5,1192.5 Z"/></g>
<g><path style="opacity:1" fill="#68645b" d="M 985.5,1198.5 C 983.519,1196.86 981.519,1195.19 979.5,1193.5C 983.107,1192.74 985.107,1194.41 985.5,1198.5 Z"/></g>
<g><path style="opacity:1" fill="#7e796e" d="M 1020.5,1198.5 C 1022.52,1199.46 1024.35,1200.79 1026,1202.5C 1026.46,1203.09 1026.63,1203.76 1026.5,1204.5C 1023.48,1203.48 1021.48,1201.48 1020.5,1198.5 Z"/></g>
<g><path style="opacity:1" fill="#959082" d="M 386.5,1198.5 C 386.179,1200.05 385.179,1200.71 383.5,1200.5C 382.435,1204.56 379.768,1206.89 375.5,1207.5C 378.858,1205.41 381.525,1202.58 383.5,1199C 384.448,1198.52 385.448,1198.35 386.5,1198.5 Z"/></g>
<g><path style="opacity:1" fill="#67635a" d="M 375.5,1207.5 C 376.292,1209.76 375.292,1211.09 372.5,1211.5C 372.799,1209.54 373.799,1208.21 375.5,1207.5 Z"/></g>
<g><path style="opacity:1" fill="#888276" d="M 1029.5,1206.5 C 1030.58,1206.54 1031.58,1206.87 1032.5,1207.5C 1033.97,1209.72 1035.64,1211.72 1037.5,1213.5C 1033.59,1212.59 1030.93,1210.26 1029.5,1206.5 Z"/></g>
<g><path style="opacity:1" fill="#807b6f" d="M 408.5,1207.5 C 407.441,1210.87 405.108,1212.54 401.5,1212.5C 404.039,1211.07 406.372,1209.4 408.5,1207.5 Z"/></g>
<g><path style="opacity:1" fill="#7c776b" d="M 398.5,1214.5 C 398.033,1217.3 396.367,1218.63 393.5,1218.5C 395.142,1217.2 396.809,1215.86 398.5,1214.5 Z"/></g>
<g><path style="opacity:1" fill="#736f64" d="M 356.5,1221.5 C 355.713,1223.1 354.38,1223.77 352.5,1223.5C 353.287,1221.9 354.62,1221.23 356.5,1221.5 Z"/></g>
<g><path style="opacity:1" fill="#8d877a" d="M 57.5,1221.5 C 58.2891,1221.78 58.9558,1222.28 59.5,1223C 58.926,1224.92 58.5926,1226.75 58.5,1228.5C 57.5318,1226.39 57.1984,1224.06 57.5,1221.5 Z"/></g>
<g><path style="opacity:1" fill="#746f64" d="M 1033.5,1232.5 C 1032.5,1232.17 1031.83,1231.5 1031.5,1230.5C 1031.37,1229.62 1031.7,1228.96 1032.5,1228.5C 1033.43,1229.69 1033.76,1231.02 1033.5,1232.5 Z"/></g>
<g><path style="opacity:1" fill="#7f7a6e" d="M 373.5,1232.5 C 370.76,1234.56 367.76,1236.23 364.5,1237.5C 365.421,1235.73 366.588,1234.06 368,1232.5C 369.626,1232.85 371.459,1232.85 373.5,1232.5 Z"/></g>
<g><path style="opacity:1" fill="#7c776c" d="M 1046.5,1240.5 C 1043.67,1238.92 1040.67,1237.59 1037.5,1236.5C 1036.57,1235.64 1035.91,1234.64 1035.5,1233.5C 1036.12,1233.39 1036.62,1233.06 1037,1232.5C 1037.63,1235.64 1039.3,1236.64 1042,1235.5C 1043.82,1236.92 1045.32,1238.59 1046.5,1240.5 Z"/></g>
<g><path style="opacity:1" fill="#726e63" d="M 364.5,1237.5 C 362.176,1240.31 359.51,1242.65 356.5,1244.5C 357.616,1240.38 360.283,1238.05 364.5,1237.5 Z"/></g>
<g><path style="opacity:1" fill="#6e6a60" d="M 1046.5,1240.5 C 1047.5,1240.5 1048.5,1240.5 1049.5,1240.5C 1049.5,1241.5 1049.5,1242.5 1049.5,1243.5C 1047.5,1243.5 1046.5,1242.5 1046.5,1240.5 Z"/></g>
<g><path style="opacity:1" fill="#7e796e" d="M 356.5,1244.5 C 354.583,1246.7 352.25,1248.37 349.5,1249.5C 350.468,1245.41 352.802,1243.75 356.5,1244.5 Z"/></g>
<g><path style="opacity:1" fill="#969082" d="M 1082.5,1244.5 C 1087.35,1246.35 1091.68,1249.02 1095.5,1252.5C 1091.3,1250.98 1087.3,1248.98 1083.5,1246.5C 1082.7,1246.04 1082.37,1245.38 1082.5,1244.5 Z"/></g>
<g><path style="opacity:1" fill="#68645b" d="M 320.5,1270.5 C 319.194,1271.47 318.527,1272.8 318.5,1274.5C 317.5,1274.5 316.5,1274.5 315.5,1274.5C 316.869,1273.03 318.036,1271.37 319,1269.5C 319.383,1270.06 319.883,1270.39 320.5,1270.5 Z"/></g>
<g><path style="opacity:1" fill="#7e796e" d="M 1086.5,1270.5 C 1088.98,1270.77 1090.65,1272.11 1091.5,1274.5C 1089.25,1273.92 1087.58,1272.59 1086.5,1270.5 Z"/></g>
<g><path style="opacity:1" fill="#736f64" d="M 1118.5,1271.5 C 1121.86,1273.49 1125.53,1274.65 1129.5,1275C 1131.32,1275.66 1132.66,1276.83 1133.5,1278.5C 1130.85,1277.51 1128.18,1276.51 1125.5,1275.5C 1123.48,1276.14 1121.65,1276.14 1120,1275.5C 1119.21,1274.26 1118.71,1272.92 1118.5,1271.5 Z"/></g>
<g><path style="opacity:1" fill="#898377" d="M 283.5,1274.5 C 283.217,1275.29 282.717,1275.96 282,1276.5C 280.374,1276.15 278.541,1276.15 276.5,1276.5C 275.971,1280.03 273.971,1282.37 270.5,1283.5C 271.254,1280.91 272.921,1279.08 275.5,1278C 274.167,1277.33 274.167,1276.67 275.5,1276C 278.063,1274.92 280.729,1274.42 283.5,1274.5 Z"/></g>
<g><path style="opacity:1" fill="#827d71" d="M 56.5,1269.5 C 57.4972,1269.47 58.1639,1269.97 58.5,1271C 57.3047,1272.53 57.3047,1274.03 58.5,1275.5C 57.8333,1275.83 57.1667,1276.17 56.5,1276.5C 60.2654,1278.19 60.2654,1279.52 56.5,1280.5C 55.6648,1277.01 55.6648,1273.34 56.5,1269.5 Z"/></g>
<g><path style="opacity:1" fill="#807a6f" d="M 270.5,1283.5 C 268.97,1285.35 266.97,1286.35 264.5,1286.5C 265.687,1284.02 267.687,1283.02 270.5,1283.5 Z"/></g>
<g><path style="opacity:1" fill="#615d54" d="M 1135.5,1281.5 C 1137.88,1282.35 1139.88,1283.68 1141.5,1285.5C 1140.88,1285.61 1140.38,1285.94 1140,1286.5C 1137.94,1285.24 1136.44,1283.57 1135.5,1281.5 Z"/></g>
<g><path style="opacity:1" fill="#8d877a" d="M 290.5,1291.5 C 288.802,1293.87 286.469,1295.53 283.5,1296.5C 285.105,1294.39 286.938,1292.39 289,1290.5C 289.383,1291.06 289.883,1291.39 290.5,1291.5 Z"/></g>
<g><path style="opacity:1" fill="#938d80" d="M 1116.5,1291.5 C 1117.85,1292.17 1119.01,1292.17 1120,1291.5C 1120.48,1292.45 1120.65,1293.45 1120.5,1294.5C 1118.37,1294.45 1117.03,1293.45 1116.5,1291.5 Z"/></g>
<g><path style="opacity:1" fill="#888276" d="M 252.5,1294.5 C 251.571,1295.31 250.571,1296.15 249.5,1297C 249.833,1297.33 250.167,1297.67 250.5,1298C 249.552,1298.48 248.552,1298.65 247.5,1298.5C 247.989,1295.68 249.656,1294.34 252.5,1294.5 Z"/></g>
<g><path style="opacity:1" fill="#8c877a" d="M 1122.5,1295.5 C 1124.52,1297.2 1126.52,1298.86 1128.5,1300.5C 1125.29,1300.29 1123.29,1298.62 1122.5,1295.5 Z"/></g>
<g><path style="opacity:1" fill="#666259" d="M 241.5,1303.5 C 239.877,1305.89 237.544,1307.23 234.5,1307.5C 236.292,1305.43 238.626,1304.1 241.5,1303.5 Z"/></g>
<g><path style="opacity:1" fill="#8a8478" d="M 1346.5,1302.5 C 1347.63,1304.97 1347.8,1307.63 1347,1310.5C 1346.62,1311.06 1346.12,1311.39 1345.5,1311.5C 1345.82,1310.18 1346.15,1308.85 1346.5,1307.5C 1346.18,1306.35 1345.52,1305.52 1344.5,1305C 1345.07,1304.01 1345.73,1303.17 1346.5,1302.5 Z"/></g>
<g><path style="opacity:1" fill="#898377" d="M 270.5,1305.5 C 269.833,1307.5 268.5,1308.83 266.5,1309.5C 266.5,1308.17 266.5,1306.83 266.5,1305.5C 267.833,1305.5 269.167,1305.5 270.5,1305.5 Z"/></g>
<g><path style="opacity:1" fill="#827c71" d="M 265.5,1309.5 C 264.365,1311.21 262.698,1311.88 260.5,1311.5C 259.537,1310.64 259.537,1309.97 260.5,1309.5C 262.128,1310.54 263.795,1310.54 265.5,1309.5 Z"/></g>
<g><path style="opacity:1" fill="#908a7d" d="M 256.5,1315.5 C 254.54,1317.16 252.54,1318.82 250.5,1320.5C 251.288,1317.38 253.288,1315.71 256.5,1315.5 Z"/></g>
<g><path style="opacity:1" fill="#726d63" d="M 250.5,1320.5 C 249.07,1321.54 247.403,1322.2 245.5,1322.5C 246.511,1319.77 248.178,1319.1 250.5,1320.5 Z"/></g>
<g><path style="opacity:1" fill="#847e72" d="M 243.5,1324.5 C 241.954,1326.93 239.621,1328.26 236.5,1328.5C 238.178,1326.15 240.511,1324.81 243.5,1324.5 Z"/></g>
<g><path style="opacity:1" fill="#716d62" d="M 232.5,1330.5 C 232.5,1331.5 232.5,1332.5 232.5,1333.5C 229.843,1334.49 227.176,1335.49 224.5,1336.5C 225.183,1334.82 226.517,1334.16 228.5,1334.5C 228.167,1331.5 229.5,1330.17 232.5,1330.5 Z"/></g>
<g><path style="opacity:1" fill="#868074" d="M 1202.5,1329.5 C 1203.55,1329.35 1204.55,1329.52 1205.5,1330C 1206.76,1332.28 1208.43,1334.11 1210.5,1335.5C 1209.15,1334.83 1207.99,1334.83 1207,1335.5C 1205.54,1333.39 1204.04,1331.39 1202.5,1329.5 Z"/></g>
<g><path style="opacity:1" fill="#938d7f" d="M 202.5,1329.5 C 202.093,1332.99 200.26,1335.32 197,1336.5C 196.601,1336.27 196.435,1335.94 196.5,1335.5C 198.167,1333.17 200.167,1331.17 202.5,1329.5 Z"/></g>
<g><path style="opacity:1" fill="#8d877b" d="M 1230.5,1349.5 C 1233.17,1350.17 1234.83,1351.83 1235.5,1354.5C 1233.18,1353.58 1231.52,1351.91 1230.5,1349.5 Z"/></g>
<g><path style="opacity:1" fill="#8e887c" d="M 173.5,1351.5 C 173.5,1352.5 173.5,1353.5 173.5,1354.5C 171.708,1354.37 170.042,1354.7 168.5,1355.5C 169.782,1353.82 171.449,1352.49 173.5,1351.5 Z"/></g>
<g><path style="opacity:1" fill="#888377" d="M 201.5,1353.5 C 201.037,1356.26 199.37,1357.92 196.5,1358.5C 197.833,1356.5 199.5,1354.83 201.5,1353.5 Z"/></g>
<g><path style="opacity:1" fill="#666259" d="M 191.5,1361.5 C 190.598,1363.34 189.264,1364.67 187.5,1365.5C 188.164,1363.51 189.331,1361.85 191,1360.5C 191.399,1360.73 191.565,1361.06 191.5,1361.5 Z"/></g>
<g><path style="opacity:1" fill="#736e64" d="M 174.5,1373.5 C 174.167,1374.5 173.5,1375.17 172.5,1375.5C 172.67,1374.18 172.337,1373.01 171.5,1372C 172.788,1371.76 173.788,1372.26 174.5,1373.5 Z"/></g>
<g><path style="opacity:1" fill="#837d72" d="M 170.5,1377.5 C 168.393,1379.73 166.06,1381.73 163.5,1383.5C 164.686,1379.48 167.02,1377.48 170.5,1377.5 Z"/></g>
<g><path style="opacity:1" fill="#928c7f" d="M 1347.5,1387.5 C 1348.37,1389.72 1348.7,1392.05 1348.5,1394.5C 1347.42,1392.64 1346.09,1391.97 1344.5,1392.5C 1346.56,1390.91 1346.9,1389.07 1345.5,1387C 1346.44,1386.31 1347.1,1386.47 1347.5,1387.5 Z"/></g>
<g><path style="opacity:1" fill="#8f897c" d="M 1294.5,1395.5 C 1296.12,1396.04 1297.78,1396.37 1299.5,1396.5C 1299.5,1397.5 1299.5,1398.5 1299.5,1399.5C 1301.18,1399.29 1302.18,1399.95 1302.5,1401.5C 1299.02,1400.48 1296.35,1398.48 1294.5,1395.5 Z"/></g>
<g><path style="opacity:1" fill="#908a7e" d="M 1267.5,1399.5 C 1269.75,1400.08 1271.42,1401.41 1272.5,1403.5C 1270.21,1402.86 1268.54,1401.53 1267.5,1399.5 Z"/></g>
<g><path style="opacity:1" fill="#68645b" d="M 139.5,1399.5 C 138.147,1401.18 136.48,1402.52 134.5,1403.5C 135.265,1401.07 136.931,1399.74 139.5,1399.5 Z"/></g>
<g><path style="opacity:1" fill="#736e64" d="M 95.5,1405.5 C 95.5,1406.5 95.5,1407.5 95.5,1408.5C 94.5,1408.5 93.5,1408.5 92.5,1408.5C 93.5,1407.5 94.5,1406.5 95.5,1405.5 Z"/></g>
<g><path style="opacity:1" fill="#827d71" d="M 1311.5,1405.5 C 1313.36,1406.94 1315.03,1408.61 1316.5,1410.5C 1313.67,1409.93 1312,1408.26 1311.5,1405.5 Z"/></g>
<g><path style="opacity:1" fill="#726d63" d="M 1280.5,1407.5 C 1282.77,1407.96 1284.11,1409.29 1284.5,1411.5C 1282.66,1410.6 1281.33,1409.26 1280.5,1407.5 Z"/></g>
<g><path style="opacity:1" fill="#807a6f" d="M 88.5,1412.5 C 87.656,1414.76 85.9893,1415.76 83.5,1415.5C 84.344,1413.24 86.0107,1412.24 88.5,1412.5 Z"/></g>
<g><path style="opacity:1" fill="#7d786d" d="M 1318.5,1412.5 C 1320.81,1413.07 1323.14,1414.24 1325.5,1416C 1326.82,1416.82 1327.49,1417.98 1327.5,1419.5C 1325.74,1417.3 1323.4,1416.13 1320.5,1416C 1319.18,1415.18 1318.51,1414.02 1318.5,1412.5 Z"/></g>
<g><path style="opacity:1" fill="#827d71" d="M 82.5,1415.5 C 81.7615,1418.63 80.0949,1419.96 77.5,1419.5C 78.9448,1417.94 80.6115,1416.6 82.5,1415.5 Z"/></g>
<g><path style="opacity:1" fill="#6c675e" d="M 56.5,1417.5 C 59.0038,1419.54 58.6704,1421.21 55.5,1422.5C 56.038,1420.88 56.3713,1419.22 56.5,1417.5 Z"/></g>
<g><path style="opacity:1" fill="#888276" d="M 1330.5,1420.5 C 1333.02,1421.92 1335.35,1423.59 1337.5,1425.5C 1336.88,1425.61 1336.38,1425.94 1336,1426.5C 1333.75,1424.81 1331.91,1422.81 1330.5,1420.5 Z"/></g>
<g><path style="opacity:1" fill="#908a7d" d="M 76.5,1420.5 C 74.8413,1423.83 72.1746,1425.5 68.5,1425.5C 70.9691,1423.63 73.6357,1421.97 76.5,1420.5 Z"/></g>
<g><path style="opacity:1" fill="#757066" d="M 1303.5,1425.5 C 1304.5,1425.5 1305.5,1425.5 1306.5,1425.5C 1306.5,1426.5 1306.5,1427.5 1306.5,1428.5C 1305.5,1427.5 1304.5,1426.5 1303.5,1425.5 Z"/></g>
<g><path style="opacity:1" fill="#7e796e" d="M 1095.5,1446.5 C 1095.12,1447.93 1094.12,1448.76 1092.5,1449C 1090.93,1449.76 1089.6,1449.6 1088.5,1448.5C 1090.83,1447.83 1093.17,1447.17 1095.5,1446.5 Z"/></g>
<g><path style="opacity:1" fill="#989284" d="M 867.5,1447.5 C 866.486,1448.76 864.986,1449.43 863,1449.5C 861.293,1449.49 859.793,1449.16 858.5,1448.5C 861.455,1448.53 864.455,1448.2 867.5,1447.5 Z"/></g>
<g><path style="opacity:1" fill="#999285" d="M 73.5,1446.5 C 72.8592,1447.48 72.1925,1448.48 71.5,1449.5C 71.9569,1450.3 72.6236,1450.63 73.5,1450.5C 72.1512,1451.8 70.8179,1451.63 69.5,1450C 70.1029,1447.93 71.4362,1446.76 73.5,1446.5 Z"/></g>
<g><path style="opacity:1" fill="#948d80" d="M 494.5,1449.5 C 492.874,1449.94 491.207,1450.27 489.5,1450.5C 487.645,1450.66 486.312,1449.99 485.5,1448.5C 486.817,1448.82 488.151,1449.15 489.5,1449.5C 490.647,1449.18 491.481,1448.52 492,1447.5C 492.995,1448.07 493.828,1448.73 494.5,1449.5 Z"/></g>
<g><path style="opacity:1" fill="#979183" d="M 83.5,1450.5 C 80.6898,1451.02 78.0231,1451.02 75.5,1450.5C 78.272,1449.23 80.9387,1449.23 83.5,1450.5 Z"/></g>
</svg>
