<?xml version="1.0" encoding="UTF-8"?>
<!DOCTYPE svg PUBLIC "-//W3C//DTD SVG 1.1//EN" "http://www.w3.org/Graphics/SVG/1.1/DTD/svg11.dtd">
<svg xmlns="http://www.w3.org/2000/svg" version="1.1" width="1034px" height="1030px" style="shape-rendering:geometricPrecision; text-rendering:geometricPrecision; image-rendering:optimizeQuality; fill-rule:evenodd; clip-rule:evenodd" xmlns:xlink="http://www.w3.org/1999/xlink">
<g><path style="opacity:0.879" fill="#000000" d="M 497.5,4.5 C 501.247,4.19915 504.747,4.86582 508,6.5C 512.617,4.94083 517.45,4.27416 522.5,4.5C 540.741,5.9754 558.908,7.64206 577,9.5C 577.414,9.04265 577.914,8.70931 578.5,8.5C 599.684,11.2531 620.684,15.0865 641.5,20C 652.075,24.254 663.075,27.254 674.5,29C 683.047,33.2967 692.047,36.63 701.5,39C 702.5,40 703.5,41 704.5,42C 712.958,43.0654 720.625,46.0654 727.5,51C 729.167,51.3333 730.833,51.6667 732.5,52C 741.201,57.6839 750.534,62.3506 760.5,66C 763.181,68.8485 766.514,70.5152 770.5,71C 784.861,80.6926 799.528,90.0259 814.5,99C 829.454,111.314 844.288,123.48 859,135.5C 859.167,138.333 860.667,139.833 863.5,140C 871.019,146.688 878.353,153.521 885.5,160.5C 885.931,164.098 887.931,166.265 891.5,167C 892.667,168.833 893.833,170.667 895,172.5C 900.027,176.86 904.694,181.527 909,186.5C 913.788,194.974 919.788,202.64 927,209.5C 935.059,221.93 943.392,234.263 952,246.5C 953.349,251.366 955.849,255.532 959.5,259C 964.903,268.973 969.903,279.14 974.5,289.5C 975.242,290.287 976.075,290.953 977,291.5C 978.984,299.772 982.317,307.439 987,314.5C 988.295,321.445 990.961,327.778 995,333.5C 997.274,340.365 999.108,347.365 1000.5,354.5C 1004.54,363.316 1007.38,372.65 1009,382.5C 1011.82,383.584 1011.99,384.751 1009.5,386C 1011.29,389.858 1012.96,393.858 1014.5,398C 1014.26,398.873 1013.93,399.707 1013.5,400.5C 1016.04,410.897 1018.54,421.23 1021,431.5C 1023.94,455.53 1026.44,479.697 1028.5,504C 1027.2,504.804 1026.53,505.971 1026.5,507.5C 1027.55,509.41 1027.55,511.244 1026.5,513C 1029.17,514.333 1029.17,515.667 1026.5,517C 1029.04,518.775 1029.04,520.608 1026.5,522.5C 1027.41,523.328 1028.08,524.328 1028.5,525.5C 1026.97,530.055 1025.97,534.722 1025.5,539.5C 1025.83,540.167 1026.17,540.833 1026.5,541.5C 1025.22,554.838 1023.88,568.171 1022.5,581.5C 1022.99,586.068 1022.32,590.568 1020.5,595C 1021.29,598.111 1021.13,601.277 1020,604.5C 1017.07,605.905 1016.9,607.738 1019.5,610C 1019,610.5 1018.5,611 1018,611.5C 1012.46,640.861 1004.46,669.861 994,698.5C 992.19,702.257 990.19,705.924 988,709.5C 979.38,734.71 967.713,758.377 953,780.5C 952.187,782.436 951.687,784.436 951.5,786.5C 950.178,786.33 949.011,786.663 948,787.5C 947.46,790.361 946.46,793.028 945,795.5C 936.444,804.937 929.111,815.27 923,826.5C 919.869,828.954 917.536,831.954 916,835.5C 911.667,839.237 907.667,843.237 904,847.5C 903.138,849.087 902.471,850.754 902,852.5C 896.965,856.647 892.132,860.98 887.5,865.5C 883.614,871.636 878.947,877.136 873.5,882C 872.167,882.333 870.833,882.667 869.5,883C 868.324,885.686 866.657,888.019 864.5,890C 860.111,894.703 855.111,898.703 849.5,902C 848.077,905.092 845.743,907.092 842.5,908C 840.126,910.039 838.126,912.372 836.5,915C 831.058,916.113 827.058,919.113 824.5,924C 815.646,929.625 806.979,935.458 798.5,941.5C 793.756,942.53 790.09,945.03 787.5,949C 779.12,954.19 770.454,958.857 761.5,963C 751.47,969.348 740.803,974.682 729.5,979C 721.815,984.495 713.149,987.828 703.5,989C 702.833,990 702.167,991 701.5,992C 683.416,998.605 665.083,1004.44 646.5,1009.5C 631.618,1012.14 616.952,1015.31 602.5,1019C 579.153,1022.36 555.487,1024.36 531.5,1025C 530.5,1027 529.5,1027 528.5,1025C 525.833,1024.83 523.167,1024.67 520.5,1024.5C 517.3,1024.6 514.3,1025.27 511.5,1026.5C 510.5,1025.83 509.5,1025.17 508.5,1024.5C 506.593,1026.76 504.593,1026.93 502.5,1025C 496.584,1024.81 490.751,1024.31 485,1023.5C 484.275,1024.06 483.442,1024.39 482.5,1024.5C 468.576,1022.41 454.576,1020.91 440.5,1020C 412.109,1015.24 384.109,1008.57 356.5,1000C 337.215,992.564 317.881,984.897 298.5,977C 285.308,970.237 272.308,963.404 259.5,956.5C 255.765,952.926 251.432,950.426 246.5,949C 242.614,944.779 237.947,941.779 232.5,940C 227.512,935.673 222.512,931.339 217.5,927C 211.812,925.151 207.145,921.817 203.5,917C 201.913,916.138 200.246,915.471 198.5,915C 193.912,908.734 188.245,903.901 181.5,900.5C 176.451,893.835 170.451,888.335 163.5,884C 158.323,878.822 153.49,873.322 149,867.5C 146.154,865.743 143.488,863.743 141,861.5C 139.754,857.918 137.42,855.251 134,853.5C 133.562,849.433 131.395,846.933 127.5,846C 100.729,813.125 77.7289,777.792 58.5,740C 55.5609,730.288 51.3943,721.121 46,712.5C 45.363,706.916 43.363,701.916 40,697.5C 38.453,692.216 37.1196,686.882 36,681.5C 34.2342,679.404 32.9009,677.071 32,674.5C 28.771,660.482 24.9377,646.649 20.5,633C 20.6448,632.228 20.9781,631.561 21.5,631C 19.3028,624.073 17.3028,617.073 15.5,610C 15.7549,608.674 16.4216,607.674 17.5,607C 15.821,605.174 14.6544,603.008 14,600.5C 10.8937,575.768 8.39365,551.102 6.5,526.5C 6.91862,525.328 7.58529,524.328 8.5,523.5C 7.16003,522.312 6.49337,520.812 6.5,519C 7.12561,516.482 7.12561,513.815 6.5,511C 6.62915,509.019 7.29582,507.353 8.5,506C 7.37586,505.161 6.70919,503.994 6.5,502.5C 8.7421,482.902 10.5754,463.235 12,443.5C 13.4871,437.614 14.4871,431.614 15,425.5C 15.8812,422.07 17.0479,418.737 18.5,415.5C 18.1667,414.833 17.8333,414.167 17.5,413.5C 18.3782,409.191 19.2116,404.858 20,400.5C 25.8963,377.91 32.5629,355.577 40,333.5C 43.7118,326.074 46.8785,318.407 49.5,310.5C 50.2776,308.853 51.4443,307.52 53,306.5C 54.1212,300.759 55.9545,295.259 58.5,290C 66.9474,274.779 75.6141,259.612 84.5,244.5C 85.7598,243.618 86.9264,242.618 88,241.5C 92.6985,232.076 98.3652,223.41 105,215.5C 109.58,209.34 113.914,203.007 118,196.5C 122.265,193.319 125.599,189.319 128,184.5C 131.05,181.433 133.884,178.099 136.5,174.5C 139.565,173.064 141.731,170.731 143,167.5C 144.264,165.393 146.097,164.393 148.5,164.5C 148.351,163.448 148.517,162.448 149,161.5C 161.98,148.098 175.48,135.265 189.5,123C 190.5,122.667 191.5,122.333 192.5,122C 200.481,114.51 209.148,108.01 218.5,102.5C 219.5,101.167 220.5,99.8333 221.5,98.5C 238.98,86.8388 256.813,75.8388 275,65.5C 288.291,60.008 301.124,53.8413 313.5,47C 317.711,45.2905 322.044,43.9572 326.5,43C 328.772,42.0589 330.772,40.7255 332.5,39C 351.165,33.0003 369.832,27.0003 388.5,21C 403.059,18.561 417.393,15.3944 431.5,11.5C 432.086,11.7093 432.586,12.0426 433,12.5C 443.828,10.9708 454.661,9.30418 465.5,7.5C 471.367,7.15922 477.367,7.15922 483.5,7.5C 487.348,6.15229 491.182,5.81896 495,6.5C 496.376,6.31577 497.209,5.64911 497.5,4.5 Z M 507.5,21.5 C 508.458,21.9528 509.292,22.6195 510,23.5C 512.403,20.9192 514.903,20.9192 517.5,23.5C 518.689,23.2444 519.856,22.9111 521,22.5C 534.688,23.0726 548.355,24.0726 562,25.5C 563.366,25.2935 564.699,24.9602 566,24.5C 577.772,26.372 589.605,27.872 601.5,29C 605.117,29.4842 608.45,30.6508 611.5,32.5C 612.086,32.2907 612.586,31.9574 613,31.5C 620.733,33.7018 628.566,35.7018 636.5,37.5C 643.009,37.8855 649.343,39.7189 655.5,43C 661.361,44.9652 667.361,46.2985 673.5,47C 676.982,47.9052 679.982,49.5719 682.5,52C 687.332,52.7494 691.999,54.0827 696.5,56C 709.273,60.8873 721.773,66.3873 734,72.5C 735.667,73.8333 737.333,75.1667 739,76.5C 748.536,80.3517 757.703,84.8517 766.5,90C 767.833,92 769.5,93.6667 771.5,95C 781.777,99.5637 791.11,105.564 799.5,113C 808.718,117.902 817.051,123.902 824.5,131C 828.097,132.926 831.097,135.593 833.5,139C 837.419,140.584 840.419,143.25 842.5,147C 846.419,148.584 849.419,151.25 851.5,155C 857.292,158.958 862.625,163.458 867.5,168.5C 878.851,180.684 890.018,193.017 901,205.5C 901.561,207.725 902.561,209.725 904,211.5C 911.196,218.03 916.862,225.697 921,234.5C 922.955,235.453 924.622,236.787 926,238.5C 933.585,252.785 941.751,266.785 950.5,280.5C 953.319,287.837 957.152,294.503 962,300.5C 965.989,311.087 969.989,321.754 974,332.5C 978.02,338.299 980.687,344.633 982,351.5C 982.5,352.667 983.333,353.5 984.5,354C 983.833,354.333 983.167,354.667 982.5,355C 983.701,355.903 984.535,357.069 985,358.5C 986.893,367.803 989.727,376.803 993.5,385.5C 996.325,398.403 998.825,411.403 1001,424.5C 1002.75,427.21 1003.75,430.21 1004,433.5C 1005.61,445.797 1006.94,458.13 1008,470.5C 1008.37,471.416 1008.87,472.25 1009.5,473C 1009.62,487.891 1009.62,502.557 1009.5,517C 1010.02,519.21 1010.69,521.377 1011.5,523.5C 1011.28,525.055 1010.61,526.389 1009.5,527.5C 1009.06,548.559 1007.4,570.059 1004.5,592C 1005.92,593.412 1005.76,594.579 1004,595.5C 1001.43,613.71 997.096,631.377 991,648.5C 989.905,656.665 988.238,664.665 986,672.5C 985.39,675.022 984.057,677.022 982,678.5C 975.878,698.364 967.711,717.364 957.5,735.5C 956.303,742.249 953.136,747.915 948,752.5C 947.112,757.169 945.445,761.503 943,765.5C 937.329,771.029 933.495,777.696 931.5,785.5C 927.849,789.652 924.016,793.652 920,797.5C 918.905,801.612 916.572,804.945 913,807.5C 910.266,811.391 907.766,815.391 905.5,819.5C 893.164,832.838 881.164,846.505 869.5,860.5C 855.707,874.248 841.374,887.415 826.5,900C 823.077,899.855 821.077,901.355 820.5,904.5C 814.911,906.565 810.245,910.065 806.5,915C 801.678,917.248 797.345,920.248 793.5,924C 788.652,925.919 784.319,928.586 780.5,932C 775.233,934.086 770.567,937.086 766.5,941C 763.167,942.333 759.833,943.667 756.5,945C 754.833,946 753.5,947.333 752.5,949C 750.833,949.333 749.167,949.667 747.5,950C 739.996,954.587 732.329,958.92 724.5,963C 707.049,970.18 689.382,977.18 671.5,984C 659.611,986.591 647.944,989.925 636.5,994C 627.512,995.365 618.678,997.199 610,999.5C 609.667,999.167 609.333,998.833 609,998.5C 607.174,1000.07 605.007,1000.91 602.5,1001C 543.82,1009.64 485.32,1009.47 427,1000.5C 414.815,996.564 402.315,993.73 389.5,992C 387.709,991.585 386.376,990.585 385.5,989C 378.241,987.341 370.908,985.675 363.5,984C 329.12,971.819 296.12,956.652 264.5,938.5C 255.51,931.895 246.343,925.562 237,919.5C 230.265,915.872 224.098,911.372 218.5,906C 214.704,905.771 212.371,903.771 211.5,900C 206.835,898.174 203.168,895.174 200.5,891C 193.619,887.457 187.952,882.457 183.5,876C 182.5,875.667 181.5,875.333 180.5,875C 176.658,870.457 172.491,866.291 168,862.5C 165.419,858.518 162.086,855.184 158,852.5C 155.01,849.161 152.344,845.494 150,841.5C 144.935,839.433 141.601,835.767 140,830.5C 132.048,823.802 125.882,815.802 121.5,806.5C 119.61,805.576 118.11,804.243 117,802.5C 111.262,792.711 104.762,783.378 97.5,774.5C 94.7508,769.055 91.9175,763.721 89,758.5C 88.187,756.564 87.687,754.564 87.5,752.5C 86.1779,752.67 85.0113,752.337 84,751.5C 82.4161,745.666 79.7495,740.332 76,735.5C 73.2155,727.93 69.8822,720.597 66,713.5C 60.0579,698.261 54.0579,682.927 48,667.5C 46.2922,659.278 43.9589,651.278 41,643.5C 38.8476,633.887 36.8476,624.22 35,614.5C 34.5604,612.924 33.727,611.59 32.5,610.5C 32.9767,609.522 33.6433,608.689 34.5,608C 32.7851,604.791 31.6184,601.291 31,597.5C 24.2037,554.447 23.0371,511.447 27.5,468.5C 27.5659,457.293 28.8992,446.126 31.5,435C 31.2645,434.127 30.9312,433.293 30.5,432.5C 32.0216,426.326 33.6883,420.159 35.5,414C 35.2645,413.127 34.9312,412.293 34.5,411.5C 39.233,392.976 44.3997,374.642 50,356.5C 51.2989,355.91 52.1322,354.91 52.5,353.5C 53.895,347.015 55.7283,340.681 58,334.5C 61.7079,329.364 64.3746,323.697 66,317.5C 71.105,305.288 76.7716,293.288 83,281.5C 92.1323,268.071 100.632,254.238 108.5,240C 113.111,234.621 117.111,228.788 120.5,222.5C 124.586,220.341 127.253,217.008 128.5,212.5C 129.628,211.738 130.795,211.071 132,210.5C 132.792,205.544 135.459,202.211 140,200.5C 141.08,198.004 142.414,195.67 144,193.5C 228.122,99.2605 333.122,43.2605 459,25.5C 461.836,26.265 464.67,25.9317 467.5,24.5C 468.446,24.9867 469.446,25.3201 470.5,25.5C 479.541,24.6855 488.707,23.6855 498,22.5C 501.438,23.9827 504.605,23.6494 507.5,21.5 Z"/></g>
<g><path style="opacity:0.996" fill="#000000" d="M 611.5,443.5 C 606.097,453.303 600.43,462.97 594.5,472.5C 589.248,473.922 584.581,476.422 580.5,480C 575.769,480.937 571.102,482.104 566.5,483.5C 562.333,482.291 558.167,482.624 554,484.5C 547.711,483.79 541.377,483.79 535,484.5C 531.072,484.281 527.239,483.614 523.5,482.5C 519.42,483.087 515.42,483.087 511.5,482.5C 505.638,484.759 499.638,485.092 493.5,483.5C 491.407,483.486 489.574,484.152 488,485.5C 487.692,484.692 487.192,484.025 486.5,483.5C 481.143,482.81 475.976,482.81 471,483.5C 466.215,481.446 461.381,480.279 456.5,480C 452.439,476.455 447.772,473.955 442.5,472.5C 441.603,468.099 439.269,464.766 435.5,462.5C 430.041,449.556 423.041,437.056 414.5,425C 414.957,424.586 415.291,424.086 415.5,423.5C 413.457,418.245 410.957,413.245 408,408.5C 406.848,402.375 405.015,396.541 402.5,391C 402.67,386.824 403.003,382.657 403.5,378.5C 403.16,374.575 401.826,371.075 399.5,368C 397.287,367.374 395.12,367.541 393,368.5C 389.569,367.189 386.069,366.189 382.5,365.5C 377.948,361.908 375.281,356.742 374.5,350C 375.067,347.493 375.4,344.993 375.5,342.5C 373.625,341.031 373.625,339.198 375.5,337C 374.167,335 374.167,333 375.5,331C 372.059,326.883 368.559,322.716 365,318.5C 361,309.833 357,301.167 353,292.5C 350.956,284.367 348.123,276.533 344.5,269C 344.688,257.116 344.688,244.782 344.5,232C 347.364,191.602 363.03,156.935 391.5,128C 422.966,103.169 458.466,87.0027 498,79.5C 501.107,80.3493 504.107,80.6826 507,80.5C 512.142,79.0305 516.975,78.3638 521.5,78.5C 548.681,79.9645 574.681,86.7979 599.5,99C 611.049,104.867 622.382,111.2 633.5,118C 653.468,134.647 668.968,154.814 680,178.5C 683.875,190.198 687.375,202.031 690.5,214C 690.043,214.414 689.709,214.914 689.5,215.5C 690.377,221.009 691.377,226.509 692.5,232C 692.458,244.623 692.458,256.956 692.5,269C 687.407,283.797 681.574,298.297 675,312.5C 671.625,319.534 667.125,325.7 661.5,331C 662.23,337.388 662.564,343.722 662.5,350C 662.059,355.32 660.059,359.987 656.5,364C 652.162,364.92 648.328,366.754 645,369.5C 641.925,366.941 638.925,366.941 636,369.5C 634.955,372.436 634.121,375.436 633.5,378.5C 633.43,381.004 633.763,383.337 634.5,385.5C 632.027,387.242 632.027,389.075 634.5,391C 632.163,395.496 630.663,400.329 630,405.5C 628.439,409.445 626.439,413.111 624,416.5C 623.265,418.871 622.432,421.205 621.5,423.5C 621.709,424.086 622.043,424.586 622.5,425C 617.929,430.644 614.262,436.811 611.5,443.5 Z"/></g>
<g><path style="opacity:1" fill="#dedede" d="M 445.5,250.5 C 447.979,251.072 450.313,251.072 452.5,250.5C 454.029,250.529 455.196,251.196 456,252.5C 458.303,250.165 460.803,250.165 463.5,252.5C 468.241,256.619 473.074,260.619 478,264.5C 483.403,270.036 486.069,276.702 486,284.5C 487.011,283.663 488.178,283.33 489.5,283.5C 489.677,285.981 488.677,287.814 486.5,289C 487.833,290 487.833,291 486.5,292C 487.685,293.353 489.019,294.52 490.5,295.5C 489.132,296.594 487.965,296.26 487,294.5C 486.202,296.259 486.369,297.926 487.5,299.5C 488.396,298.494 489.062,298.494 489.5,299.5C 488.167,300.167 486.833,300.833 485.5,301.5C 485.997,304.576 486.33,307.909 486.5,311.5C 485.07,311.579 483.736,311.246 482.5,310.5C 481.904,311.716 481.737,313.049 482,314.5C 477.833,317.333 474.333,320.833 471.5,325C 467.491,325.748 463.824,327.248 460.5,329.5C 459.252,328.96 458.085,328.293 457,327.5C 456.184,332.193 454.684,332.526 452.5,328.5C 449.421,330.388 446.254,332.055 443,333.5C 441.021,331.116 438.688,330.449 436,331.5C 434.775,331.138 433.609,330.638 432.5,330C 429.009,324.027 425.009,318.527 420.5,313.5C 417.402,313.587 417.068,313.087 419.5,312C 417.963,310.89 417.297,309.39 417.5,307.5C 415.335,307.884 413.668,307.217 412.5,305.5C 412.667,305.167 412.833,304.833 413,304.5C 414.627,306.312 416.127,306.479 417.5,305C 416.427,303.584 416.427,302.25 417.5,301C 416.272,300.221 415.272,299.221 414.5,298C 418.441,282.103 425.774,268.103 436.5,256C 439.672,254.303 442.672,252.47 445.5,250.5 Z"/></g>
<g><path style="opacity:1" fill="#dedede" d="M 576.5,250.5 C 578.451,250.227 579.951,250.893 581,252.5C 584.183,250.477 587.683,249.977 591.5,251C 595.784,253.652 599.951,256.485 604,259.5C 612.943,270.835 619.109,283.502 622.5,297.5C 621.99,299.088 620.99,300.255 619.5,301C 620.573,302.25 620.573,303.584 619.5,305C 619.833,305.5 620.167,306 620.5,306.5C 622.169,305.11 623.836,304.777 625.5,305.5C 623.368,306.598 621.202,307.598 619,308.5C 618.691,309.766 618.191,310.933 617.5,312C 619.569,312.324 619.902,313.158 618.5,314.5C 616.821,315.782 614.987,316.782 613,317.5C 609.007,321.383 606.173,325.55 604.5,330C 602.956,331.187 601.289,331.52 599.5,331C 600.28,329.927 600.113,328.76 599,327.5C 598.431,330.403 596.765,332.403 594,333.5C 590.215,331.738 586.381,330.071 582.5,328.5C 582.649,329.552 582.483,330.552 582,331.5C 580.705,330.159 580.205,328.826 580.5,327.5C 579.167,328.167 577.833,328.833 576.5,329.5C 573.176,327.248 569.509,325.748 565.5,325C 562.667,320.833 559.167,317.333 555,314.5C 554.508,313.451 554.674,312.451 555.5,311.5C 554.167,311.167 552.833,310.833 551.5,310.5C 550.756,307.317 550.756,304.317 551.5,301.5C 550.271,300.719 548.938,300.219 547.5,300C 548.448,299.517 549.448,299.351 550.5,299.5C 550.66,297.801 550.494,296.134 550,294.5C 549.035,296.26 547.868,296.594 546.5,295.5C 547.981,294.52 549.315,293.353 550.5,292C 549.167,291 549.167,290 550.5,289C 548.153,287.809 547.32,285.976 548,283.5C 549,283.833 550,284.167 551,284.5C 551.109,279.944 552.109,275.611 554,271.5C 558.345,265.478 563.512,260.644 569.5,257C 571.465,254.316 573.799,252.15 576.5,250.5 Z"/></g>
<g><path style="opacity:1" fill="#0b0b0b" d="M 563.5,317.5 C 565.332,318.14 565.665,319.14 564.5,320.5C 563.614,319.675 563.281,318.675 563.5,317.5 Z"/></g>
<g><path style="opacity:1" fill="#323232" d="M 472.5,317.5 C 473.776,318.386 473.776,319.386 472.5,320.5C 471.438,319.575 471.438,318.575 472.5,317.5 Z"/></g>
<g><path style="opacity:1" fill="#dbdbdb" d="M 513.5,323.5 C 516.85,323.335 520.183,323.502 523.5,324C 524.308,324.308 524.975,324.808 525.5,325.5C 528.131,331.289 530.964,336.956 534,342.5C 540.53,349.333 543.363,357.333 542.5,366.5C 540.821,370.694 537.654,372.694 533,372.5C 530.758,371.762 528.924,370.428 527.5,368.5C 525.396,362.155 523.23,355.822 521,349.5C 520.311,348.643 519.478,347.977 518.5,347.5C 516.854,348.779 515.687,350.445 515,352.5C 513.799,359.62 510.965,365.953 506.5,371.5C 498.499,373.832 494.499,370.832 494.5,362.5C 494.676,359.118 495.176,355.785 496,352.5C 501.891,342.692 507.724,333.026 513.5,323.5 Z"/></g>
<g><path style="opacity:1" fill="#727272" d="M 437.5,334.5 C 440.569,334.963 441.069,336.296 439,338.5C 438.209,337.255 437.709,335.922 437.5,334.5 Z"/></g>
<g><path style="opacity:1" fill="#dddddd" d="M 556.5,404.5 C 558.857,404.337 561.19,404.503 563.5,405C 564.877,407.333 565.877,409.833 566.5,412.5C 565.65,417.233 564.483,421.9 563,426.5C 560.501,427.798 558.167,427.464 556,425.5C 553.149,419.94 552.149,414.273 553,408.5C 554.376,407.295 555.542,405.962 556.5,404.5 Z"/></g>
<g><path style="opacity:1" fill="#dcdcdc" d="M 529.5,406.5 C 538.014,407.859 540.514,412.525 537,420.5C 535.331,424.997 532.664,425.663 529,422.5C 525.778,416.909 525.944,411.575 529.5,406.5 Z"/></g>
<g><path style="opacity:1" fill="#dbdbdb" d="M 504.5,406.5 C 507.468,406.626 509.468,408.126 510.5,411C 509.884,414.863 509.05,418.696 508,422.5C 504.856,425.466 502.189,425.133 500,421.5C 496.863,414.842 498.363,409.842 504.5,406.5 Z"/></g>
<g><path style="opacity:1" fill="#dddddd" d="M 473.5,404.5 C 478.439,403.352 481.939,405.019 484,409.5C 484.904,415.989 483.404,421.822 479.5,427C 476.975,427.896 474.808,427.396 473,425.5C 469.645,418.384 469.811,411.384 473.5,404.5 Z"/></g>
<g><path style="opacity:1" fill="#e0e0e0" d="M 445.5,409.5 C 450.013,409.414 453.18,411.414 455,415.5C 455.496,420.208 455.162,424.875 454,429.5C 449.837,433.747 446.171,433.414 443,428.5C 441.047,421.773 441.881,415.439 445.5,409.5 Z"/></g>
<g><path style="opacity:1" fill="#dbdbdb" d="M 587.5,409.5 C 589.722,409.178 591.556,409.845 593,411.5C 596.637,418.689 596.137,425.522 591.5,432C 588.044,433.123 585.21,432.29 583,429.5C 581.057,423.703 581.224,418.036 583.5,412.5C 584.901,411.479 586.235,410.479 587.5,409.5 Z"/></g>
<g><path style="opacity:0.962" fill="#000000" d="M 494.5,496.5 C 496.939,495.947 499.273,495.947 501.5,496.5C 506.678,493.542 511.844,493.209 517,495.5C 525.953,493.136 534.953,494.136 544,498.5C 544.695,500.722 545.528,502.889 546.5,505C 544.017,507.935 544.017,510.935 546.5,514C 544.592,521.09 539.925,525.09 532.5,526C 524.857,526.264 517.357,526.431 510,526.5C 502.799,526.377 496.799,523.71 492,518.5C 491.654,516.782 491.154,515.115 490.5,513.5C 492.978,510.775 492.978,508.108 490.5,505.5C 491.077,502.078 492.411,499.078 494.5,496.5 Z"/></g>
<g><path style="opacity:0.962" fill="#000000" d="M 557.5,561.5 C 555.891,565.217 553.891,568.717 551.5,572C 549.362,571.441 547.362,571.608 545.5,572.5C 544.183,572.179 542.849,571.846 541.5,571.5C 537.59,573.318 533.423,574.318 529,574.5C 520.747,573.801 512.581,573.801 504.5,574.5C 501.332,573.872 498.332,572.872 495.5,571.5C 494.151,571.846 492.817,572.179 491.5,572.5C 489.374,571.897 487.041,571.897 484.5,572.5C 483.268,568.866 481.601,565.366 479.5,562C 480.308,561.692 480.975,561.192 481.5,560.5C 480.167,559.5 480.167,558.5 481.5,557.5C 481.043,556.702 480.376,556.369 479.5,556.5C 480.348,552.981 481.681,549.648 483.5,546.5C 486.016,545.274 488.349,543.774 490.5,542C 509.167,541.333 527.833,541.333 546.5,542C 551.723,544.224 555.223,548.058 557,553.5C 557.75,554.126 558.584,554.626 559.5,555C 557.973,556.693 556.64,558.527 555.5,560.5C 555.957,561.298 556.624,561.631 557.5,561.5 Z"/></g>
<g><path style="opacity:0.965" fill="#000000" d="M 329.5,555.5 C 352.376,556.764 375.71,557.597 399.5,558C 408.115,559.66 416.782,560.994 425.5,562C 430.653,563.062 435.653,564.562 440.5,566.5C 439.636,568.197 438.303,569.363 436.5,570C 428.819,571.502 421.152,573.002 413.5,574.5C 412.833,574.167 412.167,573.833 411.5,573.5C 404.864,574.249 398.198,574.916 391.5,575.5C 360.699,573.114 329.699,574.447 298.5,579.5C 295.74,579.218 292.906,578.885 290,578.5C 284.103,578.454 278.936,580.287 274.5,584C 270.864,585.268 267.197,586.434 263.5,587.5C 250.861,582.468 250.194,575.968 261.5,568C 283.839,561.297 306.506,557.13 329.5,555.5 Z"/></g>
<g><path style="opacity:0.964" fill="#000000" d="M 688.5,555.5 C 717.817,554.998 746.817,559.164 775.5,568C 786.806,575.968 786.139,582.468 773.5,587.5C 767.23,586.248 761.563,583.748 756.5,580C 753.139,579.663 749.806,579.163 746.5,578.5C 743.687,578.743 740.854,579.076 738,579.5C 735.612,578.225 733.278,577.892 731,578.5C 702.379,573.727 673.879,572.727 645.5,575.5C 638.605,574.93 631.772,574.263 625,573.5C 615.519,573.427 606.186,571.76 597,568.5C 596.251,567.365 596.417,566.365 597.5,565.5C 624.447,558.213 651.781,555.547 679.5,557.5C 682.64,556.911 685.64,556.244 688.5,555.5 Z"/></g>
<g><path style="opacity:0.982" fill="#000000" d="M 217.5,566.5 C 228.295,566.238 237.795,569.571 246,576.5C 246.862,578.087 247.529,579.754 248,581.5C 248.499,587.157 248.666,592.824 248.5,598.5C 255.231,596.604 261.565,597.437 267.5,601C 269.563,603.511 271.063,606.344 272,609.5C 274.97,618.047 273.97,626.38 269,634.5C 264.189,640.109 259.856,646.109 256,652.5C 250.84,662.312 246.673,672.479 243.5,683C 243.833,684 244.167,685 244.5,686C 242.274,692.138 240.941,698.471 240.5,705C 241.081,705.893 241.415,706.893 241.5,708C 239.968,720.614 238.634,733.447 237.5,746.5C 238.257,758.705 239.257,771.039 240.5,783.5C 240.787,788.939 240.121,794.439 238.5,800C 239.258,805.413 240.258,810.746 241.5,816C 240.214,821.14 240.214,826.307 241.5,831.5C 240.988,833.884 240.321,836.217 239.5,838.5C 239.719,852.197 240.052,866.197 240.5,880.5C 240.513,885.889 240.013,891.222 239,896.5C 236.826,900.679 233.493,903.346 229,904.5C 226.513,902.596 223.846,901.93 221,902.5C 217.726,900.554 215.559,897.72 214.5,894C 213.877,874.65 213.877,854.816 214.5,834.5C 214.052,829.135 213.385,823.801 212.5,818.5C 213.821,808.764 213.821,799.098 212.5,789.5C 214.284,783.663 214.618,777.829 213.5,772C 214.199,768.2 214.865,764.367 215.5,760.5C 214.2,753.186 214.2,745.853 215.5,738.5C 214.728,733.25 213.728,728.084 212.5,723C 212.97,715.678 213.304,708.345 213.5,701C 211.302,670.706 206.302,640.872 198.5,611.5C 199.22,606.863 199.72,602.197 200,597.5C 202.431,589.857 205.431,582.524 209,575.5C 211.859,572.384 214.692,569.384 217.5,566.5 Z"/></g>
<g><path style="opacity:0.982" fill="#000000" d="M 809.5,566.5 C 812.85,566.335 816.183,566.502 819.5,567C 822.43,569.651 825.264,572.484 828,575.5C 834.432,586.63 837.932,598.63 838.5,611.5C 834.695,627.42 831.195,643.42 828,659.5C 826.5,673.188 825,686.854 823.5,700.5C 825.204,713.481 824.538,726.148 821.5,738.5C 822.8,745.853 822.8,753.186 821.5,760.5C 822.167,761.833 822.833,763.167 823.5,764.5C 822.718,770.267 822.385,776.1 822.5,782C 823.063,784.727 823.73,787.393 824.5,790C 823.275,799.541 823.275,809.208 824.5,819C 823.615,823.962 822.949,828.962 822.5,834C 823.059,854.136 823.059,874.136 822.5,894C 821.441,897.72 819.274,900.554 816,902.5C 813.154,901.93 810.487,902.596 808,904.5C 803.507,903.346 800.174,900.679 798,896.5C 797.036,891.214 796.536,885.88 796.5,880.5C 797.031,865.966 797.364,852.133 797.5,839C 796.937,836.273 796.27,833.607 795.5,831C 795.574,820.377 796.574,809.71 798.5,799C 796.488,790.813 796.322,782.646 798,774.5C 799.891,741.353 797.891,708.353 792,675.5C 788.326,667.798 784.66,660.132 781,652.5C 776.655,646.462 772.321,640.462 768,634.5C 763.082,626.318 762.082,617.651 765,608.5C 767.482,601.424 772.482,597.757 780,597.5C 782.792,598.216 785.626,598.549 788.5,598.5C 788.334,592.491 788.501,586.491 789,580.5C 789.667,579.167 790.333,577.833 791,576.5C 797.026,572.74 803.193,569.406 809.5,566.5 Z"/></g>
<g><path style="opacity:0.974" fill="#000000" d="M 493.5,645.5 C 495.435,645.205 497.435,645.705 499.5,647C 502.356,650.672 505.856,653.505 510,655.5C 510.396,658.696 511.562,661.53 513.5,664C 511.048,666.079 511.048,668.246 513.5,670.5C 511.436,670.762 510.103,671.929 509.5,674C 510.5,674.333 511.5,674.667 512.5,675C 509.547,680.286 505.547,684.62 500.5,688C 495.985,687.334 491.485,687.501 487,688.5C 483.795,688.607 480.795,687.94 478,686.5C 477.667,686.833 477.333,687.167 477,687.5C 474.171,685.87 471.171,684.536 468,683.5C 467.667,683.833 467.333,684.167 467,684.5C 464.186,682.396 461.02,681.396 457.5,681.5C 449.088,675.465 439.755,671.298 429.5,669C 428,667.5 426.5,666 425,664.5C 421.92,665.696 419.42,664.863 417.5,662C 414.019,661.41 410.853,660.243 408,658.5C 407.667,658.833 407.333,659.167 407,659.5C 406.626,658.584 406.126,657.75 405.5,657C 398.592,654.919 391.592,653.252 384.5,652C 380.912,649.829 377.245,647.829 373.5,646C 371.888,645.28 370.388,645.446 369,646.5C 365.039,643.438 360.539,641.271 355.5,640C 354.333,639.5 353.5,638.667 353,637.5C 352.667,637.833 352.333,638.167 352,638.5C 350.266,637.751 348.433,637.251 346.5,637C 339.905,634.314 333.072,631.481 326,628.5C 325,628.833 324,629.167 323,629.5C 316.492,627.461 309.992,625.294 303.5,623C 295.778,617.522 288.278,611.689 281,605.5C 278.3,600.448 277.8,595.114 279.5,589.5C 281.554,587.806 283.888,586.639 286.5,586C 290.833,585.333 295.167,585.333 299.5,586C 311.45,589.762 323.284,593.928 335,598.5C 335.772,598.355 336.439,598.022 337,597.5C 340.415,598.684 343.749,600.018 347,601.5C 350.134,600.49 352.968,601.157 355.5,603.5C 356.167,603.167 356.833,602.833 357.5,602.5C 364.244,604.94 370.911,607.44 377.5,610C 379.112,610.72 380.612,610.554 382,609.5C 383.333,610.167 384.667,610.833 386,611.5C 389.249,610.141 392.082,610.808 394.5,613.5C 397.413,614.27 400.247,615.27 403,616.5C 404.763,616.025 406.43,615.358 408,614.5C 408.93,616.552 410.43,618.052 412.5,619C 421.638,622.155 430.638,625.488 439.5,629C 454.183,631.987 467.85,637.32 480.5,645C 484.154,647.14 487.654,646.973 491,644.5C 491.671,645.252 492.504,645.586 493.5,645.5 Z"/></g>
<g><path style="opacity:0.973" fill="#000000" d="M 652.5,652.5 C 647.386,652.806 642.553,654.14 638,656.5C 633.924,656.009 630.257,657.343 627,660.5C 626.586,660.043 626.086,659.709 625.5,659.5C 621.375,660.973 617.875,663.307 615,666.5C 613.612,665.446 612.112,665.28 610.5,666C 607.856,669.877 604.689,671.044 601,669.5C 594.817,672.5 588.984,675.833 583.5,679.5C 581.847,679.66 580.514,680.326 579.5,681.5C 575.808,680.971 572.642,681.971 570,684.5C 569.586,684.043 569.086,683.709 568.5,683.5C 565.607,684.74 562.773,686.074 560,687.5C 559.667,687.167 559.333,686.833 559,686.5C 556.706,687.852 554.206,688.519 551.5,688.5C 546.52,688.234 541.52,688.067 536.5,688C 531.618,684.948 527.951,680.782 525.5,675.5C 526.025,674.808 526.692,674.308 527.5,674C 526.897,671.929 525.564,670.762 523.5,670.5C 524.777,668.852 525.777,667.018 526.5,665C 525.5,664.667 524.5,664.333 523.5,664C 525.097,661.974 526.097,659.641 526.5,657C 531.039,653.288 535.372,649.455 539.5,645.5C 541.872,646.914 544.039,646.58 546,644.5C 548.579,646.347 551.412,646.847 554.5,646C 560.931,643.031 566.931,639.531 572.5,635.5C 576.315,636.171 579.149,634.838 581,631.5C 584.629,632.595 587.962,631.929 591,629.5C 592.84,630.833 593.34,630.666 592.5,629C 594.112,628.28 595.612,628.446 597,629.5C 598.648,628.283 600.481,627.45 602.5,627C 603.701,626.097 604.535,624.931 605,623.5C 605.893,624.081 606.893,624.415 608,624.5C 613.012,622.287 618.178,620.454 623.5,619C 626.076,618.218 628.076,616.718 629.5,614.5C 630.941,615.304 632.441,615.971 634,616.5C 638.483,615.47 642.483,613.47 646,610.5C 647.583,610.493 649.249,610.826 651,611.5C 653.74,610.718 656.574,610.218 659.5,610C 665.19,607.859 671.19,605.526 677.5,603C 679.112,602.28 680.612,602.446 682,603.5C 684.12,601.179 686.62,600.512 689.5,601.5C 693.821,599.203 698.488,598.036 703.5,598C 711.268,593.708 719.601,591.042 728.5,590C 735.245,585.833 742.579,584.5 750.5,586C 753.585,586.622 756.085,588.122 758,590.5C 758.667,594.5 758.667,598.5 758,602.5C 754.002,608.831 748.502,613.331 741.5,616C 734.412,623.208 725.745,627.208 715.5,628C 714.747,629.487 713.914,629.654 713,628.5C 711.561,630.014 710.061,630.347 708.5,629.5C 706.128,629.798 703.962,631.131 702,633.5C 700.612,632.446 699.112,632.28 697.5,633C 694.436,634.064 691.936,635.897 690,638.5C 689.667,638.167 689.333,637.833 689,637.5C 680.353,640.115 671.853,642.948 663.5,646C 659.52,647.826 655.854,649.993 652.5,652.5 Z"/></g>
<g><path style="opacity:0.959" fill="#000000" d="M 559.5,610.5 C 558.566,611.568 558.232,612.901 558.5,614.5C 557.167,614.833 557.167,615.167 558.5,615.5C 558.414,616.496 558.748,617.329 559.5,618C 557.392,620.307 556.059,622.64 555.5,625C 551.544,627.581 547.211,629.414 542.5,630.5C 526.297,630.413 510.13,630.413 494,630.5C 491.632,629.283 489.132,628.449 486.5,628C 485.284,626.26 483.618,625.26 481.5,625C 480.167,624.333 480.167,623.667 481.5,623C 477.887,620.862 477.22,618.196 479.5,615C 479.025,613.237 478.358,611.57 477.5,610C 478.554,607.618 479.221,605.118 479.5,602.5C 481.143,602.52 482.476,601.853 483.5,600.5C 486.197,602.045 488.197,601.379 489.5,598.5C 491.446,600.087 492.946,599.754 494,597.5C 495.299,598.98 496.966,599.646 499,599.5C 512,598.167 525,598.167 538,599.5C 540.034,599.646 541.701,598.98 543,597.5C 544.054,599.754 545.554,600.087 547.5,598.5C 548.665,599.491 549.832,600.491 551,601.5C 552.465,600.67 553.965,600.504 555.5,601C 555.167,601.333 554.833,601.667 554.5,602C 555.448,602.483 556.448,602.649 557.5,602.5C 557.963,605.221 558.629,607.888 559.5,610.5 Z"/></g>
<g><path style="opacity:0.975" fill="#000000" d="M 750.5,659.5 C 747.515,660.485 745.515,662.485 744.5,665.5C 742.088,664.182 739.754,664.349 737.5,666C 734.618,669.593 731.618,673.093 728.5,676.5C 726.433,677.134 724.6,678.134 723,679.5C 721.036,685.134 717.202,688.634 711.5,690C 706.06,695.747 699.393,699.413 691.5,701C 686.538,705.395 681.038,708.229 675,709.5C 674.683,711.301 674.016,711.634 673,710.5C 667.954,712.516 662.787,714.35 657.5,716C 657.002,717.158 656.169,717.991 655,718.5C 649.641,719.57 644.474,721.07 639.5,723C 636.328,724.697 633.328,726.53 630.5,728.5C 628.45,728.961 626.45,729.628 624.5,730.5C 623.914,730.291 623.414,729.957 623,729.5C 621.024,730.428 619.191,731.595 617.5,733C 615.888,733.72 614.388,733.554 613,732.5C 612.097,733.701 610.931,734.535 609.5,735C 605.23,734.797 601.563,735.964 598.5,738.5C 593.704,736.947 589.037,737.28 584.5,739.5C 581.692,738.737 578.692,738.737 575.5,739.5C 573.541,739.125 571.707,738.459 570,737.5C 569.275,738.059 568.442,738.392 567.5,738.5C 563.879,735.024 559.546,733.191 554.5,733C 551.862,730.222 549.862,727.056 548.5,723.5C 551.064,721.684 551.064,719.851 548.5,718C 550.589,715.246 552.589,712.412 554.5,709.5C 558.917,708.541 562.417,706.208 565,702.5C 570.043,703.759 575.043,702.759 580,699.5C 584.334,701.072 588.001,700.072 591,696.5C 593.401,697.602 595.901,697.769 598.5,697C 599.126,696.25 599.626,695.416 600,694.5C 605.862,695.519 611.029,693.853 615.5,689.5C 617.982,690.269 619.815,689.269 621,686.5C 622.194,687.43 623.527,688.097 625,688.5C 628.693,687.022 632.527,686.022 636.5,685.5C 638.088,684.99 639.255,683.99 640,682.5C 640.333,682.833 640.667,683.167 641,683.5C 645.915,680.616 651.082,678.283 656.5,676.5C 659.048,673.439 662.215,671.439 666,670.5C 666.414,670.957 666.914,671.291 667.5,671.5C 670.195,669.305 672.861,667.305 675.5,665.5C 680.398,662.293 685.732,659.959 691.5,658.5C 699.307,653.478 706.974,648.311 714.5,643C 716.833,642.667 719.167,642.333 721.5,642C 723.803,638.863 726.803,636.696 730.5,635.5C 731.086,635.709 731.586,636.043 732,636.5C 737.103,635.196 742.103,633.53 747,631.5C 747.317,633.301 747.984,633.634 749,632.5C 751.201,636.493 753.368,639.993 755.5,643C 754.5,643.333 753.5,643.667 752.5,644C 754.967,649.48 754.3,654.647 750.5,659.5 Z"/></g>
<g><path style="opacity:0.976" fill="#000000" d="M 406.5,728.5 C 399.517,723.875 391.85,720.708 383.5,719C 380.458,716.125 376.791,714.792 372.5,715C 372.833,714.667 373.167,714.333 373.5,714C 363.198,711.259 352.864,706.592 342.5,700C 340.899,699.727 339.399,699.227 338,698.5C 337.667,698.833 337.333,699.167 337,699.5C 332.579,694.831 327.413,691.331 321.5,689C 318.238,686.408 315.738,683.241 314,679.5C 308.21,676.153 303.377,671.653 299.5,666C 297.246,664.349 294.912,664.182 292.5,665.5C 291.463,662.463 289.463,660.463 286.5,659.5C 283.118,654.577 282.451,649.411 284.5,644C 283.833,643.667 283.167,643.333 282.5,643C 283.541,637.711 286.541,634.211 291.5,632.5C 296.081,633.696 300.581,635.03 305,636.5C 305.414,636.043 305.914,635.709 306.5,635.5C 309.255,636.631 311.589,638.298 313.5,640.5C 316.384,641.816 319.384,642.816 322.5,643.5C 330.667,648.391 338.667,653.558 346.5,659C 347.449,659.617 348.282,659.451 349,658.5C 354.205,661.187 359.371,664.021 364.5,667C 365.167,668 365.833,669 366.5,670C 369.466,670.193 372.466,670.86 375.5,672C 377.667,673.833 379.833,675.667 382,677.5C 382.333,677.167 382.667,676.833 383,676.5C 384.601,678.972 386.601,679.972 389,679.5C 392.643,681.46 396.309,683.46 400,685.5C 403.985,685.996 407.818,686.996 411.5,688.5C 413.059,687.926 414.559,687.26 416,686.5C 417.097,688.053 418.43,689.386 420,690.5C 420.414,690.043 420.914,689.709 421.5,689.5C 422.519,690.687 423.686,691.687 425,692.5C 425.333,692.167 425.667,691.833 426,691.5C 426.903,692.701 428.069,693.535 429.5,694C 436.019,696.183 442.686,698.183 449.5,700C 452.099,700.769 454.599,700.602 457,699.5C 461.957,702.759 466.957,703.759 472,702.5C 472.785,704.286 473.951,705.786 475.5,707C 479,708.276 482.167,710.109 485,712.5C 485.346,714.848 486.513,716.681 488.5,718C 485.936,719.851 485.936,721.684 488.5,723.5C 486.707,726.251 485.041,729.084 483.5,732C 479.126,732.805 475.126,734.472 471.5,737C 468.02,737.301 464.687,738.135 461.5,739.5C 457.337,739.336 453.503,739.336 450,739.5C 446.269,736.949 442.436,736.949 438.5,739.5C 438.594,738.028 437.594,736.862 435.5,736C 432.833,735.667 430.167,735.333 427.5,735C 426.069,734.535 424.903,733.701 424,732.5C 422.612,733.554 421.112,733.72 419.5,733C 415.03,730.916 410.696,729.416 406.5,728.5 Z"/></g>
<g><path style="opacity:0.97" fill="#000000" d="M 534.5,789.5 C 535.018,790.577 535.352,791.744 535.5,793C 534.195,794.756 533.528,796.423 533.5,798C 536.468,799.497 536.801,801.163 534.5,803C 534.478,805.606 534.812,808.273 535.5,811C 534.833,811.333 534.167,811.667 533.5,812C 534.167,814 534.833,816 535.5,818C 534.591,824.094 534.258,829.928 534.5,835.5C 533.587,843.924 533.587,851.757 534.5,859C 532.78,862.157 531.446,865.49 530.5,869C 527.939,871.447 525.606,874.113 523.5,877C 520.167,877.667 516.833,877.667 513.5,877C 510.923,874.488 508.59,871.821 506.5,869C 505.554,865.49 504.22,862.157 502.5,859C 503.374,852.308 503.707,845.142 503.5,837.5C 500.956,835.608 500.956,833.775 503.5,832C 502.833,831.667 502.167,831.333 501.5,831C 501.939,820.553 501.939,810.22 501.5,800C 501.903,798.527 502.57,797.194 503.5,796C 500.967,794.084 500.967,792.084 503.5,790C 501.436,788.982 501.102,787.649 502.5,786C 501.344,783.367 500.344,780.7 499.5,778C 499.455,774.198 499.455,770.365 499.5,766.5C 498.833,764.833 498.167,763.167 497.5,761.5C 498.257,754.486 498.59,747.486 498.5,740.5C 498.331,738.161 497.664,735.994 496.5,734C 498.394,732.899 499.061,731.566 498.5,730C 496.994,724.963 495.994,719.796 495.5,714.5C 495.111,708.934 495.611,703.268 497,697.5C 498.925,696.12 500.759,694.62 502.5,693C 509.138,691.637 515.304,690.804 521,690.5C 528.366,690.129 534.699,692.462 540,697.5C 541.939,708.754 541.439,719.921 538.5,731C 538.865,741.263 539.198,751.43 539.5,761.5C 538.833,763.167 538.167,764.833 537.5,766.5C 537.76,769.11 537.76,771.61 537.5,774C 535.043,775.512 535.043,776.846 537.5,778C 536.845,780.591 535.845,783.258 534.5,786C 534.759,787.261 535.426,788.261 536.5,789C 535.906,789.464 535.239,789.631 534.5,789.5 Z"/></g>
<g><path style="opacity:0.974" fill="#000000" d="M 327.5,727.5 C 327.833,728.833 328.167,728.833 328.5,727.5C 330.487,728.164 332.154,729.331 333.5,731C 334.784,731.684 335.951,731.517 337,730.5C 337.374,731.416 337.874,732.25 338.5,733C 341.47,734.153 344.137,735.82 346.5,738C 349.498,739.344 352.498,739.511 355.5,738.5C 355.406,739.972 356.406,741.138 358.5,742C 372.056,746.031 385.556,750.197 399,754.5C 402.364,754.323 405.697,753.99 409,753.5C 410.47,755.152 412.303,756.152 414.5,756.5C 421.337,755.72 428.003,755.72 434.5,756.5C 436.926,756.596 439.093,755.93 441,754.5C 441.414,754.957 441.914,755.291 442.5,755.5C 444.249,753.469 446.249,753.135 448.5,754.5C 449.251,753.624 449.751,752.624 450,751.5C 452.667,751.5 455.333,751.5 458,751.5C 460.886,750.24 463.719,748.907 466.5,747.5C 468.64,748.106 470.807,747.773 473,746.5C 473.691,748.891 474.691,748.891 476,746.5C 477.186,748.677 479.019,749.677 481.5,749.5C 481.626,752.468 483.126,754.468 486,755.5C 486.197,758.692 487.03,761.692 488.5,764.5C 485.623,766.913 485.956,768.747 489.5,770C 488.833,773.667 488.167,777.333 487.5,781C 487.833,781.333 488.167,781.667 488.5,782C 484.69,783.13 481.357,785.13 478.5,788C 473.667,788.712 469.167,790.212 465,792.5C 464,791.833 463,791.167 462,790.5C 460.457,791.285 458.79,791.285 457,790.5C 453.459,791.029 449.959,791.696 446.5,792.5C 437.167,792.167 427.833,791.833 418.5,791.5C 412.367,793.24 406.367,793.24 400.5,791.5C 397.868,793.53 395.035,793.53 392,791.5C 387.638,793.537 383.471,793.537 379.5,791.5C 378.808,792.025 378.308,792.692 378,793.5C 371.439,793.458 364.939,793.458 358.5,793.5C 353.009,790.978 347.676,788.645 342.5,786.5C 341.5,787.167 340.5,787.833 339.5,788.5C 335.679,784.532 331.013,782.032 325.5,781C 323.662,779.16 321.662,777.493 319.5,776C 317.888,775.28 316.388,775.446 315,776.5C 312.381,772.713 309.215,769.38 305.5,766.5C 304.833,766.833 304.167,767.167 303.5,767.5C 299.534,764.868 296.201,761.534 293.5,757.5C 289.604,756.436 286.771,754.103 285,750.5C 284.667,750.833 284.333,751.167 284,751.5C 279.981,744.648 274.481,739.314 267.5,735.5C 266.914,733.16 265.914,730.993 264.5,729C 265.38,727.644 265.714,726.144 265.5,724.5C 266.515,723.54 266.515,722.373 265.5,721C 266.425,716.288 269.092,713.122 273.5,711.5C 275.417,707.414 278.251,704.081 282,701.5C 285.271,702.525 288.271,702.525 291,701.5C 293.953,703.453 297.119,704.953 300.5,706C 300.167,706.333 299.833,706.667 299.5,707C 306.019,712.096 312.352,717.429 318.5,723C 321.574,724.41 324.574,725.91 327.5,727.5 Z"/></g>
<g><path style="opacity:0.974" fill="#000000" d="M 771.5,724.5 C 771.286,726.144 771.62,727.644 772.5,729C 771.002,731.482 769.502,733.982 768,736.5C 763.331,739.011 759.498,742.344 756.5,746.5C 755.196,747.987 754.03,749.654 753,751.5C 752.667,751.167 752.333,750.833 752,750.5C 750.537,753.797 748.037,755.797 744.5,756.5C 741.138,760.361 737.638,764.027 734,767.5C 733.439,766.978 732.772,766.645 732,766.5C 728.69,769.228 725.524,772.061 722.5,775C 717.733,776.411 713.4,778.744 709.5,782C 707.212,782.822 704.878,783.489 702.5,784C 700.983,785.685 699.316,787.185 697.5,788.5C 696.5,787.833 695.5,787.167 694.5,786.5C 687.907,789.75 680.74,792.083 673,793.5C 670,793.5 667,793.5 664,793.5C 662.077,792.684 660.077,792.017 658,791.5C 653.648,794.161 649.315,794.161 645,791.5C 643.667,792.167 642.333,792.833 641,793.5C 637.426,791.124 633.759,791.124 630,793.5C 622.369,791.987 614.535,791.487 606.5,792C 605.324,790.086 604.324,790.252 603.5,792.5C 602.252,791.96 601.085,791.293 600,790.5C 596.869,791.206 593.702,791.873 590.5,792.5C 585.254,791.201 580.087,790.534 575,790.5C 572.551,792.613 570.051,792.446 567.5,790C 565.167,789.667 562.833,789.333 560.5,789C 556.593,786.24 552.593,783.74 548.5,781.5C 548.709,780.914 549.043,780.414 549.5,780C 548.833,776.667 548.167,773.333 547.5,770C 551.044,768.747 551.377,766.913 548.5,764.5C 549.97,761.692 550.803,758.692 551,755.5C 553.499,754.178 554.999,752.178 555.5,749.5C 557.981,749.677 559.814,748.677 561,746.5C 562.309,748.891 563.309,748.891 564,746.5C 566.193,747.773 568.36,748.106 570.5,747.5C 573.339,748.538 576.005,749.871 578.5,751.5C 582.399,750.686 585.899,751.686 589,754.5C 590.766,753.498 592.433,753.832 594,755.5C 595.507,754.465 597.007,754.632 598.5,756C 601.865,756.314 605.031,756.481 608,756.5C 608.333,755.833 608.667,755.167 609,754.5C 610.441,755.26 611.941,755.926 613.5,756.5C 616.476,755.27 619.476,755.27 622.5,756.5C 624.841,756.338 626.675,755.338 628,753.5C 630.317,753.391 632.817,753.724 635.5,754.5C 639.807,754.347 643.64,753.013 647,750.5C 647.333,750.833 647.667,751.167 648,751.5C 651.671,750.349 655.171,749.015 658.5,747.5C 661.272,747.78 663.772,747.113 666,745.5C 666.333,745.833 666.667,746.167 667,746.5C 668.816,744.559 670.816,743.892 673,744.5C 675.941,743.188 678.774,741.688 681.5,740C 680.304,739.346 680.304,738.846 681.5,738.5C 684.502,739.511 687.502,739.344 690.5,738C 693.091,735.883 695.758,734.05 698.5,732.5C 702.434,731.184 706.101,729.517 709.5,727.5C 716.977,724.028 723.644,719.361 729.5,713.5C 732.124,711.375 734.457,709.042 736.5,706.5C 736.833,707.833 737.167,707.833 737.5,706.5C 743.033,703.113 748.867,701.446 755,701.5C 760.187,708.02 766.02,713.853 772.5,719C 771.74,720.441 771.074,721.941 770.5,723.5C 770.624,724.107 770.957,724.44 771.5,724.5 Z"/></g>
<g><path style="opacity:0.974" fill="#000000" d="M 332.5,851.5 C 321.004,849.071 309.838,845.404 299,840.5C 298.667,840.833 298.333,841.167 298,841.5C 293.443,837.949 288.61,834.782 283.5,832C 281.259,830.261 279.592,828.094 278.5,825.5C 276.167,824.167 273.833,822.833 271.5,821.5C 270.22,818.289 268.886,815.122 267.5,812C 268.328,811.085 269.328,810.419 270.5,810C 269.359,809.259 269.359,808.425 270.5,807.5C 269.975,806.808 269.308,806.308 268.5,806C 271.017,803.651 273.35,801.151 275.5,798.5C 278.039,797.885 280.539,797.218 283,796.5C 284.343,797.214 285.676,796.88 287,795.5C 296.942,799.12 306.942,803.12 317,807.5C 319.416,806.965 321.916,806.632 324.5,806.5C 327.899,809.449 331.732,809.782 336,807.5C 337.959,809.788 340.459,811.121 343.5,811.5C 349.342,811.404 355.175,811.071 361,810.5C 363.667,811.167 366.333,811.833 369,812.5C 373.875,811.958 378.542,811.958 383,812.5C 383.308,811.692 383.808,811.025 384.5,810.5C 385.72,811.711 386.887,811.711 388,810.5C 389.945,812.181 391.945,812.848 394,812.5C 395.438,811.282 397.105,810.615 399,810.5C 402.635,810.768 406.302,811.101 410,811.5C 411.763,811.025 413.43,810.358 415,809.5C 415.667,810.167 416.333,810.833 417,811.5C 420.12,809.286 423.12,809.286 426,811.5C 427.062,810.101 428.395,809.101 430,808.5C 435.16,809.457 440.16,809.79 445,809.5C 446.309,807.109 447.309,807.109 448,809.5C 449,808.167 450,808.167 451,809.5C 460.608,804.382 470.775,803.215 481.5,806C 482.579,808.043 484.246,809.376 486.5,810C 488.752,813.168 490.752,816.501 492.5,820C 491.892,823.785 491.892,827.785 492.5,832C 489.279,840.212 483.279,845.212 474.5,847C 473,848.167 471.5,849.333 470,850.5C 469.275,849.941 468.442,849.608 467.5,849.5C 460.351,851.298 453.351,853.631 446.5,856.5C 445.808,857.025 445.308,857.692 445,858.5C 435.755,859.73 425.922,859.73 415.5,858.5C 414.522,858.977 413.689,859.643 413,860.5C 409.534,859.798 406.034,859.131 402.5,858.5C 397.648,859.306 392.648,859.639 387.5,859.5C 385.192,859.635 383.192,858.969 381.5,857.5C 375.821,857.607 370.154,857.607 364.5,857.5C 362.004,856.42 359.67,855.086 357.5,853.5C 353.752,853.455 350.085,853.788 346.5,854.5C 344.87,853.102 343.036,852.102 341,851.5C 337.97,852.113 335.137,852.113 332.5,851.5 Z"/></g>
<g><path style="opacity:0.976" fill="#000000" d="M 766.5,808.5 C 765.957,808.56 765.624,808.893 765.5,809.5C 766.908,810.243 768.241,811.077 769.5,812C 767.862,814.133 767.029,816.633 767,819.5C 764.747,822.191 761.914,823.858 758.5,824.5C 756.606,830.217 752.606,833.717 746.5,835C 744.989,836.844 743.155,838.344 741,839.5C 729.223,843.814 717.39,847.814 705.5,851.5C 705.167,850.167 704.833,850.167 704.5,851.5C 700.675,852.776 697.175,852.776 694,851.5C 689.356,854.551 684.523,855.217 679.5,853.5C 677.416,854.426 675.083,855.76 672.5,857.5C 666.846,857.607 661.179,857.607 655.5,857.5C 653.213,858.922 650.713,859.589 648,859.5C 645.794,859.009 643.794,859.009 642,859.5C 641.667,858.833 641.333,858.167 641,857.5C 640.311,858.357 639.478,859.023 638.5,859.5C 634.966,859.207 631.133,858.874 627,858.5C 625.075,860.973 623.242,860.973 621.5,858.5C 612.892,859.592 604.059,859.592 595,858.5C 587.596,855.65 580.262,852.65 573,849.5C 571.284,849.411 569.451,849.744 567.5,850.5C 563.233,847.534 558.567,845.367 553.5,844C 549.654,840.593 546.654,836.593 544.5,832C 544.5,828 544.5,824 544.5,820C 548.581,810.031 556.081,804.864 567,804.5C 573.767,804.68 580.101,806.346 586,809.5C 588.333,809.167 590.667,808.833 593,808.5C 595.162,810.647 597.496,810.647 600,808.5C 602.283,809.719 604.616,809.719 607,808.5C 608.605,809.101 609.938,810.101 611,811.5C 613.88,809.286 616.88,809.286 620,811.5C 620.667,810.833 621.333,810.167 622,809.5C 624,810.167 626,810.833 628,811.5C 631.823,810.694 635.49,810.361 639,810.5C 640.333,811.167 641.667,811.833 643,812.5C 651.169,811.506 659.502,811.506 668,812.5C 669.763,812.025 671.43,811.358 673,810.5C 681.176,811.163 689.176,811.497 697,811.5C 697.833,810.667 698.667,809.833 699.5,809C 702.606,808.721 705.439,808.888 708,809.5C 709.242,808.128 710.742,807.128 712.5,806.5C 715.084,806.632 717.584,806.965 720,807.5C 724.134,805.233 728.634,803.733 733.5,803C 737.431,800.451 741.597,798.284 746,796.5C 748.924,797.01 751.59,797.01 754,796.5C 756.461,797.218 758.961,797.885 761.5,798.5C 763.273,801.06 765.273,803.393 767.5,805.5C 765.565,806.213 765.232,807.213 766.5,808.5 Z"/></g>
<g><path style="opacity:0.986" fill="#000000" d="M 279.5,859.5 C 282.786,859.929 285.953,859.929 289,859.5C 323.453,873.785 359.62,880.285 397.5,879C 415.655,875.129 433.988,872.129 452.5,870C 462.758,865.82 473.425,864.153 484.5,865C 488.467,865.628 491.301,867.795 493,871.5C 494.296,874.951 495.796,878.285 497.5,881.5C 497.132,883.8 497.132,885.967 497.5,888C 495.986,891.287 493.653,893.953 490.5,896C 475.972,903.295 461.305,909.295 446.5,914C 432.331,916.558 418.164,919.391 404,922.5C 397.667,921.833 391.333,921.167 385,920.5C 384.667,920.833 384.333,921.167 384,921.5C 382.333,920.833 380.667,920.167 379,919.5C 376.667,919.833 374.333,920.167 372,920.5C 361.286,918.8 350.786,916.133 340.5,912.5C 339.914,912.709 339.414,913.043 339,913.5C 320.952,906.149 303.452,897.649 286.5,888C 281.884,883.725 277.717,879.225 274,874.5C 273.333,872.167 273.333,869.833 274,867.5C 275.596,864.631 277.43,861.964 279.5,859.5 Z"/></g>
<g><path style="opacity:0.985" fill="#000000" d="M 752.5,859.5 C 755.652,858.959 758.152,859.959 760,862.5C 764.086,867.653 764.419,872.986 761,878.5C 757.201,881.297 753.701,884.464 750.5,888C 731.215,899.75 711.048,908.916 690,915.5C 689.667,915.167 689.333,914.833 689,914.5C 680.968,916.913 672.802,918.913 664.5,920.5C 660.212,920.296 656.046,920.296 652,920.5C 651.333,921.167 650.667,921.833 650,922.5C 644.359,921.571 638.525,921.571 632.5,922.5C 618.793,919.418 604.793,916.584 590.5,914C 573.249,908.883 556.749,901.383 541,891.5C 538.24,882.047 540.74,873.547 548.5,866C 559.148,863.789 569.481,864.789 579.5,869C 597.052,871.192 614.386,874.358 631.5,878.5C 634.146,877.638 636.813,877.805 639.5,879C 649.732,879.347 659.898,879.514 670,879.5C 680.111,877.867 690.111,875.867 700,873.5C 700.414,873.957 700.914,874.291 701.5,874.5C 718.81,869.601 735.81,864.601 752.5,859.5 Z"/></g>
<g><path style="opacity:0.981" fill="#000000" d="M 484.5,910.5 C 487.662,911.111 490.829,911.778 494,912.5C 495.548,911.316 497.048,911.483 498.5,913C 500.402,916.062 502.069,919.228 503.5,922.5C 501.616,927.937 499.449,933.27 497,938.5C 489.794,943.193 482.627,948.026 475.5,953C 462.963,956.07 450.796,959.903 439,964.5C 436.758,963.825 434.591,964.325 432.5,966C 420.934,968.975 409.267,971.475 397.5,973.5C 383.98,973.564 370.313,973.397 356.5,973C 348.051,971.517 340.051,968.85 332.5,965C 326.772,953.887 330.106,946.887 342.5,944C 356.157,942.057 369.991,939.891 384,937.5C 384.772,937.645 385.439,937.978 386,938.5C 397.486,936.334 408.986,934.167 420.5,932C 424.645,929.926 428.979,928.426 433.5,927.5C 434.086,927.709 434.586,928.043 435,928.5C 437,927.167 439,925.833 441,924.5C 447.878,924.32 454.711,922.82 461.5,920C 469.106,916.367 476.773,913.2 484.5,910.5 Z"/></g>
<g><path style="opacity:0.981" fill="#000000" d="M 550.5,910.5 C 559.879,912.932 568.879,916.432 577.5,921C 583.057,922.712 588.724,924.045 594.5,925C 597.308,925.598 599.808,926.765 602,928.5C 602.414,928.043 602.914,927.709 603.5,927.5C 614.007,931.138 624.674,934.138 635.5,936.5C 640.764,935.915 645.931,936.582 651,938.5C 651.561,937.978 652.228,937.645 653,937.5C 666.94,940.179 680.773,942.346 694.5,944C 706.894,946.887 710.228,953.887 704.5,965C 696.807,968.59 688.807,971.257 680.5,973C 666.343,973.249 652.509,973.416 639,973.5C 627.713,971.553 616.546,969.053 605.5,966C 591.471,961.563 577.138,957.23 562.5,953C 554.882,948.279 547.382,943.446 540,938.5C 537.569,933.3 535.402,927.967 533.5,922.5C 534.931,919.228 536.598,916.062 538.5,913C 542.498,912.522 546.498,911.689 550.5,910.5 Z"/></g>
</svg>
