<?xml version="1.0" encoding="UTF-8"?>
<!DOCTYPE svg PUBLIC "-//W3C//DTD SVG 1.1//EN" "http://www.w3.org/Graphics/SVG/1.1/DTD/svg11.dtd">
<svg xmlns="http://www.w3.org/2000/svg" version="1.1" width="607px" height="1138px" style="shape-rendering:geometricPrecision; text-rendering:geometricPrecision; image-rendering:optimizeQuality; fill-rule:evenodd; clip-rule:evenodd" xmlns:xlink="http://www.w3.org/1999/xlink">
<g><path style="opacity:0.998" fill="#651c1c" d="M -0.5,-0.5 C 201.833,-0.5 404.167,-0.5 606.5,-0.5C 606.5,4.5 606.5,9.5 606.5,14.5C 583.975,16.7667 563.642,24.6001 545.5,38C 501.082,69.6832 466.582,109.85 442,158.5C 410.02,220.109 390.353,285.442 383,354.5C 378.509,376.324 365.342,389.491 343.5,394C 331.718,395.073 321.551,391.573 313,383.5C 312.776,388.47 311.609,393.137 309.5,397.5C 306.275,392.002 304.109,386.002 303,379.5C 301.742,385.122 300.742,390.789 300,396.5C 299.767,398.78 298.934,400.78 297.5,402.5C 296.148,401.482 295.148,400.149 294.5,398.5C 293.738,399.628 293.071,400.795 292.5,402C 291.668,402.688 291.002,402.521 290.5,401.5C 288.863,394.212 287.363,386.879 286,379.5C 284.891,386.002 282.725,392.002 279.5,397.5C 277.398,393.092 276.231,388.426 276,383.5C 255.075,399.179 235.408,397.513 217,378.5C 212.379,372.87 209.046,366.537 207,359.5C 198.17,275.477 171.836,197.477 128,125.5C 101.296,84.8985 67.1293,52.0652 25.5,27C 17.2204,22.7405 8.5537,19.5738 -0.5,17.5C -0.5,11.5 -0.5,5.5 -0.5,-0.5 Z"/></g>
</svg>
